<svg id="svg" version="1.1" xmlns="http://www.w3.org/2000/svg" xmlns:xlink="http://www.w3.org/1999/xlink" width="400" height="519.5876288659794" viewBox="0, 0, 400,519.5876288659794"><g id="svgg"><path id="path0" d="M186.000 24.050 C 172.313 24.968,151.619 29.507,139.400 34.271 C 137.420 35.043,134.810 36.049,133.600 36.507 C 123.850 40.198,105.045 50.587,98.428 55.939 C 97.453 56.727,94.967 58.576,92.904 60.048 C 89.313 62.610,88.207 63.526,82.450 68.706 C 68.955 80.849,56.622 96.013,47.728 111.400 C 44.050 117.762,37.540 131.422,36.194 135.600 C 35.804 136.810,35.067 138.753,34.556 139.919 C 25.188 161.291,21.509 203.756,26.611 231.611 C 29.094 245.164,33.974 259.921,39.373 270.200 C 40.066 271.520,41.034 273.500,41.524 274.600 C 44.437 281.140,52.139 294.311,61.522 308.800 C 62.734 310.670,64.300 313.100,65.002 314.200 C 65.705 315.300,67.272 317.730,68.484 319.600 C 75.055 329.739,76.962 332.619,77.223 332.800 C 77.381 332.910,78.026 333.838,78.655 334.863 C 79.701 336.564,82.157 340.183,85.806 345.400 C 86.575 346.500,88.149 348.805,89.302 350.522 C 90.456 352.240,91.867 354.220,92.439 354.922 C 93.010 355.625,94.845 358.270,96.517 360.800 C 98.188 363.330,100.027 366.030,100.602 366.800 C 101.178 367.570,103.260 370.540,105.229 373.400 C 111.440 382.420,117.885 391.698,119.954 394.600 C 122.839 398.645,126.402 403.731,127.878 405.912 C 128.581 406.950,129.976 408.915,130.978 410.277 C 131.980 411.640,132.800 412.881,132.800 413.036 C 132.800 413.191,133.402 414.056,134.138 414.959 C 134.874 415.861,135.688 417.001,135.947 417.491 C 136.206 417.981,137.269 419.550,138.309 420.978 C 141.053 424.746,145.334 430.838,148.583 435.600 C 149.559 437.030,151.885 440.360,153.753 443.000 C 159.629 451.305,159.925 451.727,162.288 455.119 C 169.444 465.394,171.277 468.010,175.658 474.200 C 178.305 477.940,181.118 481.990,181.909 483.200 C 188.776 493.702,193.204 497.001,200.400 496.975 C 207.697 496.949,211.357 494.050,220.036 481.419 C 221.706 478.988,224.352 475.200,225.916 473.000 C 227.480 470.800,229.141 468.460,229.608 467.800 C 231.126 465.655,239.117 454.180,243.675 447.600 C 244.513 446.390,246.279 443.870,247.599 442.000 C 248.919 440.130,250.494 437.819,251.099 436.864 C 251.705 435.909,252.920 434.152,253.800 432.959 C 255.836 430.201,258.866 425.919,260.423 423.600 C 261.087 422.610,262.598 420.450,263.780 418.800 C 264.962 417.150,267.520 413.466,269.464 410.612 C 271.409 407.759,273.470 404.879,274.045 404.212 C 274.619 403.546,275.386 402.460,275.748 401.800 C 276.393 400.627,277.402 399.166,286.006 386.965 C 288.319 383.684,291.264 379.470,292.552 377.600 C 293.839 375.730,296.039 372.580,297.442 370.600 C 301.247 365.228,303.214 362.351,308.560 354.339 C 309.199 353.383,310.059 352.150,310.472 351.600 C 310.885 351.050,312.194 349.160,313.380 347.400 C 314.567 345.640,316.635 342.670,317.975 340.800 C 319.316 338.930,320.725 336.882,321.106 336.250 C 321.488 335.617,322.434 334.267,323.209 333.250 C 323.983 332.232,325.243 330.352,326.009 329.070 C 326.774 327.789,327.696 326.422,328.057 326.033 C 328.419 325.643,329.030 324.712,329.415 323.962 C 329.800 323.213,331.776 320.080,333.807 317.000 C 346.184 298.223,352.926 286.950,358.804 275.200 C 362.109 268.596,363.488 265.557,366.336 258.600 C 379.665 226.043,379.854 179.736,366.811 142.200 C 364.312 135.008,362.137 129.365,361.075 127.320 C 360.526 126.264,358.944 123.060,357.558 120.200 C 355.258 115.451,352.334 110.312,348.172 103.704 C 346.457 100.980,336.238 87.213,334.733 85.599 C 334.220 85.049,331.710 82.320,329.155 79.535 C 324.322 74.267,321.474 71.521,313.800 64.732 C 311.887 63.040,302.405 55.920,298.200 53.019 C 267.435 31.790,226.849 21.311,186.000 24.050 M276.697 122.800 C 280.398 125.338,280.173 123.491,280.307 152.400 C 280.441 181.204,280.137 178.900,284.268 182.412 C 285.941 183.836,288.278 185.855,289.460 186.900 C 290.641 187.945,291.764 188.800,291.954 188.800 C 292.144 188.800,293.409 189.790,294.765 191.000 C 296.121 192.210,297.408 193.200,297.625 193.200 C 297.977 193.200,299.471 194.455,305.000 199.396 C 305.880 200.182,307.148 201.154,307.817 201.556 C 308.487 201.959,309.321 202.718,309.671 203.244 C 310.021 203.770,310.709 204.650,311.200 205.200 C 312.964 207.177,313.300 207.943,313.031 209.376 C 312.753 210.859,308.704 217.285,307.218 218.600 C 306.721 219.040,305.984 220.048,305.580 220.839 C 305.177 221.630,304.341 222.605,303.723 223.004 C 303.105 223.403,302.045 224.365,301.366 225.142 C 298.750 228.134,294.283 226.544,287.899 220.349 C 287.022 219.497,286.166 218.800,285.997 218.800 C 285.829 218.800,284.732 217.900,283.561 216.800 C 282.389 215.700,281.282 214.800,281.102 214.800 C 280.921 214.800,280.266 214.281,279.646 213.647 C 279.026 213.013,277.711 211.888,276.723 211.147 C 273.061 208.402,267.200 203.555,267.200 203.273 C 267.200 203.113,266.557 202.636,265.771 202.213 C 264.986 201.789,263.992 200.951,263.564 200.350 C 263.136 199.748,262.176 198.880,261.431 198.419 C 260.685 197.958,259.372 196.911,258.511 196.091 C 257.651 195.271,255.553 193.520,253.849 192.200 C 250.723 189.778,248.190 187.697,244.355 184.400 C 243.204 183.410,241.731 182.274,241.081 181.875 C 240.431 181.477,239.325 180.577,238.623 179.875 C 237.093 178.347,233.218 174.990,231.379 173.600 C 226.417 169.848,219.720 164.423,217.539 162.389 C 216.956 161.845,215.378 160.500,214.034 159.400 C 212.690 158.300,210.688 156.636,209.585 155.703 C 203.414 150.480,198.750 151.580,190.093 160.300 C 189.602 160.795,189.065 161.200,188.900 161.200 C 188.735 161.201,187.682 162.056,186.561 163.100 C 185.439 164.145,182.036 166.980,178.999 169.400 C 175.962 171.820,172.560 174.617,171.439 175.615 C 170.317 176.613,168.615 177.956,167.654 178.600 C 166.694 179.245,165.826 179.988,165.724 180.253 C 165.623 180.517,164.807 181.218,163.912 181.811 C 163.017 182.403,161.618 183.543,160.805 184.344 C 159.991 185.145,158.262 186.658,156.962 187.707 C 155.663 188.756,153.970 190.124,153.200 190.746 C 152.430 191.369,150.901 192.559,149.802 193.391 C 147.752 194.942,145.639 196.694,141.589 200.200 C 137.361 203.860,125.926 213.245,123.924 214.698 C 123.243 215.193,121.820 216.408,120.760 217.398 C 119.701 218.389,118.672 219.200,118.473 219.200 C 118.275 219.200,117.502 219.841,116.756 220.625 C 116.010 221.409,114.500 222.665,113.400 223.416 C 112.300 224.167,110.950 225.136,110.400 225.568 C 109.483 226.290,108.091 226.547,105.677 226.441 C 104.760 226.400,98.400 220.435,98.400 219.615 C 98.400 219.401,97.565 218.286,96.544 217.137 C 92.294 212.352,91.291 208.305,93.627 205.366 C 94.272 204.554,94.800 203.742,94.800 203.561 C 94.800 203.273,98.237 200.517,102.134 197.678 C 102.830 197.171,104.120 196.078,105.000 195.249 C 105.880 194.420,107.140 193.418,107.800 193.022 C 108.460 192.626,109.630 191.706,110.400 190.977 C 113.490 188.054,117.301 184.800,117.636 184.800 C 117.832 184.800,118.959 183.945,120.141 182.900 C 123.077 180.305,125.671 178.139,128.406 176.000 C 129.672 175.010,132.002 173.120,133.583 171.800 C 135.164 170.480,137.162 168.860,138.023 168.200 C 138.883 167.540,139.871 166.594,140.218 166.098 C 140.565 165.601,141.423 164.907,142.124 164.554 C 142.826 164.201,144.030 163.312,144.800 162.580 C 145.570 161.847,146.858 160.742,147.662 160.124 C 151.786 156.955,156.000 153.444,156.000 153.177 C 156.000 153.012,156.807 152.403,157.793 151.825 C 158.779 151.248,159.766 150.438,159.986 150.026 C 160.207 149.614,161.279 148.728,162.370 148.057 C 163.460 147.386,164.548 146.470,164.788 146.023 C 165.028 145.575,165.734 144.944,166.358 144.622 C 167.346 144.111,174.356 138.456,180.082 133.551 C 181.117 132.664,182.674 131.425,183.542 130.796 C 184.410 130.167,185.241 129.457,185.389 129.218 C 185.537 128.978,186.680 128.030,187.929 127.111 C 189.178 126.192,190.442 125.202,190.738 124.911 C 194.976 120.739,209.102 120.788,213.800 124.990 C 214.460 125.580,215.702 126.518,216.560 127.075 C 217.418 127.631,218.850 128.787,219.741 129.643 C 220.632 130.499,221.503 131.200,221.676 131.200 C 221.850 131.200,222.958 132.055,224.138 133.100 C 225.319 134.145,227.868 136.260,229.803 137.800 C 233.307 140.590,235.756 142.610,239.227 145.575 C 246.996 152.211,246.748 152.495,246.897 136.800 C 247.020 123.888,246.981 124.040,250.591 122.361 L 253.000 121.240 263.828 121.320 L 274.656 121.400 276.697 122.800 M206.600 165.960 C 207.260 166.563,208.340 167.389,209.000 167.796 C 209.660 168.203,211.190 169.381,212.400 170.413 C 213.610 171.445,214.897 172.450,215.260 172.645 C 215.892 172.984,217.318 174.171,222.419 178.600 C 223.686 179.700,225.925 181.590,227.396 182.800 C 228.867 184.010,231.023 185.810,232.188 186.800 C 235.736 189.816,239.696 192.976,240.488 193.424 C 240.900 193.657,241.994 194.574,242.919 195.460 C 243.843 196.347,244.929 197.251,245.331 197.469 C 246.028 197.848,247.454 199.078,252.093 203.300 C 253.241 204.345,254.318 205.200,254.486 205.200 C 254.654 205.200,255.769 206.055,256.963 207.100 C 260.671 210.345,262.863 212.152,264.674 213.456 C 267.003 215.134,269.375 217.171,273.322 220.882 L 276.600 223.964 276.709 255.586 L 276.819 287.208 275.953 289.220 C 275.283 290.779,274.672 291.476,273.244 292.316 L 271.400 293.400 247.929 293.400 C 220.981 293.400,223.420 293.763,220.802 289.358 L 219.400 287.000 219.200 268.600 C 218.924 243.231,220.417 245.451,203.524 245.278 C 190.512 245.145,189.221 245.300,187.381 247.219 L 186.200 248.451 186.000 267.760 L 185.800 287.069 184.191 289.418 C 181.291 293.648,182.943 293.381,158.800 293.529 C 131.244 293.699,131.495 293.734,129.109 289.387 L 128.019 287.400 128.024 256.200 C 128.027 232.456,128.144 224.801,128.514 224.169 C 129.140 223.098,133.571 219.010,138.400 215.047 C 140.490 213.331,142.706 211.469,143.324 210.907 C 143.942 210.346,145.119 209.417,145.939 208.843 C 146.759 208.270,147.963 207.302,148.615 206.692 C 150.774 204.674,154.180 201.811,155.600 200.821 C 156.370 200.283,158.620 198.476,160.600 196.804 C 162.580 195.132,164.579 193.502,165.042 193.182 C 165.894 192.594,168.665 190.260,171.806 187.486 C 172.749 186.653,174.159 185.483,174.940 184.886 C 176.252 183.883,180.850 180.094,183.200 178.081 C 186.204 175.506,190.107 172.400,190.337 172.400 C 190.482 172.400,191.656 171.410,192.946 170.200 C 194.236 168.990,195.450 168.000,195.644 168.000 C 195.839 168.000,196.721 167.347,197.605 166.548 C 200.307 164.107,204.286 163.847,206.600 165.960 " stroke="none" fill="#da5344" fill-rule="evenodd"></path><path id="path1" d="M0.000 259.600 L 0.000 519.200 200.000 519.200 L 400.000 519.200 400.000 259.600 L 400.000 0.000 200.000 0.000 L 0.000 0.000 0.000 259.600 M212.695 9.235 C 218.037 9.490,223.536 9.988,226.000 10.440 C 228.310 10.863,233.260 11.744,237.000 12.397 C 240.740 13.050,246.201 14.308,249.135 15.192 C 252.069 16.076,254.859 16.806,255.335 16.813 C 255.811 16.821,257.820 17.463,259.800 18.241 C 261.780 19.019,264.930 20.159,266.800 20.774 C 270.736 22.068,275.488 24.061,280.600 26.562 C 282.580 27.531,285.370 28.877,286.800 29.554 C 290.322 31.221,294.488 33.509,297.477 35.418 C 298.839 36.288,300.715 37.450,301.647 38.000 C 304.150 39.478,309.495 43.092,311.946 44.962 C 313.126 45.863,314.476 46.870,314.946 47.200 C 324.147 53.665,340.162 68.966,347.812 78.600 C 348.685 79.700,349.497 80.690,349.616 80.800 C 349.816 80.985,354.391 87.146,356.745 90.400 C 357.302 91.170,357.880 91.890,358.029 92.000 C 358.178 92.110,358.640 92.830,359.055 93.600 C 359.471 94.370,360.663 96.311,361.705 97.912 C 362.747 99.514,363.600 100.986,363.600 101.182 C 363.600 101.378,364.046 102.069,364.592 102.717 C 365.723 104.062,368.670 109.358,370.424 113.200 C 371.077 114.630,372.398 117.330,373.360 119.200 C 374.322 121.070,375.334 123.320,375.609 124.200 C 375.884 125.080,376.522 126.624,377.026 127.631 C 377.531 128.638,378.429 130.963,379.023 132.798 C 379.617 134.633,380.537 137.115,381.067 138.313 C 381.597 139.512,382.725 143.127,383.574 146.346 C 384.424 149.566,385.400 153.190,385.745 154.400 C 386.318 156.412,388.419 167.653,389.782 176.000 C 391.459 186.269,391.559 213.557,389.963 225.374 C 389.198 231.038,386.061 246.288,385.044 249.283 C 384.500 250.887,383.568 253.820,382.974 255.800 C 382.380 257.780,381.488 260.300,380.992 261.400 C 380.495 262.500,379.611 264.737,379.027 266.372 C 378.443 268.006,377.536 270.166,377.012 271.172 C 376.487 272.177,374.410 276.330,372.395 280.400 C 368.321 288.632,367.568 290.061,365.223 294.008 C 364.330 295.510,363.600 296.898,363.600 297.092 C 363.600 297.286,362.700 298.829,361.600 300.522 C 360.500 302.214,359.600 303.698,359.600 303.820 C 359.600 303.941,358.403 305.876,356.940 308.120 C 355.477 310.364,353.709 313.100,353.012 314.200 C 351.637 316.367,348.429 321.342,345.531 325.800 C 344.530 327.340,342.344 330.706,340.673 333.281 C 336.445 339.794,335.843 340.701,334.088 343.200 C 333.239 344.410,330.067 349.000,327.041 353.400 C 324.014 357.800,321.197 361.850,320.781 362.400 C 319.551 364.029,314.651 371.205,313.990 372.346 C 313.654 372.926,312.540 374.570,311.515 376.000 C 308.068 380.807,305.967 383.792,305.180 385.000 C 304.750 385.660,303.488 387.460,302.376 389.000 C 301.263 390.540,299.368 393.240,298.165 395.000 C 296.961 396.760,295.070 399.460,293.963 401.000 C 292.857 402.540,291.286 404.790,290.473 406.000 C 289.660 407.210,287.736 409.973,286.197 412.139 C 282.923 416.750,283.313 416.192,278.180 423.599 C 275.968 426.790,273.460 430.390,272.605 431.600 C 269.206 436.412,264.947 442.548,264.000 443.998 C 263.450 444.840,262.497 446.220,261.882 447.065 C 261.268 447.909,259.514 450.400,257.985 452.600 C 256.456 454.800,255.061 456.780,254.885 457.000 C 254.545 457.424,252.448 460.421,248.586 466.000 C 245.883 469.905,241.654 475.988,239.575 478.962 C 238.791 480.083,236.017 484.060,233.412 487.800 C 219.431 507.868,214.415 511.410,200.000 511.392 C 184.788 511.373,181.348 508.475,160.572 478.174 C 159.677 476.868,157.800 474.180,156.400 472.200 C 155.000 470.220,153.052 467.430,152.071 466.000 C 151.090 464.570,149.773 462.744,149.144 461.942 C 148.515 461.141,148.000 460.349,148.000 460.184 C 148.000 460.018,147.382 459.128,146.627 458.206 C 145.871 457.284,144.746 455.713,144.127 454.715 C 143.057 452.991,139.449 447.779,136.400 443.554 C 134.899 441.473,133.010 438.766,125.826 428.400 C 123.311 424.770,120.116 420.211,118.726 418.268 C 117.337 416.326,115.930 414.346,115.600 413.868 C 114.316 412.009,105.227 398.902,104.042 397.200 C 100.173 391.642,97.825 388.335,96.211 386.168 C 95.215 384.830,94.400 383.623,94.400 383.486 C 94.400 383.349,93.545 382.055,92.500 380.610 C 89.728 376.777,86.946 372.828,85.732 371.000 C 83.981 368.366,80.287 362.955,76.038 356.800 C 73.835 353.610,70.450 348.660,68.516 345.800 C 66.582 342.940,64.893 340.510,64.762 340.400 C 64.539 340.214,57.478 329.503,54.609 325.000 C 53.092 322.618,49.084 316.372,47.400 313.765 C 43.369 307.523,41.429 304.457,40.841 303.400 C 40.474 302.740,39.683 301.436,39.083 300.502 C 38.483 299.567,37.456 297.812,36.800 296.600 C 36.144 295.388,35.165 293.696,34.624 292.839 C 34.083 291.981,33.197 290.407,32.655 289.340 C 32.113 288.273,30.550 285.240,29.182 282.600 C 26.129 276.708,22.255 268.288,20.993 264.800 C 20.475 263.370,19.493 260.854,18.811 259.210 C 18.129 257.565,17.224 254.865,16.799 253.210 C 16.375 251.554,15.564 248.850,14.998 247.200 C 13.956 244.163,10.847 226.860,9.980 219.265 C 9.283 213.166,9.725 181.684,10.565 177.600 C 10.904 175.950,11.548 172.260,11.996 169.400 C 13.621 159.018,14.045 156.793,14.837 154.517 C 15.280 153.243,16.170 149.997,16.814 147.305 C 17.458 144.613,18.424 141.370,18.959 140.097 C 19.495 138.825,20.560 135.897,21.327 133.592 C 22.663 129.575,25.020 123.952,27.694 118.400 C 31.471 110.560,34.227 105.311,35.359 103.800 C 35.854 103.140,36.384 102.262,36.536 101.850 C 37.578 99.032,49.554 82.161,54.745 76.200 C 59.934 70.240,67.053 62.892,70.826 59.600 C 72.213 58.390,73.967 56.819,74.725 56.109 C 76.787 54.178,80.502 51.163,85.200 47.608 C 87.510 45.860,89.690 44.177,90.045 43.870 C 93.315 41.032,114.754 28.400,116.299 28.400 C 116.532 28.400,117.865 27.754,119.262 26.964 C 124.252 24.142,140.696 17.902,147.000 16.440 C 148.100 16.185,150.710 15.444,152.800 14.793 C 154.890 14.142,159.750 13.058,163.600 12.385 C 167.450 11.711,172.630 10.804,175.111 10.368 C 182.949 8.992,198.062 8.536,212.695 9.235 M253.400 124.837 C 252.740 125.037,251.750 125.550,251.200 125.977 L 250.200 126.753 250.000 139.008 L 249.800 151.263 248.306 152.631 C 247.332 153.524,246.413 154.000,245.665 154.000 C 244.437 154.000,243.976 153.686,237.323 148.302 C 230.487 142.770,228.058 140.736,225.855 138.700 C 224.725 137.656,223.588 136.801,223.329 136.800 C 223.070 136.800,222.530 136.387,222.129 135.882 C 221.728 135.376,220.410 134.234,219.200 133.342 C 217.989 132.451,216.753 131.426,216.453 131.063 C 216.152 130.701,214.958 129.863,213.800 129.200 C 212.642 128.537,211.448 127.697,211.147 127.334 C 208.227 123.804,198.142 123.854,193.269 127.421 C 189.054 130.506,184.204 134.279,182.883 135.500 C 182.110 136.215,181.302 136.800,181.087 136.800 C 180.873 136.800,179.866 137.597,178.849 138.571 C 175.193 142.073,172.122 144.800,171.834 144.800 C 171.673 144.800,170.374 145.790,168.948 147.000 C 167.521 148.210,166.230 149.200,166.077 149.200 C 165.924 149.200,164.992 149.938,164.006 150.840 C 163.019 151.741,161.669 152.858,161.006 153.320 C 160.343 153.783,159.710 154.271,159.600 154.404 C 159.490 154.537,158.140 155.701,156.600 156.991 C 151.636 161.146,148.603 163.793,148.472 164.084 C 148.402 164.240,147.232 165.123,145.872 166.046 C 144.512 166.970,143.036 168.102,142.590 168.563 C 142.145 169.023,141.259 169.760,140.622 170.200 C 139.984 170.640,138.728 171.644,137.831 172.430 C 136.934 173.217,135.776 174.147,135.257 174.498 C 134.739 174.848,133.479 175.864,132.457 176.754 C 131.436 177.645,129.520 179.289,128.200 180.409 C 126.880 181.528,125.080 183.134,124.200 183.976 C 123.320 184.819,121.483 186.250,120.119 187.156 C 118.754 188.063,117.494 189.033,117.319 189.312 C 117.143 189.591,116.510 190.131,115.911 190.511 C 115.313 190.892,113.873 192.010,112.711 192.995 C 111.550 193.980,109.366 195.824,107.859 197.093 C 106.351 198.362,104.144 200.255,102.955 201.300 C 101.765 202.345,100.649 203.200,100.475 203.200 C 99.857 203.200,96.686 206.618,96.164 207.846 C 95.417 209.603,96.006 211.377,98.215 214.020 C 106.981 224.513,106.612 224.441,115.664 217.438 C 117.059 216.360,118.560 215.139,119.000 214.727 C 121.130 212.730,124.523 209.792,125.315 209.258 C 125.802 208.931,127.047 207.883,128.083 206.931 C 129.118 205.979,130.108 205.198,130.283 205.196 C 130.457 205.194,131.522 204.339,132.650 203.296 C 133.777 202.253,135.397 200.897,136.250 200.283 C 138.341 198.775,141.179 196.519,143.273 194.700 C 145.737 192.560,149.596 189.308,152.287 187.106 C 153.559 186.064,156.040 184.030,157.800 182.585 C 159.560 181.140,162.045 179.112,163.322 178.079 C 165.770 176.098,168.981 173.393,172.437 170.400 C 173.580 169.410,174.894 168.344,175.358 168.032 C 175.821 167.720,177.122 166.640,178.249 165.632 C 179.377 164.624,180.997 163.308,181.849 162.707 C 183.339 161.657,184.528 160.685,190.797 155.400 C 193.440 153.172,196.860 150.515,199.172 148.895 C 200.505 147.960,204.330 147.971,205.633 148.912 C 206.165 149.297,207.564 150.277,208.742 151.090 C 209.920 151.903,211.630 153.251,212.541 154.084 C 213.453 154.918,214.329 155.600,214.486 155.600 C 214.644 155.600,215.647 156.365,216.716 157.300 C 217.784 158.235,220.230 160.260,222.151 161.800 C 224.072 163.340,226.448 165.363,227.432 166.295 C 228.416 167.227,229.756 168.267,230.410 168.605 C 231.065 168.944,231.600 169.388,231.600 169.592 C 231.600 169.796,232.455 170.608,233.500 171.396 C 234.545 172.184,236.087 173.407,236.927 174.114 C 237.767 174.821,239.414 176.210,240.587 177.200 C 241.760 178.190,243.382 179.450,244.192 180.000 C 245.002 180.550,247.414 182.530,249.552 184.400 C 251.691 186.270,255.112 189.150,257.155 190.800 C 259.198 192.450,261.349 194.219,261.935 194.732 C 262.521 195.244,263.900 196.348,265.000 197.185 C 266.100 198.022,267.529 199.268,268.175 199.954 C 268.821 200.639,269.524 201.200,269.736 201.200 C 269.949 201.200,271.083 202.055,272.256 203.100 C 275.505 205.994,282.256 211.668,286.063 214.704 C 298.447 224.577,298.603 224.591,304.738 216.400 C 305.644 215.190,306.884 213.587,307.493 212.837 C 309.875 209.904,308.862 206.509,304.667 203.364 C 303.530 202.512,301.548 200.912,300.262 199.808 C 297.654 197.569,294.654 195.061,291.501 192.483 C 290.345 191.538,288.337 189.873,287.038 188.783 C 285.739 187.692,284.527 186.800,284.346 186.800 C 283.779 186.800,277.841 181.200,277.000 179.872 C 276.227 178.652,276.193 177.723,275.982 152.405 C 275.862 137.992,275.727 126.170,275.682 126.133 C 273.621 124.434,257.761 123.512,253.400 124.837 M200.753 168.952 C 198.707 169.683,196.822 170.918,195.222 172.574 C 194.463 173.358,193.638 174.000,193.387 174.000 C 193.137 174.000,192.137 174.773,191.166 175.719 C 190.195 176.664,188.770 177.872,188.000 178.402 C 187.230 178.933,186.367 179.686,186.082 180.077 C 185.797 180.467,184.807 181.316,183.882 181.964 C 182.957 182.611,181.667 183.647,181.015 184.265 C 180.364 184.884,178.770 186.202,177.475 187.195 C 176.179 188.188,174.462 189.505,173.659 190.123 C 172.857 190.741,171.473 191.956,170.585 192.823 C 169.697 193.690,168.814 194.400,168.624 194.400 C 168.433 194.400,167.349 195.255,166.214 196.300 C 162.773 199.468,152.814 207.643,147.689 211.506 C 146.444 212.444,145.276 213.479,145.093 213.806 C 144.910 214.133,144.242 214.668,143.608 214.996 C 142.974 215.324,141.648 216.359,140.662 217.296 C 139.676 218.233,137.531 220.170,135.896 221.600 C 134.261 223.030,132.716 224.753,132.462 225.428 C 131.745 227.335,131.824 285.171,132.546 287.587 C 133.624 291.191,132.265 291.000,156.862 291.000 L 178.466 291.000 179.608 289.721 C 181.617 287.473,181.701 286.673,181.865 268.200 C 182.033 249.405,182.097 248.821,184.363 245.546 C 186.651 242.238,186.509 242.269,200.000 242.087 C 217.570 241.850,218.204 241.986,221.448 246.694 L 223.000 248.947 223.200 268.174 L 223.400 287.400 224.400 288.891 C 225.865 291.076,224.911 290.985,247.800 291.107 C 272.092 291.236,270.527 291.461,272.511 287.540 L 273.620 285.349 273.510 255.758 L 273.400 226.167 272.035 224.444 C 271.285 223.497,269.575 221.836,268.235 220.754 C 263.052 216.568,261.115 214.939,259.362 213.296 C 258.363 212.359,257.017 211.319,256.372 210.986 C 255.728 210.652,255.200 210.231,255.200 210.049 C 255.200 209.867,254.075 208.843,252.700 207.774 C 251.325 206.705,247.612 203.664,244.449 201.015 C 241.286 198.367,237.859 195.570,236.832 194.800 C 235.806 194.030,234.292 192.725,233.470 191.900 C 232.647 191.075,231.836 190.400,231.668 190.400 C 231.500 190.400,230.651 189.671,229.781 188.780 C 228.912 187.889,227.435 186.711,226.500 186.163 C 225.565 185.615,224.800 184.996,224.800 184.788 C 224.800 184.580,224.035 183.928,223.100 183.339 C 222.165 182.749,219.631 180.722,217.470 178.834 C 215.308 176.945,212.871 174.950,212.053 174.400 C 211.236 173.850,209.898 172.730,209.080 171.910 C 206.393 169.217,203.193 168.080,200.753 168.952 " stroke="none" fill="#fbf8f8" fill-rule="evenodd"></path><path id="path2" d="M186.511 9.248 C 182.722 9.428,177.592 9.932,175.111 10.368 C 172.630 10.804,167.450 11.711,163.600 12.385 C 159.750 13.058,154.890 14.142,152.800 14.793 C 150.710 15.444,148.100 16.185,147.000 16.440 C 140.696 17.902,124.252 24.142,119.262 26.964 C 117.865 27.754,116.532 28.400,116.299 28.400 C 114.754 28.400,93.315 41.032,90.045 43.870 C 89.690 44.177,87.510 45.860,85.200 47.608 C 80.502 51.163,76.787 54.178,74.725 56.109 C 73.967 56.819,72.213 58.390,70.826 59.600 C 67.053 62.892,59.934 70.240,54.745 76.200 C 49.554 82.161,37.578 99.032,36.536 101.850 C 36.384 102.262,35.854 103.140,35.359 103.800 C 34.227 105.311,31.471 110.560,27.694 118.400 C 25.020 123.952,22.663 129.575,21.327 133.592 C 20.560 135.897,19.495 138.825,18.959 140.097 C 18.424 141.370,17.458 144.613,16.814 147.305 C 16.170 149.997,15.280 153.243,14.837 154.517 C 14.045 156.793,13.621 159.018,11.996 169.400 C 11.548 172.260,10.904 175.950,10.565 177.600 C 9.725 181.684,9.283 213.166,9.980 219.265 C 10.847 226.860,13.956 244.163,14.998 247.200 C 15.564 248.850,16.375 251.554,16.799 253.210 C 17.224 254.865,18.129 257.565,18.811 259.210 C 19.493 260.854,20.475 263.370,20.993 264.800 C 22.255 268.288,26.129 276.708,29.182 282.600 C 30.550 285.240,32.113 288.273,32.655 289.340 C 33.197 290.407,34.083 291.981,34.624 292.839 C 35.165 293.696,36.144 295.388,36.800 296.600 C 37.456 297.812,38.483 299.567,39.083 300.502 C 39.683 301.436,40.474 302.740,40.841 303.400 C 41.429 304.457,43.369 307.523,47.400 313.765 C 49.084 316.372,53.092 322.618,54.609 325.000 C 57.478 329.503,64.539 340.214,64.762 340.400 C 64.893 340.510,66.582 342.940,68.516 345.800 C 70.450 348.660,73.835 353.610,76.038 356.800 C 80.287 362.955,83.981 368.366,85.732 371.000 C 86.946 372.828,89.728 376.777,92.500 380.610 C 93.545 382.055,94.400 383.349,94.400 383.486 C 94.400 383.623,95.215 384.830,96.211 386.168 C 97.825 388.335,100.173 391.642,104.042 397.200 C 105.227 398.902,114.316 412.009,115.600 413.868 C 115.930 414.346,117.337 416.326,118.726 418.268 C 120.116 420.211,123.311 424.770,125.826 428.400 C 133.010 438.766,134.899 441.473,136.400 443.554 C 139.449 447.779,143.057 452.991,144.127 454.715 C 144.746 455.713,145.871 457.284,146.627 458.206 C 147.382 459.128,148.000 460.018,148.000 460.184 C 148.000 460.349,148.515 461.141,149.144 461.942 C 149.773 462.744,151.090 464.570,152.071 466.000 C 153.052 467.430,155.000 470.220,156.400 472.200 C 157.800 474.180,159.677 476.868,160.572 478.174 C 181.348 508.475,184.788 511.373,200.000 511.392 C 214.415 511.410,219.431 507.868,233.412 487.800 C 236.017 484.060,238.791 480.083,239.575 478.962 C 241.654 475.988,245.883 469.905,248.586 466.000 C 252.448 460.421,254.545 457.424,254.885 457.000 C 255.061 456.780,256.456 454.800,257.985 452.600 C 259.514 450.400,261.268 447.909,261.882 447.065 C 262.497 446.220,263.450 444.840,264.000 443.998 C 264.947 442.548,269.206 436.412,272.605 431.600 C 273.460 430.390,275.968 426.790,278.180 423.599 C 283.313 416.192,282.923 416.750,286.197 412.139 C 287.736 409.973,289.660 407.210,290.473 406.000 C 291.286 404.790,292.857 402.540,293.963 401.000 C 295.070 399.460,296.961 396.760,298.165 395.000 C 299.368 393.240,301.263 390.540,302.376 389.000 C 303.488 387.460,304.750 385.660,305.180 385.000 C 305.967 383.792,308.068 380.807,311.515 376.000 C 312.540 374.570,313.654 372.926,313.990 372.346 C 314.651 371.205,319.551 364.029,320.781 362.400 C 321.197 361.850,324.014 357.800,327.041 353.400 C 330.067 349.000,333.239 344.410,334.088 343.200 C 335.843 340.701,336.445 339.794,340.673 333.281 C 342.344 330.706,344.530 327.340,345.531 325.800 C 348.429 321.342,351.637 316.367,353.012 314.200 C 353.709 313.100,355.477 310.364,356.940 308.120 C 358.403 305.876,359.600 303.941,359.600 303.820 C 359.600 303.698,360.500 302.214,361.600 300.522 C 362.700 298.829,363.600 297.286,363.600 297.092 C 363.600 296.898,364.330 295.510,365.223 294.008 C 367.568 290.061,368.321 288.632,372.395 280.400 C 374.410 276.330,376.487 272.177,377.012 271.172 C 377.536 270.166,378.443 268.006,379.027 266.372 C 379.611 264.737,380.495 262.500,380.992 261.400 C 381.488 260.300,382.380 257.780,382.974 255.800 C 383.568 253.820,384.500 250.887,385.044 249.283 C 386.061 246.288,389.198 231.038,389.963 225.374 C 391.559 213.557,391.459 186.269,389.782 176.000 C 388.419 167.653,386.318 156.412,385.745 154.400 C 385.400 153.190,384.424 149.566,383.574 146.346 C 382.725 143.127,381.597 139.512,381.067 138.313 C 380.537 137.115,379.617 134.633,379.023 132.798 C 378.429 130.963,377.531 128.638,377.026 127.631 C 376.522 126.624,375.884 125.080,375.609 124.200 C 375.334 123.320,374.322 121.070,373.360 119.200 C 372.398 117.330,371.077 114.630,370.424 113.200 C 368.670 109.358,365.723 104.062,364.592 102.717 C 364.046 102.069,363.600 101.378,363.600 101.182 C 363.600 100.986,362.747 99.514,361.705 97.912 C 360.663 96.311,359.471 94.370,359.055 93.600 C 358.640 92.830,358.178 92.110,358.029 92.000 C 357.880 91.890,357.302 91.170,356.745 90.400 C 354.391 87.146,349.816 80.985,349.616 80.800 C 349.497 80.690,348.685 79.700,347.812 78.600 C 340.162 68.966,324.147 53.665,314.946 47.200 C 314.476 46.870,313.126 45.863,311.946 44.962 C 309.495 43.092,304.150 39.478,301.647 38.000 C 300.715 37.450,298.839 36.288,297.477 35.418 C 294.488 33.509,290.322 31.221,286.800 29.554 C 285.370 28.877,282.580 27.531,280.600 26.562 C 275.488 24.061,270.736 22.068,266.800 20.774 C 264.930 20.159,261.780 19.019,259.800 18.241 C 257.820 17.463,255.811 16.821,255.335 16.813 C 254.859 16.806,252.069 16.076,249.135 15.192 C 246.201 14.308,240.740 13.050,237.000 12.397 C 233.260 11.744,228.310 10.863,226.000 10.440 C 218.427 9.052,201.417 8.538,186.511 9.248 M211.964 12.015 C 215.794 12.237,220.564 12.672,222.564 12.982 C 236.321 15.117,239.632 15.697,242.910 16.551 C 254.249 19.505,259.454 21.036,263.400 22.577 C 265.820 23.523,268.292 24.412,268.893 24.554 C 270.728 24.987,287.310 32.773,291.600 35.217 C 311.356 46.467,326.161 58.417,341.387 75.400 C 349.458 84.403,356.634 94.522,364.363 107.800 C 373.877 124.144,382.999 150.127,385.430 167.800 C 385.762 170.220,386.375 174.360,386.792 177.000 C 391.946 209.687,385.440 249.881,370.344 278.600 C 369.881 279.480,368.564 282.000,367.417 284.200 C 365.066 288.711,362.065 294.079,360.589 296.417 C 360.045 297.279,359.600 298.080,359.600 298.196 C 359.600 298.468,355.627 305.008,353.402 308.400 C 351.735 310.940,350.841 312.329,344.005 323.000 C 339.587 329.896,332.187 341.065,329.561 344.800 C 328.401 346.450,326.348 349.420,325.000 351.400 C 323.651 353.380,321.849 355.990,320.994 357.200 C 320.140 358.410,318.641 360.570,317.664 362.000 C 316.687 363.430,315.333 365.410,314.655 366.400 C 313.977 367.390,312.563 369.392,311.511 370.849 C 310.460 372.306,309.600 373.625,309.600 373.779 C 309.600 373.934,308.830 375.082,307.888 376.330 C 306.947 377.579,305.700 379.320,305.118 380.200 C 304.536 381.080,303.339 382.790,302.458 384.000 C 301.578 385.210,299.578 388.057,298.014 390.326 C 296.451 392.595,293.326 397.095,291.070 400.326 C 288.815 403.557,286.707 406.592,286.385 407.070 C 286.063 407.549,284.344 409.979,282.565 412.470 C 280.786 414.962,279.122 417.391,278.868 417.869 C 278.613 418.347,278.168 418.977,277.879 419.269 C 277.589 419.561,276.373 421.228,275.176 422.974 C 273.979 424.720,272.231 427.240,271.292 428.574 C 270.353 429.908,268.787 432.170,267.813 433.600 C 266.838 435.030,265.213 437.370,264.202 438.800 C 263.191 440.230,261.372 442.840,260.161 444.600 C 258.949 446.360,257.066 449.060,255.974 450.600 C 254.883 452.140,252.958 454.884,251.695 456.698 C 250.433 458.512,248.546 461.212,247.502 462.698 C 244.963 466.313,244.886 466.423,239.603 474.005 C 232.723 483.876,229.560 488.385,225.940 493.480 C 218.031 504.611,211.059 508.778,200.320 508.794 C 188.413 508.812,182.291 504.609,171.600 489.079 C 171.270 488.599,168.041 483.976,164.424 478.804 C 156.915 468.065,154.682 464.863,152.154 461.200 C 151.167 459.770,149.462 457.340,148.366 455.800 C 147.270 454.260,145.733 452.039,144.951 450.864 C 144.169 449.689,142.094 446.743,140.340 444.317 C 138.586 441.891,136.727 439.253,136.208 438.453 C 135.690 437.654,134.249 435.560,133.007 433.800 C 130.905 430.821,128.412 427.234,123.987 420.826 C 121.960 417.889,103.298 391.245,100.438 387.203 C 99.427 385.775,98.118 383.885,97.530 383.003 C 96.941 382.121,95.379 379.870,94.058 378.000 C 92.737 376.130,89.992 372.170,87.956 369.200 C 85.921 366.230,83.478 362.675,82.528 361.300 C 79.182 356.459,77.053 353.370,75.016 350.400 C 73.884 348.750,72.258 346.410,71.403 345.200 C 69.198 342.081,59.889 328.082,56.800 323.240 C 55.370 320.999,53.300 317.773,52.200 316.072 C 50.371 313.243,47.861 309.268,42.807 301.200 C 41.082 298.446,39.080 295.031,36.474 290.400 C 35.496 288.663,33.299 284.446,30.327 278.600 C 13.787 246.078,8.791 211.223,14.790 170.200 C 15.433 165.800,16.310 160.760,16.738 159.000 C 18.622 151.259,20.961 142.796,21.880 140.400 C 22.428 138.970,23.476 136.090,24.209 134.000 C 26.838 126.504,32.385 114.524,36.525 107.400 C 40.814 100.019,41.558 98.787,43.477 95.887 C 52.935 81.595,70.746 61.956,81.656 53.790 C 82.236 53.356,85.476 50.916,88.856 48.370 C 101.019 39.203,121.995 27.608,132.200 24.409 C 133.080 24.134,135.600 23.214,137.800 22.365 C 143.315 20.237,159.625 15.864,165.200 15.018 C 167.730 14.634,171.801 13.986,174.247 13.578 C 185.086 11.770,198.288 11.223,211.964 12.015 M251.659 122.753 C 247.647 124.162,247.836 123.502,247.550 137.110 C 247.412 143.650,247.171 149.387,247.013 149.860 C 246.546 151.268,244.787 151.374,243.600 150.067 C 243.050 149.462,242.071 148.633,241.425 148.225 C 240.779 147.817,239.813 146.963,239.278 146.327 C 238.742 145.692,237.827 144.924,237.244 144.623 C 236.661 144.321,235.737 143.634,235.192 143.096 C 234.646 142.558,233.288 141.416,232.173 140.559 C 231.058 139.702,228.380 137.560,226.221 135.800 C 224.063 134.040,221.825 132.251,221.249 131.824 C 220.672 131.397,219.353 130.272,218.317 129.324 C 217.282 128.376,216.290 127.600,216.114 127.600 C 215.938 127.600,214.828 126.808,213.648 125.839 C 208.491 121.609,196.887 121.263,191.774 125.187 C 190.908 125.851,189.480 126.871,188.600 127.453 C 187.720 128.035,186.167 129.251,185.150 130.156 C 181.811 133.123,179.424 135.145,177.920 136.281 C 177.105 136.897,174.851 138.764,172.910 140.432 C 170.969 142.099,168.845 143.800,168.190 144.212 C 167.536 144.623,166.163 145.689,165.139 146.580 C 164.116 147.471,162.175 149.100,160.826 150.200 C 159.477 151.300,157.254 153.141,155.887 154.292 C 154.519 155.442,152.410 157.210,151.200 158.220 C 149.990 159.231,148.125 160.809,147.056 161.729 C 145.987 162.648,144.393 163.890,143.514 164.488 C 142.635 165.086,141.139 166.256,140.189 167.088 C 135.718 171.002,134.483 172.035,132.940 173.149 C 132.027 173.808,131.159 174.543,131.011 174.782 C 130.863 175.022,129.763 175.941,128.566 176.825 C 127.369 177.709,125.507 179.190,124.427 180.116 C 123.348 181.042,121.451 182.610,120.213 183.600 C 118.974 184.590,116.904 186.300,115.613 187.400 C 114.322 188.500,112.164 190.300,110.819 191.400 C 109.474 192.500,107.300 194.300,105.989 195.400 C 104.678 196.500,102.922 197.972,102.086 198.671 C 101.251 199.370,99.451 200.763,98.086 201.768 C 92.502 205.879,91.858 211.080,96.350 215.797 C 97.190 216.679,98.256 218.037,98.719 218.815 C 100.581 221.945,104.954 225.600,106.837 225.600 C 108.691 225.600,113.149 223.240,114.905 221.328 C 115.397 220.793,116.355 219.960,117.034 219.477 C 117.712 218.995,119.216 217.790,120.376 216.800 C 124.892 212.946,126.396 211.696,130.004 208.800 C 132.059 207.150,134.701 204.945,135.875 203.900 C 137.048 202.855,138.166 202.000,138.360 202.000 C 138.553 202.000,139.523 201.235,140.515 200.300 C 142.768 198.179,146.937 194.674,150.600 191.825 C 153.605 189.487,156.652 186.998,160.424 183.800 C 161.722 182.700,163.967 180.810,165.414 179.600 C 166.860 178.390,169.026 176.545,170.226 175.500 C 171.426 174.455,172.542 173.599,172.704 173.598 C 172.867 173.597,173.540 173.096,174.200 172.484 C 175.534 171.248,180.452 167.211,182.728 165.483 C 183.538 164.869,185.048 163.609,186.085 162.683 C 187.121 161.757,189.101 160.056,190.485 158.901 C 191.868 157.747,194.049 155.914,195.332 154.828 C 197.815 152.725,200.421 151.600,202.807 151.600 C 204.433 151.600,209.131 153.755,209.478 154.660 C 209.598 154.972,210.455 155.750,211.382 156.387 C 212.308 157.025,213.700 158.144,214.474 158.873 C 216.697 160.969,222.879 166.022,227.772 169.742 C 228.887 170.591,230.007 171.545,230.260 171.864 C 230.513 172.182,231.503 173.022,232.460 173.729 C 233.417 174.437,234.898 175.642,235.750 176.408 C 240.052 180.271,241.639 181.600,241.954 181.600 C 242.144 181.600,243.379 182.545,244.698 183.700 C 246.018 184.855,248.211 186.700,249.571 187.800 C 250.931 188.900,253.112 190.745,254.418 191.900 C 255.725 193.055,256.966 194.000,257.177 194.000 C 257.389 194.000,258.467 194.855,259.573 195.900 C 260.679 196.945,262.623 198.660,263.892 199.712 C 265.161 200.764,267.206 202.474,268.436 203.512 C 269.666 204.550,272.256 206.660,274.193 208.200 C 276.130 209.740,278.677 211.810,279.853 212.800 C 281.029 213.790,283.178 215.590,284.628 216.800 C 286.079 218.010,288.106 219.722,289.133 220.605 C 293.453 224.320,296.987 226.241,298.706 225.809 C 300.021 225.479,304.227 221.765,305.284 220.000 C 305.746 219.230,306.799 217.880,307.626 217.000 C 311.849 212.505,312.889 208.174,310.421 205.363 C 309.750 204.598,309.200 203.797,309.200 203.583 C 309.200 203.368,308.324 202.609,307.252 201.896 C 306.181 201.183,303.388 198.935,301.045 196.900 C 298.702 194.865,296.610 193.200,296.397 193.200 C 296.183 193.200,295.021 192.345,293.814 191.300 C 292.607 190.255,290.580 188.548,289.310 187.506 C 278.151 178.357,279.440 182.858,279.200 152.200 C 278.979 123.910,279.135 125.445,276.277 123.400 L 274.600 122.200 264.200 122.101 C 254.889 122.012,253.576 122.080,251.659 122.753 M274.253 125.233 C 274.994 125.691,275.637 126.096,275.682 126.133 C 275.727 126.170,275.862 137.992,275.982 152.405 C 276.193 177.723,276.227 178.652,277.000 179.872 C 277.841 181.200,283.779 186.800,284.346 186.800 C 284.527 186.800,285.739 187.692,287.038 188.783 C 288.337 189.873,290.345 191.538,291.501 192.483 C 294.654 195.061,297.654 197.569,300.262 199.808 C 301.548 200.912,303.530 202.512,304.667 203.364 C 308.862 206.509,309.875 209.904,307.493 212.837 C 306.884 213.587,305.644 215.190,304.738 216.400 C 302.013 220.038,299.957 221.972,298.530 222.240 C 296.171 222.682,295.752 222.429,286.063 214.704 C 282.256 211.668,275.505 205.994,272.256 203.100 C 271.083 202.055,269.949 201.200,269.736 201.200 C 269.524 201.200,268.821 200.639,268.175 199.954 C 267.529 199.268,266.100 198.022,265.000 197.185 C 263.900 196.348,262.521 195.244,261.935 194.732 C 261.349 194.219,259.198 192.450,257.155 190.800 C 255.112 189.150,251.691 186.270,249.552 184.400 C 247.414 182.530,245.002 180.550,244.192 180.000 C 243.382 179.450,241.760 178.190,240.587 177.200 C 239.414 176.210,237.767 174.821,236.927 174.114 C 236.087 173.407,234.545 172.184,233.500 171.396 C 232.455 170.608,231.600 169.796,231.600 169.592 C 231.600 169.388,231.065 168.944,230.410 168.605 C 229.756 168.267,228.416 167.227,227.432 166.295 C 226.448 165.363,224.072 163.340,222.151 161.800 C 220.230 160.260,217.784 158.235,216.716 157.300 C 215.647 156.365,214.644 155.600,214.486 155.600 C 214.329 155.600,213.453 154.918,212.541 154.084 C 211.630 153.251,209.920 151.903,208.742 151.090 C 207.564 150.277,206.165 149.297,205.633 148.912 C 204.330 147.971,200.505 147.960,199.172 148.895 C 196.860 150.515,193.440 153.172,190.797 155.400 C 184.528 160.685,183.339 161.657,181.849 162.707 C 180.997 163.308,179.377 164.624,178.249 165.632 C 177.122 166.640,175.821 167.720,175.358 168.032 C 174.894 168.344,173.580 169.410,172.437 170.400 C 168.981 173.393,165.770 176.098,163.322 178.079 C 162.045 179.112,159.560 181.140,157.800 182.585 C 156.040 184.030,153.559 186.064,152.287 187.106 C 149.596 189.308,145.737 192.560,143.273 194.700 C 141.179 196.519,138.341 198.775,136.250 200.283 C 135.397 200.897,133.777 202.253,132.650 203.296 C 131.522 204.339,130.457 205.194,130.283 205.196 C 130.108 205.198,129.118 205.979,128.083 206.931 C 127.047 207.883,125.802 208.931,125.315 209.258 C 124.523 209.792,121.130 212.730,119.000 214.727 C 118.560 215.139,117.059 216.360,115.664 217.438 C 107.591 223.683,106.446 223.787,102.118 218.664 C 97.007 212.615,96.372 211.762,96.014 210.466 C 95.453 208.435,98.667 203.200,100.475 203.200 C 100.649 203.200,101.765 202.345,102.955 201.300 C 104.144 200.255,106.351 198.362,107.859 197.093 C 109.366 195.824,111.550 193.980,112.711 192.995 C 113.873 192.010,115.313 190.892,115.911 190.511 C 116.510 190.131,117.143 189.591,117.319 189.312 C 117.494 189.033,118.754 188.063,120.119 187.156 C 121.483 186.250,123.320 184.819,124.200 183.976 C 125.080 183.134,126.880 181.528,128.200 180.409 C 129.520 179.289,131.436 177.645,132.457 176.754 C 133.479 175.864,134.739 174.848,135.257 174.498 C 135.776 174.147,136.934 173.217,137.831 172.430 C 138.728 171.644,139.984 170.640,140.622 170.200 C 141.259 169.760,142.145 169.023,142.590 168.563 C 143.036 168.102,144.512 166.970,145.872 166.046 C 147.232 165.123,148.402 164.240,148.472 164.084 C 148.603 163.793,151.636 161.146,156.600 156.991 C 158.140 155.701,159.490 154.537,159.600 154.404 C 159.710 154.271,160.343 153.783,161.006 153.320 C 161.669 152.858,163.019 151.741,164.006 150.840 C 164.992 149.938,165.924 149.200,166.077 149.200 C 166.230 149.200,167.521 148.210,168.948 147.000 C 170.374 145.790,171.673 144.800,171.834 144.800 C 172.122 144.800,175.193 142.073,178.849 138.571 C 179.866 137.597,180.873 136.800,181.087 136.800 C 181.302 136.800,182.110 136.215,182.883 135.500 C 184.204 134.279,189.054 130.506,193.269 127.421 C 198.142 123.854,208.227 123.804,211.147 127.334 C 211.448 127.697,212.642 128.537,213.800 129.200 C 214.958 129.863,216.152 130.701,216.453 131.063 C 216.753 131.426,217.989 132.451,219.200 133.342 C 220.410 134.234,221.728 135.376,222.129 135.882 C 222.530 136.387,223.070 136.800,223.329 136.800 C 223.588 136.801,224.725 137.656,225.855 138.700 C 228.058 140.736,230.487 142.770,237.323 148.302 C 243.976 153.686,244.437 154.000,245.665 154.000 C 246.413 154.000,247.332 153.524,248.306 152.631 L 249.800 151.263 250.000 139.008 L 250.200 126.753 251.200 125.977 C 253.562 124.144,271.552 123.563,274.253 125.233 M199.943 165.713 C 199.362 165.984,198.392 166.699,197.788 167.302 C 197.185 167.906,196.534 168.400,196.342 168.400 C 196.150 168.400,194.927 169.345,193.625 170.500 C 192.322 171.655,189.874 173.680,188.185 175.000 C 184.947 177.530,182.764 179.327,178.978 182.581 C 177.711 183.670,176.052 184.983,175.294 185.498 C 174.535 186.013,173.331 187.012,172.619 187.717 C 171.139 189.183,168.272 191.644,165.998 193.400 C 165.144 194.060,162.680 196.049,160.523 197.821 C 158.365 199.592,155.745 201.626,154.700 202.340 C 153.655 203.054,152.800 203.801,152.800 204.000 C 152.800 204.199,151.945 204.948,150.900 205.665 C 149.855 206.381,148.444 207.515,147.763 208.184 C 146.515 209.411,145.166 210.534,138.374 216.000 C 136.324 217.650,133.350 220.268,131.765 221.818 L 128.884 224.635 128.617 227.618 C 128.470 229.258,128.406 243.290,128.475 258.800 L 128.600 287.000 129.662 288.800 C 132.291 293.256,132.680 293.312,159.600 293.123 C 182.049 292.965,180.779 293.179,183.400 289.112 L 185.000 286.629 185.216 267.814 C 185.451 247.310,185.459 247.242,187.763 245.703 C 189.815 244.334,192.732 243.998,202.320 244.029 C 215.875 244.073,216.850 244.331,218.887 248.418 L 219.974 250.600 219.987 268.211 L 220.000 285.823 221.393 288.729 C 223.578 293.289,221.776 293.000,248.013 293.000 C 273.079 293.000,272.473 293.070,274.636 289.949 C 276.318 287.521,276.364 286.634,276.383 256.555 C 276.403 223.021,276.592 224.900,272.817 221.162 C 271.283 219.643,269.869 218.400,269.676 218.400 C 269.483 218.400,268.331 217.545,267.118 216.500 C 265.904 215.455,263.320 213.340,261.377 211.800 C 259.433 210.260,257.205 208.390,256.426 207.645 C 255.647 206.900,254.333 205.863,253.505 205.340 C 252.677 204.818,252.000 204.213,252.000 203.997 C 252.000 203.782,251.235 203.057,250.300 202.388 C 249.365 201.719,247.790 200.449,246.800 199.568 C 245.810 198.686,243.650 196.896,242.000 195.591 C 238.606 192.906,235.338 190.239,232.207 187.600 C 231.032 186.610,228.930 184.855,227.535 183.700 C 226.141 182.545,223.236 180.115,221.079 178.300 C 218.923 176.485,215.931 174.100,214.432 173.000 C 212.932 171.900,210.961 170.325,210.051 169.500 C 209.142 168.675,208.224 168.000,208.013 168.000 C 207.801 168.000,206.982 167.433,206.192 166.739 C 204.566 165.311,201.787 164.855,199.943 165.713 M205.385 169.410 C 206.600 169.966,208.263 171.091,209.080 171.910 C 209.898 172.730,211.236 173.850,212.053 174.400 C 212.871 174.950,215.308 176.945,217.470 178.834 C 219.631 180.722,222.165 182.749,223.100 183.339 C 224.035 183.928,224.800 184.580,224.800 184.788 C 224.800 184.996,225.565 185.615,226.500 186.163 C 227.435 186.711,228.912 187.889,229.781 188.780 C 230.651 189.671,231.500 190.400,231.668 190.400 C 231.836 190.400,232.647 191.075,233.470 191.900 C 234.292 192.725,235.806 194.030,236.832 194.800 C 237.859 195.570,241.286 198.367,244.449 201.015 C 247.612 203.664,251.325 206.705,252.700 207.774 C 254.075 208.843,255.200 209.867,255.200 210.049 C 255.200 210.231,255.728 210.652,256.372 210.986 C 257.017 211.319,258.363 212.359,259.362 213.296 C 261.115 214.939,263.052 216.568,268.235 220.754 C 269.575 221.836,271.285 223.497,272.035 224.444 L 273.400 226.167 273.510 255.758 L 273.620 285.349 272.511 287.540 C 270.527 291.461,272.092 291.236,247.800 291.107 C 224.911 290.985,225.865 291.076,224.400 288.891 L 223.400 287.400 223.200 268.174 L 223.000 248.947 221.448 246.694 C 218.204 241.986,217.570 241.850,200.000 242.087 C 181.622 242.335,182.102 241.645,181.865 268.200 C 181.701 286.673,181.617 287.473,179.608 289.721 L 178.466 291.000 156.862 291.000 C 132.265 291.000,133.624 291.191,132.546 287.587 C 131.824 285.171,131.745 227.335,132.462 225.428 C 132.716 224.753,134.261 223.030,135.896 221.600 C 137.531 220.170,139.676 218.233,140.662 217.296 C 141.648 216.359,142.974 215.324,143.608 214.996 C 144.242 214.668,144.910 214.133,145.093 213.806 C 145.276 213.479,146.444 212.444,147.689 211.506 C 152.814 207.643,162.773 199.468,166.214 196.300 C 167.349 195.255,168.433 194.400,168.624 194.400 C 168.814 194.400,169.697 193.690,170.585 192.823 C 171.473 191.956,172.857 190.741,173.659 190.123 C 174.462 189.505,176.179 188.188,177.475 187.195 C 178.770 186.202,180.364 184.884,181.015 184.265 C 181.667 183.647,182.957 182.611,183.882 181.964 C 184.807 181.316,185.797 180.467,186.082 180.077 C 186.367 179.686,187.230 178.933,188.000 178.402 C 188.770 177.872,190.195 176.664,191.166 175.719 C 192.137 174.773,193.137 174.000,193.387 174.000 C 193.638 174.000,194.463 173.358,195.222 172.574 C 196.822 170.918,198.707 169.683,200.753 168.952 C 202.728 168.247,202.872 168.261,205.385 169.410 " stroke="none" fill="#cdb4b2" fill-rule="evenodd"></path><path id="path3" d="M197.600 14.235 C 197.050 14.298,193.540 14.557,189.800 14.810 C 186.060 15.063,181.020 15.599,178.600 16.001 C 176.180 16.404,172.940 16.845,171.400 16.982 C 165.994 17.462,162.560 18.092,158.200 19.402 C 155.780 20.129,152.273 21.032,150.406 21.408 C 144.870 22.522,129.471 28.380,119.600 33.125 C 100.141 42.479,79.932 57.290,65.941 72.452 C 64.039 74.513,62.059 76.660,61.541 77.222 C 59.791 79.122,56.646 82.842,56.044 83.724 C 55.715 84.206,55.345 84.690,55.221 84.800 C 54.580 85.370,47.847 94.685,45.781 97.860 C 37.175 111.086,30.004 125.507,25.919 137.800 C 25.481 139.120,24.529 141.820,23.805 143.800 C 22.619 147.042,22.101 148.994,20.884 154.800 C 20.676 155.790,20.035 158.185,19.460 160.123 C 17.988 165.074,16.936 173.760,15.550 192.400 C 14.546 205.904,16.723 232.444,19.589 241.651 C 20.231 243.713,21.025 246.696,21.353 248.280 C 21.992 251.371,24.788 259.016,28.773 268.569 C 31.612 275.374,41.737 294.270,46.580 301.800 C 47.287 302.900,48.475 304.790,49.219 306.000 C 49.963 307.210,52.263 310.810,54.330 314.000 C 56.397 317.190,58.491 320.430,58.983 321.200 C 64.060 329.146,70.339 338.572,75.505 346.000 C 81.104 354.052,87.485 363.310,90.252 367.400 C 91.443 369.160,93.435 372.040,94.678 373.800 C 97.691 378.067,99.302 380.384,102.366 384.855 C 103.777 386.915,107.652 392.470,110.976 397.200 C 114.301 401.930,117.333 406.250,117.714 406.800 C 120.614 410.986,122.343 413.457,124.434 416.400 C 125.763 418.270,127.841 421.240,129.051 423.000 C 130.262 424.760,132.017 427.280,132.951 428.600 C 133.884 429.920,135.709 432.530,137.005 434.400 C 138.301 436.270,140.056 438.790,140.903 440.000 C 144.398 444.989,150.294 453.424,151.628 455.344 C 155.045 460.264,162.589 471.086,163.240 472.000 C 164.813 474.211,171.637 483.958,173.264 486.317 C 177.407 492.324,180.937 496.938,182.911 498.928 C 190.661 506.740,202.591 508.389,212.256 502.984 C 217.599 499.996,220.717 496.285,233.254 478.000 C 235.330 474.971,241.589 465.994,243.990 462.600 C 245.080 461.060,247.028 458.270,248.320 456.400 C 249.612 454.530,251.193 452.256,251.834 451.347 C 254.945 446.935,262.927 435.506,265.600 431.634 C 267.250 429.245,270.040 425.247,271.800 422.749 C 273.560 420.252,275.338 417.666,275.750 417.004 C 276.163 416.342,276.624 415.710,276.775 415.600 C 276.926 415.490,278.208 413.725,279.625 411.678 C 289.626 397.223,297.194 386.359,301.665 380.037 C 302.690 378.587,305.252 374.880,307.357 371.800 C 309.462 368.720,312.186 364.760,313.410 363.000 C 314.634 361.240,316.441 358.630,317.426 357.200 C 318.410 355.770,321.274 351.630,323.790 348.000 C 331.555 336.796,336.624 329.149,344.604 316.600 C 346.983 312.860,349.590 308.810,350.399 307.600 C 352.885 303.881,355.794 299.162,357.798 295.600 C 358.850 293.730,360.382 291.030,361.203 289.600 C 363.502 285.593,369.885 273.120,370.750 270.944 C 371.174 269.875,372.144 267.650,372.904 266.000 C 373.665 264.350,374.611 262.010,375.008 260.800 C 375.405 259.590,376.253 257.340,376.893 255.800 C 377.534 254.260,378.382 251.560,378.779 249.800 C 379.176 248.040,380.071 244.800,380.767 242.600 C 382.142 238.259,382.288 237.423,383.808 225.200 C 386.188 206.058,386.137 192.676,383.619 176.000 C 383.171 173.030,382.803 169.855,382.802 168.944 C 382.799 166.527,381.770 161.493,380.440 157.387 C 379.800 155.414,379.010 152.253,378.684 150.363 C 378.358 148.473,377.455 145.323,376.677 143.363 C 375.899 141.403,375.050 138.990,374.790 138.000 C 373.087 131.519,364.876 114.185,358.591 103.803 C 343.616 79.064,321.610 56.740,298.200 42.539 C 296.220 41.338,294.247 40.140,293.815 39.878 C 290.715 37.992,289.087 37.122,282.650 33.911 C 271.750 28.474,255.681 22.339,249.400 21.215 C 247.860 20.940,244.620 20.108,242.200 19.367 C 237.513 17.931,234.651 17.405,229.200 16.979 C 227.330 16.832,224.543 16.456,223.007 16.142 C 221.471 15.828,215.891 15.220,210.607 14.789 C 201.426 14.041,199.865 13.975,197.600 14.235 M213.715 24.026 C 241.961 25.773,275.290 37.210,298.200 53.019 C 302.405 55.920,311.887 63.040,313.800 64.732 C 321.474 71.521,324.322 74.267,329.155 79.535 C 331.710 82.320,334.220 85.049,334.733 85.599 C 336.238 87.213,346.457 100.980,348.172 103.704 C 352.334 110.312,355.258 115.451,357.558 120.200 C 358.944 123.060,360.526 126.264,361.075 127.320 C 362.137 129.365,364.312 135.008,366.811 142.200 C 379.854 179.736,379.665 226.043,366.336 258.600 C 363.488 265.557,362.109 268.596,358.804 275.200 C 352.926 286.950,346.184 298.223,333.807 317.000 C 331.776 320.080,329.800 323.213,329.415 323.962 C 329.030 324.712,328.419 325.643,328.057 326.033 C 327.696 326.422,326.774 327.789,326.009 329.070 C 325.243 330.352,323.983 332.232,323.209 333.250 C 322.434 334.267,321.488 335.617,321.106 336.250 C 320.725 336.882,319.316 338.930,317.975 340.800 C 316.635 342.670,314.567 345.640,313.380 347.400 C 312.194 349.160,310.885 351.050,310.472 351.600 C 310.059 352.150,309.199 353.383,308.560 354.339 C 303.214 362.351,301.247 365.228,297.442 370.600 C 296.039 372.580,293.839 375.730,292.552 377.600 C 291.264 379.470,288.319 383.684,286.006 386.965 C 277.402 399.166,276.393 400.627,275.748 401.800 C 275.386 402.460,274.619 403.546,274.045 404.212 C 273.470 404.879,271.409 407.759,269.464 410.612 C 267.520 413.466,264.962 417.150,263.780 418.800 C 262.598 420.450,261.087 422.610,260.423 423.600 C 258.866 425.919,255.836 430.201,253.800 432.959 C 252.920 434.152,251.705 435.909,251.099 436.864 C 250.494 437.819,248.919 440.130,247.599 442.000 C 246.279 443.870,244.513 446.390,243.675 447.600 C 239.117 454.180,231.126 465.655,229.608 467.800 C 229.141 468.460,227.480 470.800,225.916 473.000 C 224.352 475.200,221.706 478.988,220.036 481.419 C 211.357 494.050,207.697 496.949,200.400 496.975 C 193.204 497.001,188.776 493.702,181.909 483.200 C 181.118 481.990,178.305 477.940,175.658 474.200 C 171.277 468.010,169.444 465.394,162.288 455.119 C 159.925 451.727,159.629 451.305,153.753 443.000 C 151.885 440.360,149.559 437.030,148.583 435.600 C 145.334 430.838,141.053 424.746,138.309 420.978 C 137.269 419.550,136.206 417.981,135.947 417.491 C 135.688 417.001,134.874 415.861,134.138 414.959 C 133.402 414.056,132.800 413.191,132.800 413.036 C 132.800 412.881,131.980 411.640,130.978 410.277 C 129.976 408.915,128.581 406.950,127.878 405.912 C 126.402 403.731,122.839 398.645,119.954 394.600 C 117.885 391.698,111.440 382.420,105.229 373.400 C 103.260 370.540,101.178 367.570,100.602 366.800 C 100.027 366.030,98.188 363.330,96.517 360.800 C 94.845 358.270,93.010 355.625,92.439 354.922 C 91.867 354.220,90.456 352.240,89.302 350.522 C 88.149 348.805,86.575 346.500,85.806 345.400 C 82.157 340.183,79.701 336.564,78.655 334.863 C 78.026 333.838,77.381 332.910,77.223 332.800 C 76.962 332.619,75.055 329.739,68.484 319.600 C 67.272 317.730,65.705 315.300,65.002 314.200 C 64.300 313.100,62.734 310.670,61.522 308.800 C 52.139 294.311,44.437 281.140,41.524 274.600 C 41.034 273.500,40.066 271.520,39.373 270.200 C 35.891 263.571,30.144 248.090,28.458 240.800 C 22.732 216.037,22.716 188.794,28.410 160.922 C 29.389 156.130,33.283 142.823,34.556 139.919 C 35.067 138.753,35.804 136.810,36.194 135.600 C 42.796 115.107,62.417 86.731,82.450 68.706 C 88.207 63.526,89.313 62.610,92.904 60.048 C 94.967 58.576,97.453 56.727,98.428 55.939 C 105.045 50.587,123.850 40.198,133.600 36.507 C 134.810 36.049,137.420 35.043,139.400 34.271 C 160.398 26.084,187.215 22.387,213.715 24.026 " stroke="none" fill="#8a504b" fill-rule="evenodd"></path><path id="path4" d="M190.200 11.870 C 185.831 12.047,179.118 12.766,174.247 13.578 C 171.801 13.986,167.730 14.634,165.200 15.018 C 159.625 15.864,143.315 20.237,137.800 22.365 C 135.600 23.214,133.080 24.134,132.200 24.409 C 121.995 27.608,101.019 39.203,88.856 48.370 C 85.476 50.916,82.236 53.356,81.656 53.790 C 70.746 61.956,52.935 81.595,43.477 95.887 C 41.558 98.787,40.814 100.019,36.525 107.400 C 32.385 114.524,26.838 126.504,24.209 134.000 C 23.476 136.090,22.428 138.970,21.880 140.400 C 20.961 142.796,18.622 151.259,16.738 159.000 C 16.310 160.760,15.433 165.800,14.790 170.200 C 8.791 211.223,13.787 246.078,30.327 278.600 C 33.299 284.446,35.496 288.663,36.474 290.400 C 39.080 295.031,41.082 298.446,42.807 301.200 C 47.861 309.268,50.371 313.243,52.200 316.072 C 53.300 317.773,55.370 320.999,56.800 323.240 C 59.889 328.082,69.198 342.081,71.403 345.200 C 72.258 346.410,73.884 348.750,75.016 350.400 C 77.053 353.370,79.182 356.459,82.528 361.300 C 83.478 362.675,85.921 366.230,87.956 369.200 C 89.992 372.170,92.737 376.130,94.058 378.000 C 95.379 379.870,96.941 382.121,97.530 383.003 C 98.118 383.885,99.427 385.775,100.438 387.203 C 103.298 391.245,121.960 417.889,123.987 420.826 C 128.412 427.234,130.905 430.821,133.007 433.800 C 134.249 435.560,135.690 437.654,136.208 438.453 C 136.727 439.253,138.586 441.891,140.340 444.317 C 142.094 446.743,144.169 449.689,144.951 450.864 C 145.733 452.039,147.270 454.260,148.366 455.800 C 149.462 457.340,151.167 459.770,152.154 461.200 C 154.682 464.863,156.915 468.065,164.424 478.804 C 168.041 483.976,171.270 488.599,171.600 489.079 C 182.291 504.609,188.413 508.812,200.320 508.794 C 211.059 508.778,218.031 504.611,225.940 493.480 C 229.560 488.385,232.723 483.876,239.603 474.005 C 244.886 466.423,244.963 466.313,247.502 462.698 C 248.546 461.212,250.433 458.512,251.695 456.698 C 252.958 454.884,254.883 452.140,255.974 450.600 C 257.066 449.060,258.949 446.360,260.161 444.600 C 261.372 442.840,263.191 440.230,264.202 438.800 C 265.213 437.370,266.838 435.030,267.813 433.600 C 268.787 432.170,270.353 429.908,271.292 428.574 C 272.231 427.240,273.979 424.720,275.176 422.974 C 276.373 421.228,277.589 419.561,277.879 419.269 C 278.168 418.977,278.613 418.347,278.868 417.869 C 279.122 417.391,280.786 414.962,282.565 412.470 C 284.344 409.979,286.063 407.549,286.385 407.070 C 286.707 406.592,288.815 403.557,291.070 400.326 C 293.326 397.095,296.451 392.595,298.014 390.326 C 299.578 388.057,301.578 385.210,302.458 384.000 C 303.339 382.790,304.536 381.080,305.118 380.200 C 305.700 379.320,306.947 377.579,307.888 376.330 C 308.830 375.082,309.600 373.934,309.600 373.779 C 309.600 373.625,310.460 372.306,311.511 370.849 C 312.563 369.392,313.977 367.390,314.655 366.400 C 315.333 365.410,316.687 363.430,317.664 362.000 C 318.641 360.570,320.140 358.410,320.994 357.200 C 321.849 355.990,323.651 353.380,325.000 351.400 C 326.348 349.420,328.401 346.450,329.561 344.800 C 332.187 341.065,339.587 329.896,344.005 323.000 C 350.841 312.329,351.735 310.940,353.402 308.400 C 355.627 305.008,359.600 298.468,359.600 298.196 C 359.600 298.080,360.045 297.279,360.589 296.417 C 362.065 294.079,365.066 288.711,367.417 284.200 C 368.564 282.000,369.881 279.480,370.344 278.600 C 385.440 249.881,391.946 209.687,386.792 177.000 C 386.375 174.360,385.762 170.220,385.430 167.800 C 381.774 141.216,368.803 111.202,350.164 86.200 C 341.720 74.873,328.351 61.033,318.200 53.110 C 309.157 46.051,301.053 40.600,291.600 35.217 C 287.310 32.773,270.728 24.987,268.893 24.554 C 268.292 24.412,265.820 23.523,263.400 22.577 C 259.454 21.036,254.249 19.505,242.910 16.551 C 239.632 15.697,236.321 15.117,222.564 12.982 C 215.568 11.897,201.489 11.413,190.200 11.870 M210.607 14.789 C 215.891 15.220,221.471 15.828,223.007 16.142 C 224.543 16.456,227.330 16.832,229.200 16.979 C 234.651 17.405,237.513 17.931,242.200 19.367 C 244.620 20.108,247.860 20.940,249.400 21.215 C 255.681 22.339,271.750 28.474,282.650 33.911 C 289.087 37.122,290.715 37.992,293.815 39.878 C 294.247 40.140,296.220 41.338,298.200 42.539 C 321.610 56.740,343.616 79.064,358.591 103.803 C 364.876 114.185,373.087 131.519,374.790 138.000 C 375.050 138.990,375.899 141.403,376.677 143.363 C 377.455 145.323,378.358 148.473,378.684 150.363 C 379.010 152.253,379.800 155.414,380.440 157.387 C 381.770 161.493,382.799 166.527,382.802 168.944 C 382.803 169.855,383.171 173.030,383.619 176.000 C 386.137 192.676,386.188 206.058,383.808 225.200 C 382.288 237.423,382.142 238.259,380.767 242.600 C 380.071 244.800,379.176 248.040,378.779 249.800 C 378.382 251.560,377.534 254.260,376.893 255.800 C 376.253 257.340,375.405 259.590,375.008 260.800 C 374.611 262.010,373.665 264.350,372.904 266.000 C 372.144 267.650,371.174 269.875,370.750 270.944 C 369.885 273.120,363.502 285.593,361.203 289.600 C 360.382 291.030,358.850 293.730,357.798 295.600 C 355.794 299.162,352.885 303.881,350.399 307.600 C 349.590 308.810,346.983 312.860,344.604 316.600 C 336.624 329.149,331.555 336.796,323.790 348.000 C 321.274 351.630,318.410 355.770,317.426 357.200 C 316.441 358.630,314.634 361.240,313.410 363.000 C 312.186 364.760,309.462 368.720,307.357 371.800 C 305.252 374.880,302.690 378.587,301.665 380.037 C 297.194 386.359,289.626 397.223,279.625 411.678 C 278.208 413.725,276.926 415.490,276.775 415.600 C 276.624 415.710,276.163 416.342,275.750 417.004 C 275.338 417.666,273.560 420.252,271.800 422.749 C 270.040 425.247,267.250 429.245,265.600 431.634 C 262.927 435.506,254.945 446.935,251.834 451.347 C 251.193 452.256,249.612 454.530,248.320 456.400 C 247.028 458.270,245.080 461.060,243.990 462.600 C 241.589 465.994,235.330 474.971,233.254 478.000 C 220.717 496.285,217.599 499.996,212.256 502.984 C 202.591 508.389,190.661 506.740,182.911 498.928 C 180.937 496.938,177.407 492.324,173.264 486.317 C 171.637 483.958,164.813 474.211,163.240 472.000 C 162.589 471.086,155.045 460.264,151.628 455.344 C 150.294 453.424,144.398 444.989,140.903 440.000 C 140.056 438.790,138.301 436.270,137.005 434.400 C 135.709 432.530,133.884 429.920,132.951 428.600 C 132.017 427.280,130.262 424.760,129.051 423.000 C 127.841 421.240,125.763 418.270,124.434 416.400 C 122.343 413.457,120.614 410.986,117.714 406.800 C 117.333 406.250,114.301 401.930,110.976 397.200 C 107.652 392.470,103.777 386.915,102.366 384.855 C 99.302 380.384,97.691 378.067,94.678 373.800 C 93.435 372.040,91.443 369.160,90.252 367.400 C 87.485 363.310,81.104 354.052,75.505 346.000 C 70.339 338.572,64.060 329.146,58.983 321.200 C 58.491 320.430,56.397 317.190,54.330 314.000 C 52.263 310.810,49.963 307.210,49.219 306.000 C 48.475 304.790,47.287 302.900,46.580 301.800 C 41.737 294.270,31.612 275.374,28.773 268.569 C 24.788 259.016,21.992 251.371,21.353 248.280 C 21.025 246.696,20.231 243.713,19.589 241.651 C 16.723 232.444,14.546 205.904,15.550 192.400 C 16.936 173.760,17.988 165.074,19.460 160.123 C 20.035 158.185,20.676 155.790,20.884 154.800 C 22.101 148.994,22.619 147.042,23.805 143.800 C 24.529 141.820,25.481 139.120,25.919 137.800 C 30.004 125.507,37.175 111.086,45.781 97.860 C 47.847 94.685,54.580 85.370,55.221 84.800 C 55.345 84.690,55.715 84.206,56.044 83.724 C 56.646 82.842,59.791 79.122,61.541 77.222 C 62.059 76.660,64.039 74.513,65.941 72.452 C 77.243 60.204,92.352 48.381,109.600 38.287 C 119.682 32.387,142.257 23.049,150.406 21.408 C 152.273 21.032,155.780 20.129,158.200 19.402 C 162.560 18.092,165.994 17.462,171.400 16.982 C 172.940 16.845,176.180 16.404,178.600 16.001 C 181.020 15.599,186.060 15.063,189.800 14.810 C 193.540 14.557,197.050 14.298,197.600 14.235 C 199.865 13.975,201.426 14.041,210.607 14.789 M250.591 122.361 C 246.981 124.040,247.020 123.888,246.897 136.800 C 246.748 152.495,246.996 152.211,239.227 145.575 C 235.756 142.610,233.307 140.590,229.803 137.800 C 227.868 136.260,225.319 134.145,224.138 133.100 C 222.958 132.055,221.850 131.200,221.676 131.200 C 221.503 131.200,220.632 130.499,219.741 129.643 C 218.850 128.787,217.418 127.631,216.560 127.075 C 215.702 126.518,214.460 125.580,213.800 124.990 C 209.102 120.788,194.976 120.739,190.738 124.911 C 190.442 125.202,189.178 126.192,187.929 127.111 C 186.680 128.030,185.537 128.978,185.389 129.218 C 185.241 129.457,184.410 130.167,183.542 130.796 C 182.674 131.425,181.117 132.664,180.082 133.551 C 174.356 138.456,167.346 144.111,166.358 144.622 C 165.734 144.944,165.028 145.575,164.788 146.023 C 164.548 146.470,163.460 147.386,162.370 148.057 C 161.279 148.728,160.207 149.614,159.986 150.026 C 159.766 150.438,158.779 151.248,157.793 151.825 C 156.807 152.403,156.000 153.012,156.000 153.177 C 156.000 153.444,151.786 156.955,147.662 160.124 C 146.858 160.742,145.570 161.847,144.800 162.580 C 144.030 163.312,142.826 164.201,142.124 164.554 C 141.423 164.907,140.565 165.601,140.218 166.098 C 139.871 166.594,138.883 167.540,138.023 168.200 C 137.162 168.860,135.164 170.480,133.583 171.800 C 132.002 173.120,129.672 175.010,128.406 176.000 C 125.671 178.139,123.077 180.305,120.141 182.900 C 118.959 183.945,117.832 184.800,117.636 184.800 C 117.301 184.800,113.490 188.054,110.400 190.977 C 109.630 191.706,108.460 192.626,107.800 193.022 C 107.140 193.418,105.880 194.420,105.000 195.249 C 104.120 196.078,102.830 197.171,102.134 197.678 C 98.237 200.517,94.800 203.273,94.800 203.561 C 94.800 203.742,94.272 204.554,93.627 205.366 C 91.291 208.305,92.294 212.352,96.544 217.137 C 97.565 218.286,98.400 219.401,98.400 219.615 C 98.400 220.435,104.760 226.400,105.677 226.441 C 108.091 226.547,109.483 226.290,110.400 225.568 C 110.950 225.136,112.300 224.167,113.400 223.416 C 114.500 222.665,116.010 221.409,116.756 220.625 C 117.502 219.841,118.275 219.200,118.473 219.200 C 118.672 219.200,119.701 218.389,120.760 217.398 C 121.820 216.408,123.243 215.193,123.924 214.698 C 125.926 213.245,137.361 203.860,141.589 200.200 C 145.639 196.694,147.752 194.942,149.802 193.391 C 150.901 192.559,152.430 191.369,153.200 190.746 C 153.970 190.124,155.663 188.756,156.962 187.707 C 158.262 186.658,159.991 185.145,160.805 184.344 C 161.618 183.543,163.017 182.403,163.912 181.811 C 164.807 181.218,165.623 180.517,165.724 180.253 C 165.826 179.988,166.694 179.245,167.654 178.600 C 168.615 177.956,170.317 176.613,171.439 175.615 C 172.560 174.617,175.962 171.820,178.999 169.400 C 182.036 166.980,185.439 164.145,186.561 163.100 C 187.682 162.056,188.735 161.201,188.900 161.200 C 189.065 161.200,189.602 160.795,190.093 160.300 C 198.750 151.580,203.414 150.480,209.585 155.703 C 210.688 156.636,212.690 158.300,214.034 159.400 C 215.378 160.500,216.956 161.845,217.539 162.389 C 219.720 164.423,226.417 169.848,231.379 173.600 C 233.218 174.990,237.093 178.347,238.623 179.875 C 239.325 180.577,240.431 181.477,241.081 181.875 C 241.731 182.274,243.204 183.410,244.355 184.400 C 248.190 187.697,250.723 189.778,253.849 192.200 C 255.553 193.520,257.651 195.271,258.511 196.091 C 259.372 196.911,260.685 197.958,261.431 198.419 C 262.176 198.880,263.136 199.748,263.564 200.350 C 263.992 200.951,264.986 201.789,265.771 202.213 C 266.557 202.636,267.200 203.113,267.200 203.273 C 267.200 203.555,273.061 208.402,276.723 211.147 C 277.711 211.888,279.026 213.013,279.646 213.647 C 280.266 214.281,280.921 214.800,281.102 214.800 C 281.282 214.800,282.389 215.700,283.561 216.800 C 284.732 217.900,285.829 218.800,285.997 218.800 C 286.166 218.800,287.022 219.497,287.899 220.349 C 294.283 226.544,298.750 228.134,301.366 225.142 C 302.045 224.365,303.105 223.403,303.723 223.004 C 304.341 222.605,305.177 221.630,305.580 220.839 C 305.984 220.048,306.721 219.040,307.218 218.600 C 308.704 217.285,312.753 210.859,313.031 209.376 C 313.300 207.943,312.964 207.177,311.200 205.200 C 310.709 204.650,310.021 203.770,309.671 203.244 C 309.321 202.718,308.487 201.959,307.817 201.556 C 307.148 201.154,305.880 200.182,305.000 199.396 C 299.471 194.455,297.977 193.200,297.625 193.200 C 297.408 193.200,296.121 192.210,294.765 191.000 C 293.409 189.790,292.144 188.800,291.954 188.800 C 291.764 188.800,290.641 187.945,289.460 186.900 C 288.278 185.855,285.941 183.836,284.268 182.412 C 280.137 178.900,280.441 181.204,280.307 152.400 C 280.173 123.491,280.398 125.338,276.697 122.800 L 274.656 121.400 263.828 121.320 L 253.000 121.240 250.591 122.361 M276.277 123.400 C 279.135 125.445,278.979 123.910,279.200 152.200 C 279.440 182.858,278.151 178.357,289.310 187.506 C 290.580 188.548,292.607 190.255,293.814 191.300 C 295.021 192.345,296.183 193.200,296.397 193.200 C 296.610 193.200,298.702 194.865,301.045 196.900 C 303.388 198.935,306.181 201.183,307.252 201.896 C 308.324 202.609,309.200 203.368,309.200 203.583 C 309.200 203.797,309.750 204.598,310.421 205.363 C 312.889 208.174,311.849 212.505,307.626 217.000 C 306.799 217.880,305.746 219.230,305.284 220.000 C 304.227 221.765,300.021 225.479,298.706 225.809 C 296.987 226.241,293.453 224.320,289.133 220.605 C 288.106 219.722,286.079 218.010,284.628 216.800 C 283.178 215.590,281.029 213.790,279.853 212.800 C 278.677 211.810,276.130 209.740,274.193 208.200 C 272.256 206.660,269.666 204.550,268.436 203.512 C 267.206 202.474,265.161 200.764,263.892 199.712 C 262.623 198.660,260.679 196.945,259.573 195.900 C 258.467 194.855,257.389 194.000,257.177 194.000 C 256.966 194.000,255.725 193.055,254.418 191.900 C 253.112 190.745,250.931 188.900,249.571 187.800 C 248.211 186.700,246.018 184.855,244.698 183.700 C 243.379 182.545,242.144 181.600,241.954 181.600 C 241.639 181.600,240.052 180.271,235.750 176.408 C 234.898 175.642,233.417 174.437,232.460 173.729 C 231.503 173.022,230.513 172.182,230.260 171.864 C 230.007 171.545,228.887 170.591,227.772 169.742 C 222.879 166.022,216.697 160.969,214.474 158.873 C 213.700 158.144,212.308 157.025,211.382 156.387 C 210.455 155.750,209.598 154.972,209.478 154.660 C 209.131 153.755,204.433 151.600,202.807 151.600 C 200.421 151.600,197.815 152.725,195.332 154.828 C 194.049 155.914,191.868 157.747,190.485 158.901 C 189.101 160.056,187.121 161.757,186.085 162.683 C 185.048 163.609,183.538 164.869,182.728 165.483 C 180.452 167.211,175.534 171.248,174.200 172.484 C 173.540 173.096,172.867 173.597,172.704 173.598 C 172.542 173.599,171.426 174.455,170.226 175.500 C 169.026 176.545,166.860 178.390,165.414 179.600 C 163.967 180.810,161.722 182.700,160.424 183.800 C 156.652 186.998,153.605 189.487,150.600 191.825 C 146.937 194.674,142.768 198.179,140.515 200.300 C 139.523 201.235,138.553 202.000,138.360 202.000 C 138.166 202.000,137.048 202.855,135.875 203.900 C 134.701 204.945,132.059 207.150,130.004 208.800 C 126.396 211.696,124.892 212.946,120.376 216.800 C 119.216 217.790,117.712 218.995,117.034 219.477 C 116.355 219.960,115.397 220.793,114.905 221.328 C 113.149 223.240,108.691 225.600,106.837 225.600 C 104.954 225.600,100.581 221.945,98.719 218.815 C 98.256 218.037,97.190 216.679,96.350 215.797 C 91.858 211.080,92.502 205.879,98.086 201.768 C 99.451 200.763,101.251 199.370,102.086 198.671 C 102.922 197.972,104.678 196.500,105.989 195.400 C 107.300 194.300,109.474 192.500,110.819 191.400 C 112.164 190.300,114.322 188.500,115.613 187.400 C 116.904 186.300,118.974 184.590,120.213 183.600 C 121.451 182.610,123.348 181.042,124.427 180.116 C 125.507 179.190,127.369 177.709,128.566 176.825 C 129.763 175.941,130.863 175.022,131.011 174.782 C 131.159 174.543,132.027 173.808,132.940 173.149 C 134.483 172.035,135.718 171.002,140.189 167.088 C 141.139 166.256,142.635 165.086,143.514 164.488 C 144.393 163.890,145.987 162.648,147.056 161.729 C 148.125 160.809,149.990 159.231,151.200 158.220 C 152.410 157.210,154.519 155.442,155.887 154.292 C 157.254 153.141,159.477 151.300,160.826 150.200 C 162.175 149.100,164.116 147.471,165.139 146.580 C 166.163 145.689,167.536 144.623,168.190 144.212 C 168.845 143.800,170.969 142.099,172.910 140.432 C 174.851 138.764,177.105 136.897,177.920 136.281 C 179.424 135.145,181.811 133.123,185.150 130.156 C 186.167 129.251,187.720 128.035,188.600 127.453 C 189.480 126.871,190.908 125.851,191.774 125.187 C 196.887 121.263,208.491 121.609,213.648 125.839 C 214.828 126.808,215.938 127.600,216.114 127.600 C 216.290 127.600,217.282 128.376,218.317 129.324 C 219.353 130.272,220.672 131.397,221.249 131.824 C 221.825 132.251,224.063 134.040,226.221 135.800 C 228.380 137.560,231.058 139.702,232.173 140.559 C 233.288 141.416,234.646 142.558,235.192 143.096 C 235.737 143.634,236.661 144.321,237.244 144.623 C 237.827 144.924,238.742 145.692,239.278 146.327 C 239.813 146.963,240.779 147.817,241.425 148.225 C 242.071 148.633,243.050 149.462,243.600 150.067 C 244.787 151.374,246.546 151.268,247.013 149.860 C 247.171 149.387,247.412 143.650,247.550 137.110 C 247.884 121.209,247.077 121.937,264.200 122.101 L 274.600 122.200 276.277 123.400 M200.506 164.774 C 199.794 164.952,198.488 165.750,197.605 166.548 C 196.721 167.347,195.839 168.000,195.644 168.000 C 195.450 168.000,194.236 168.990,192.946 170.200 C 191.656 171.410,190.482 172.400,190.337 172.400 C 190.107 172.400,186.204 175.506,183.200 178.081 C 180.850 180.094,176.252 183.883,174.940 184.886 C 174.159 185.483,172.749 186.653,171.806 187.486 C 168.665 190.260,165.894 192.594,165.042 193.182 C 164.579 193.502,162.580 195.132,160.600 196.804 C 158.620 198.476,156.370 200.283,155.600 200.821 C 154.180 201.811,150.774 204.674,148.615 206.692 C 147.963 207.302,146.759 208.270,145.939 208.843 C 145.119 209.417,143.942 210.346,143.324 210.907 C 142.706 211.469,140.490 213.331,138.400 215.047 C 133.571 219.010,129.140 223.098,128.514 224.169 C 128.144 224.801,128.027 232.456,128.024 256.200 L 128.019 287.400 129.109 289.387 C 131.495 293.734,131.244 293.699,158.800 293.529 C 182.943 293.381,181.291 293.648,184.191 289.418 L 185.800 287.069 186.000 267.760 L 186.200 248.451 187.381 247.219 C 189.221 245.300,190.512 245.145,203.524 245.278 C 220.417 245.451,218.924 243.231,219.200 268.600 L 219.400 287.000 220.802 289.358 C 223.420 293.763,220.981 293.400,247.929 293.400 L 271.400 293.400 273.244 292.316 C 274.672 291.476,275.283 290.779,275.953 289.220 L 276.819 287.208 276.709 255.586 L 276.600 223.964 273.322 220.882 C 269.375 217.171,267.003 215.134,264.674 213.456 C 262.863 212.152,260.671 210.345,256.963 207.100 C 255.769 206.055,254.654 205.200,254.486 205.200 C 254.318 205.200,253.241 204.345,252.093 203.300 C 247.454 199.078,246.028 197.848,245.331 197.469 C 244.929 197.251,243.843 196.347,242.919 195.460 C 241.994 194.574,240.900 193.657,240.488 193.424 C 239.696 192.976,235.736 189.816,232.188 186.800 C 231.023 185.810,228.867 184.010,227.396 182.800 C 225.925 181.590,223.686 179.700,222.419 178.600 C 217.318 174.171,215.892 172.984,215.260 172.645 C 214.897 172.450,213.610 171.445,212.400 170.413 C 211.190 169.381,209.660 168.203,209.000 167.796 C 208.340 167.389,207.260 166.563,206.600 165.960 C 205.264 164.741,202.669 164.236,200.506 164.774 M206.192 166.739 C 206.982 167.433,207.801 168.000,208.013 168.000 C 208.224 168.000,209.142 168.675,210.051 169.500 C 210.961 170.325,212.932 171.900,214.432 173.000 C 215.931 174.100,218.923 176.485,221.079 178.300 C 223.236 180.115,226.141 182.545,227.535 183.700 C 228.930 184.855,231.032 186.610,232.207 187.600 C 235.338 190.239,238.606 192.906,242.000 195.591 C 243.650 196.896,245.810 198.686,246.800 199.568 C 247.790 200.449,249.365 201.719,250.300 202.388 C 251.235 203.057,252.000 203.782,252.000 203.997 C 252.000 204.213,252.677 204.818,253.505 205.340 C 254.333 205.863,255.647 206.900,256.426 207.645 C 257.205 208.390,259.433 210.260,261.377 211.800 C 263.320 213.340,265.904 215.455,267.118 216.500 C 268.331 217.545,269.483 218.400,269.676 218.400 C 269.869 218.400,271.283 219.643,272.817 221.162 C 276.592 224.900,276.403 223.021,276.383 256.555 C 276.364 286.634,276.318 287.521,274.636 289.949 C 272.473 293.070,273.079 293.000,248.013 293.000 C 221.776 293.000,223.578 293.289,221.393 288.729 L 220.000 285.823 219.987 268.211 L 219.974 250.600 218.887 248.418 C 216.850 244.331,215.875 244.073,202.320 244.029 C 192.732 243.998,189.815 244.334,187.763 245.703 C 185.459 247.242,185.451 247.310,185.216 267.814 L 185.000 286.629 183.400 289.112 C 180.779 293.179,182.049 292.965,159.600 293.123 C 132.680 293.312,132.291 293.256,129.662 288.800 L 128.600 287.000 128.475 258.800 C 128.406 243.290,128.470 229.258,128.617 227.618 L 128.884 224.635 131.765 221.818 C 133.350 220.268,136.324 217.650,138.374 216.000 C 145.166 210.534,146.515 209.411,147.763 208.184 C 148.444 207.515,149.855 206.381,150.900 205.665 C 151.945 204.948,152.800 204.199,152.800 204.000 C 152.800 203.801,153.655 203.054,154.700 202.340 C 155.745 201.626,158.365 199.592,160.523 197.821 C 162.680 196.049,165.144 194.060,165.998 193.400 C 168.272 191.644,171.139 189.183,172.619 187.717 C 173.331 187.012,174.535 186.013,175.294 185.498 C 176.052 184.983,177.711 183.670,178.978 182.581 C 182.764 179.327,184.947 177.530,188.185 175.000 C 189.874 173.680,192.322 171.655,193.625 170.500 C 194.927 169.345,196.150 168.400,196.342 168.400 C 196.534 168.400,197.185 167.906,197.788 167.302 C 200.281 164.810,203.731 164.579,206.192 166.739 " stroke="none" fill="#b59593" fill-rule="evenodd"></path></g></svg>