<svg xmlns="http://www.w3.org/2000/svg" xmlns:xlink="http://www.w3.org/1999/xlink" width="500" zoomAndPan="magnify" viewBox="0 0 375 374.999991" height="500" preserveAspectRatio="xMidYMid meet" version="1.0"><defs><g/><clipPath id="0a1aae9939"><path d="M 1.84375 1.84375 L 373.15625 1.84375 L 373.15625 373.15625 L 1.84375 373.15625 Z M 1.84375 1.84375 " clip-rule="nonzero"/></clipPath><clipPath id="d2684e52fc"><path d="M 187.5 1.84375 C 84.964844 1.84375 1.84375 84.964844 1.84375 187.5 C 1.84375 290.035156 84.964844 373.15625 187.5 373.15625 C 290.035156 373.15625 373.15625 290.035156 373.15625 187.5 C 373.15625 84.964844 290.035156 1.84375 187.5 1.84375 " clip-rule="nonzero"/></clipPath></defs><g clip-path="url(#0a1aae9939)"><g clip-path="url(#d2684e52fc)"><path fill="#08adc6" d="M 1.84375 1.84375 L 373.15625 1.84375 L 373.15625 373.15625 L 1.84375 373.15625 Z M 1.84375 1.84375 " fill-opacity="1" fill-rule="nonzero"/></g></g><g fill="#004aad" fill-opacity="1"><g transform="translate(39.281252, 213.79998)"><g><path d="M 20.019531 0.195312 L 21.96875 0.195312 L 23.984375 -0.0664062 L 25.28125 -0.0664062 L 27.167969 -0.648438 L 29.832031 -1.105469 L 32.886719 -2.40625 L 37.242188 -5.328125 L 40.425781 -9.425781 L 41.078125 -10.722656 L 41.855469 -11.765625 L 42.898438 -14.300781 L 43.222656 -15.535156 L 43.480469 -16.898438 L 43.871094 -18.003906 L 44.066406 -19.304688 L 44.066406 -20.667969 L 44.261719 -22.75 L 44.195312 -24.632812 L 43.285156 -29.769531 L 42.441406 -32.238281 L 41.921875 -33.472656 L 39.710938 -36.917969 L 36.265625 -40.75 L 32.953125 -42.960938 L 31.71875 -43.675781 L 30.417969 -43.9375 L 29.3125 -44.457031 L 27.949219 -44.78125 L 24.113281 -45.367188 L 9.292969 -45.496094 L 8.125 -45.300781 L 6.824219 -45.367188 L 5.394531 -44.78125 L 4.808594 -43.417969 L 4.746094 -7.085938 L 4.875 -5.847656 L 4.875 -2.535156 L 5.523438 -0.519531 L 6.824219 0.128906 L 8.125 0 L 16.054688 0.128906 L 17.355469 -0.0664062 Z M 19.824219 -10.464844 L 18.589844 -10.59375 L 17.09375 -11.308594 L 16.574219 -12.542969 L 16.507812 -13.648438 L 16.574219 -16.3125 L 16.3125 -19.5 L 16.574219 -22.75 L 16.445312 -31.71875 L 16.574219 -32.824219 L 17.222656 -34.316406 L 19.304688 -34.773438 L 22.035156 -34.835938 L 23.917969 -34.640625 L 26.453125 -33.925781 L 27.621094 -33.34375 L 28.597656 -32.628906 L 29.574219 -31.71875 L 30.546875 -30.546875 L 31.199219 -29.441406 L 31.78125 -28.273438 L 32.824219 -22.554688 L 32.171875 -18.003906 L 31.066406 -15.597656 L 28.664062 -12.867188 L 26.453125 -11.4375 L 24.566406 -10.855469 L 21.773438 -10.527344 Z M 19.824219 -10.464844 "/></g></g></g><g fill="#004aad" fill-opacity="1"><g transform="translate(86.53062, 213.79998)"><g><path d="M 21.773438 0.261719 L 24.375 0.128906 L 25.542969 -0.519531 L 26.191406 -1.753906 L 26.191406 -8.1875 L 25.414062 -9.425781 L 23.984375 -10.140625 L 22.617188 -10.140625 L 21.058594 -10.660156 L 20.277344 -12.152344 L 20.472656 -13.390625 L 20.410156 -20.539062 L 20.539062 -21.96875 L 20.277344 -26.648438 L 20.539062 -33.210938 L 20.992188 -34.707031 L 22.421875 -35.292969 L 23.722656 -35.488281 L 25.089844 -36.007812 L 25.738281 -37.046875 L 25.804688 -43.480469 L 25.023438 -44.714844 L 23.851562 -45.429688 L 15.988281 -45.429688 L 14.820312 -45.5625 L 13.519531 -45.300781 L 8.1875 -45.300781 L 6.953125 -45.496094 L 5.460938 -45.496094 L 4.160156 -44.847656 L 3.507812 -43.285156 L 3.703125 -38.476562 L 3.574219 -37.242188 L 4.289062 -35.941406 L 5.71875 -35.226562 L 7.019531 -35.226562 L 8.253906 -34.449219 L 8.839844 -32.691406 L 9.035156 -12.738281 L 8.320312 -10.789062 L 4.03125 -9.488281 L 3.316406 -8.320312 L 3.121094 -2.339844 L 3.769531 -0.585938 L 5.070312 0 L 6.304688 0 L 7.539062 -0.128906 L 9.425781 0.128906 L 11.4375 0.0664062 L 12.738281 -0.0664062 L 15.339844 0.195312 L 17.289062 -0.0664062 L 20.472656 -0.0664062 Z M 21.773438 0.261719 "/></g></g></g><g fill="#004aad" fill-opacity="1"><g transform="translate(116.037103, 213.79998)"><g><path d="M 17.484375 0.585938 L 22.617188 0.714844 L 23.917969 0.585938 L 25.21875 0.261719 L 26.519531 0.0664062 L 27.816406 -0.453125 L 28.988281 -0.585938 L 30.222656 -1.167969 L 34.640625 -3.835938 L 36.527344 -5.785156 L 37.175781 -6.695312 L 37.890625 -8.125 L 38.28125 -9.292969 L 38.671875 -10.398438 L 39.0625 -13.648438 L 38.933594 -15.730469 L 37.957031 -19.5 L 37.242188 -20.539062 L 35.550781 -22.488281 L 34.382812 -23.527344 L 33.34375 -24.046875 L 32.171875 -24.761719 L 27.101562 -26.324219 L 25.804688 -26.519531 L 24.503906 -26.582031 L 23.136719 -26.84375 L 21.253906 -26.84375 L 17.808594 -27.558594 L 15.402344 -28.726562 L 14.429688 -29.636719 L 14.167969 -31.585938 L 14.492188 -33.34375 L 15.273438 -34.1875 L 16.25 -34.902344 L 17.289062 -35.488281 L 18.457031 -35.746094 L 20.539062 -35.8125 L 22.617188 -35.550781 L 23.789062 -35.226562 L 24.957031 -34.449219 L 26.0625 -33.539062 L 27.039062 -32.238281 L 28.46875 -31.394531 L 31.523438 -31.652344 L 33.277344 -31.523438 L 34.578125 -31.523438 L 35.746094 -31.394531 L 36.980469 -32.300781 L 37.503906 -33.40625 L 37.242188 -34.640625 L 37.113281 -35.878906 L 35.292969 -39.257812 L 33.863281 -41.207031 L 29.574219 -44.195312 L 25.933594 -45.429688 L 23.398438 -45.953125 L 18.394531 -46.082031 L 16.964844 -45.691406 L 15.664062 -45.625 L 14.492188 -45.429688 L 12.023438 -44.652344 L 9.8125 -43.351562 L 6.695312 -41.207031 L 4.417969 -38.152344 L 3.25 -34.578125 L 3.054688 -31.394531 L 3.121094 -29.378906 L 3.574219 -26.777344 L 4.613281 -24.503906 L 7.019531 -21.511719 L 11.4375 -19.109375 L 13.777344 -18.328125 L 23.984375 -17.160156 L 26.324219 -16.054688 L 27.167969 -15.273438 L 27.558594 -13.648438 L 27.039062 -12.023438 L 26.191406 -11.050781 L 23.984375 -10.074219 L 21.96875 -9.945312 L 20.796875 -9.75 L 17.484375 -10.074219 L 16.378906 -10.660156 L 15.273438 -11.375 L 13.128906 -13.714844 L 11.828125 -14.234375 L 10.660156 -14.105469 L 9.425781 -14.300781 L 4.417969 -14.039062 L 3.25 -13.519531 L 2.730469 -12.152344 L 2.925781 -10.855469 L 3.183594 -9.554688 L 3.574219 -8.382812 L 4.808594 -5.980469 L 5.71875 -5.132812 L 6.566406 -4.160156 L 8.839844 -2.730469 L 9.75 -1.753906 L 10.984375 -1.167969 L 12.285156 -0.78125 L 14.820312 0.128906 Z M 17.484375 0.585938 "/></g></g></g><g fill="#004aad" fill-opacity="1"><g transform="translate(157.502157, 213.79998)"><g><path d="M 22.617188 0.519531 L 25.867188 0.78125 L 30.417969 0.453125 L 34.253906 -0.324219 L 35.421875 -0.976562 L 36.789062 -1.429688 L 37.890625 -1.949219 L 41.078125 -4.226562 L 42.898438 -6.042969 L 44.390625 -7.996094 L 45.757812 -10.335938 L 47.445312 -15.273438 L 47.054688 -16.445312 L 45.757812 -17.289062 L 42.117188 -17.027344 L 40.816406 -17.222656 L 39.515625 -17.160156 L 38.21875 -17.222656 L 36.722656 -16.445312 L 35.683594 -15.402344 L 35.03125 -14.167969 L 33.539062 -12.480469 L 32.496094 -11.570312 L 31.523438 -11.179688 L 29.246094 -9.945312 L 25.804688 -9.75 L 23.917969 -9.945312 L 21.578125 -10.789062 L 19.304688 -11.960938 L 17.417969 -13.648438 L 15.988281 -15.921875 L 15.535156 -17.222656 L 15.078125 -18.132812 L 14.753906 -19.304688 L 14.558594 -20.734375 L 14.558594 -24.699219 L 15.015625 -27.296875 L 15.988281 -29.636719 L 16.640625 -30.871094 L 18.199219 -32.691406 L 19.757812 -33.925781 L 21.511719 -34.902344 L 25.867188 -35.488281 L 28.664062 -35.355469 L 30.675781 -34.773438 L 31.847656 -34.316406 L 32.757812 -33.601562 L 34.640625 -31.71875 L 35.355469 -30.742188 L 36.59375 -29.507812 L 38.085938 -28.792969 L 39.257812 -28.921875 L 40.621094 -28.859375 L 41.921875 -28.921875 L 43.742188 -28.726562 L 45.691406 -28.921875 L 46.796875 -29.441406 L 47.25 -30.742188 L 46.863281 -32.171875 L 46.40625 -33.34375 L 46.015625 -34.707031 L 45.300781 -35.746094 L 44.714844 -36.789062 L 43.804688 -37.890625 L 43.089844 -39.128906 L 41.273438 -41.011719 L 36.851562 -43.804688 L 30.613281 -45.886719 L 29.378906 -45.953125 L 28.078125 -46.144531 L 24.046875 -46.210938 L 17.742188 -44.976562 L 12.933594 -42.703125 L 11.050781 -41.273438 L 8.253906 -38.738281 L 6.5 -36.527344 L 5.265625 -34.640625 L 3.640625 -31.003906 L 2.988281 -28.335938 L 2.339844 -22.75 L 2.730469 -18.003906 L 3.640625 -14.300781 L 6.433594 -8.644531 L 9.097656 -5.785156 L 12.023438 -3.25 L 14.820312 -1.753906 L 17.742188 -0.519531 L 18.914062 -0.261719 L 20.214844 0.195312 L 21.382812 0.453125 Z M 22.617188 0.519531 "/></g></g></g><g fill="#004aad" fill-opacity="1"><g transform="translate(207.091234, 213.79998)"><g><path d="M 38.347656 0.128906 L 40.816406 -0.0664062 L 42.050781 0.0664062 L 44.066406 0 L 45.886719 -0.324219 L 46.082031 -1.886719 L 45.625 -3.378906 L 44.652344 -5.785156 L 42.898438 -9.164062 L 41.988281 -11.570312 L 40.6875 -13.910156 L 38.21875 -19.824219 L 37.566406 -20.796875 L 36.917969 -22.035156 L 36.527344 -23.464844 L 35.941406 -24.4375 L 35.550781 -25.476562 L 34.1875 -27.882812 L 33.730469 -29.246094 L 29.441406 -38.28125 L 29.054688 -39.582031 L 28.335938 -40.75 L 27.949219 -41.921875 L 26.714844 -44.195312 L 25.609375 -45.367188 L 23.464844 -46.015625 L 21.382812 -45.300781 L 20.214844 -44.195312 L 19.628906 -43.089844 L 19.171875 -41.792969 L 18.589844 -40.882812 L 15.988281 -34.902344 L 15.273438 -33.925781 L 14.949219 -32.628906 L 14.234375 -31.394531 L 13.84375 -30.222656 L 7.214844 -16.3125 L 6.824219 -14.882812 L 6.175781 -13.910156 L 5.71875 -12.609375 L 4.550781 -10.527344 L 3.574219 -7.929688 L 2.859375 -7.019531 L 2.535156 -5.847656 L 1.234375 -3.25 L 0.84375 -1.949219 L 1.167969 -0.324219 L 2.46875 0.0664062 L 5.003906 -0.0664062 L 6.304688 0.0664062 L 9.945312 -0.0664062 L 11.4375 -0.519531 L 12.675781 -1.691406 L 13.84375 -3.835938 L 15.078125 -5.070312 L 16.445312 -5.785156 L 17.679688 -5.589844 L 20.410156 -5.847656 L 21.578125 -5.65625 L 27.949219 -5.71875 L 29.117188 -5.589844 L 30.546875 -5.785156 L 31.976562 -5.070312 L 33.210938 -4.03125 L 33.796875 -2.792969 L 34.1875 -1.625 L 35.488281 -0.648438 L 36.980469 0 Z M 23.59375 -16.054688 L 22.292969 -16.3125 L 20.796875 -16.183594 L 19.757812 -16.640625 L 19.695312 -17.875 L 22.75 -24.894531 L 23.464844 -25.476562 L 24.375 -24.957031 L 27.429688 -17.808594 L 27.167969 -16.640625 L 26.191406 -16.117188 Z M 23.59375 -16.054688 "/></g></g></g><g fill="#004aad" fill-opacity="1"><g transform="translate(254.2756, 213.79998)"><g><path d="M 4.875 -2.664062 L 5.523438 -0.648438 L 7.410156 0.195312 L 8.710938 0 L 10.789062 0.195312 L 11.828125 0.0664062 L 13.777344 0.0664062 L 15.859375 -0.585938 L 16.445312 -2.46875 L 16.445312 -4.679688 L 16.574219 -5.847656 L 16.378906 -7.214844 L 16.507812 -11.375 L 17.09375 -12.675781 L 18.328125 -13.390625 L 22.097656 -12.867188 L 23.398438 -11.765625 L 24.179688 -10.464844 L 24.699219 -9.292969 L 26.0625 -7.34375 L 27.296875 -5.003906 L 28.011719 -4.03125 L 28.53125 -2.730469 L 29.246094 -1.625 L 30.675781 -0.453125 L 32.886719 0.128906 L 38.023438 0.0664062 L 39.257812 0.195312 L 41.402344 0.128906 L 42.636719 -0.453125 L 43.027344 -1.886719 L 42.3125 -3.316406 L 41.53125 -4.226562 L 41.011719 -5.460938 L 38.800781 -8.773438 L 38.21875 -9.945312 L 36.136719 -13.324219 L 35.355469 -14.300781 L 35.292969 -15.859375 L 35.878906 -17.289062 L 36.789062 -18.261719 L 37.695312 -19.042969 L 40.230469 -23.59375 L 41.078125 -27.363281 L 40.945312 -31.457031 L 40.75 -32.757812 L 39.582031 -36.460938 L 39.0625 -37.566406 L 38.347656 -38.605469 L 34.640625 -42.507812 L 32.367188 -43.742188 L 29.898438 -44.585938 L 26.191406 -45.429688 L 24.113281 -45.496094 L 22.226562 -45.367188 L 18.328125 -45.367188 L 17.027344 -45.625 L 15.730469 -45.625 L 14.558594 -45.300781 L 13.257812 -45.300781 L 11.960938 -45.5625 L 10.527344 -45.625 L 6.695312 -45.300781 L 5.523438 -44.652344 L 4.746094 -42.832031 L 4.808594 -27.949219 L 4.941406 -26.648438 L 4.746094 -24.046875 L 4.808594 -22.617188 L 4.808594 -21.320312 L 4.941406 -20.082031 L 4.808594 -18.847656 L 4.746094 -13.582031 L 4.875 -12.285156 Z M 18.328125 -23.789062 L 17.027344 -24.503906 L 16.507812 -25.542969 L 16.507812 -29.441406 L 16.378906 -30.546875 L 16.507812 -33.277344 L 17.09375 -34.511719 L 18.457031 -35.03125 L 19.757812 -34.96875 L 22.359375 -35.226562 L 24.179688 -34.835938 L 25.867188 -34.707031 L 27.101562 -34.382812 L 28.726562 -32.367188 L 29.117188 -31.328125 L 29.378906 -29.636719 L 29.183594 -27.6875 L 28.597656 -26.386719 L 27.882812 -25.414062 L 27.167969 -24.828125 L 25.996094 -24.308594 L 24.113281 -23.851562 L 22.878906 -23.789062 L 19.757812 -23.917969 Z M 18.328125 -23.789062 "/></g></g></g><g fill="#004aad" fill-opacity="1"><g transform="translate(299.380219, 213.79998)"><g><path d="M 16.964844 0.128906 L 21.320312 0 L 23.203125 -0.648438 L 23.851562 -2.46875 L 24.046875 -5.847656 L 23.851562 -8.320312 L 23.984375 -9.683594 L 23.917969 -12.285156 L 24.046875 -13.453125 L 23.851562 -14.882812 L 23.984375 -25.347656 L 23.789062 -26.714844 L 23.984375 -32.367188 L 24.503906 -34.316406 L 25.738281 -35.097656 L 28.273438 -35.226562 L 30.675781 -34.902344 L 32.042969 -35.097656 L 33.210938 -35.03125 L 34.316406 -35.746094 L 35.097656 -37.175781 L 35.164062 -43.351562 L 34.449219 -44.652344 L 33.210938 -45.496094 L 29.183594 -45.496094 L 27.949219 -45.625 L 26.582031 -45.429688 L 25.347656 -45.5625 L 20.082031 -45.300781 L 18.785156 -45.5625 L 17.546875 -45.625 L 16.183594 -45.429688 L 14.753906 -45.5625 L 13.582031 -45.300781 L 9.75 -45.496094 L 7.734375 -45.300781 L 3.183594 -45.5625 L 1.949219 -44.910156 L 1.167969 -43.417969 L 1.234375 -42.117188 L 1.105469 -38.867188 L 1.234375 -36.851562 L 1.820312 -35.683594 L 2.988281 -35.03125 L 4.289062 -35.164062 L 10.464844 -35.03125 L 11.699219 -34.382812 L 12.414062 -33.082031 L 12.285156 -31.003906 L 12.414062 -29.183594 L 12.347656 -27.753906 L 12.414062 -26.453125 L 12.285156 -24.632812 L 12.480469 -14.949219 L 12.347656 -13.648438 L 12.285156 -8.382812 L 12.414062 -7.019531 L 12.347656 -3.25 L 12.21875 -2.015625 L 13.0625 -0.585938 L 14.949219 0.0664062 Z M 16.964844 0.128906 "/></g></g></g></svg>