<svg xmlns="http://www.w3.org/2000/svg" xmlns:xlink="http://www.w3.org/1999/xlink" width="500" zoomAndPan="magnify" viewBox="0 0 375 374.999991" height="500" preserveAspectRatio="xMidYMid meet" version="1.0"><defs><g/><clipPath id="c300a88d47"><path d="M 0 123.679688 L 375 123.679688 L 375 251.800781 L 0 251.800781 Z M 0 123.679688 " clip-rule="nonzero"/></clipPath><clipPath id="6705125ac6"><path d="M 17.25 123.679688 L 357.75 123.679688 C 367.277344 123.679688 375 131.402344 375 140.929688 L 375 234.070312 C 375 243.597656 367.277344 251.320312 357.75 251.320312 L 17.25 251.320312 C 7.722656 251.320312 0 243.597656 0 234.070312 L 0 140.929688 C 0 131.402344 7.722656 123.679688 17.25 123.679688 " clip-rule="nonzero"/></clipPath></defs><g clip-path="url(#c300a88d47)"><g clip-path="url(#6705125ac6)"><path fill="#09336b" d="M 0 123.679688 L 375.082031 123.679688 L 375.082031 251.800781 L 0 251.800781 Z M 0 123.679688 " fill-opacity="1" fill-rule="nonzero"/></g></g><g fill="#08adc6" fill-opacity="1"><g transform="translate(30.927462, 210.871476)"><g><path d="M 21.144531 0.207031 L 23.207031 0.207031 L 25.335938 -0.0703125 L 26.707031 -0.0703125 L 28.699219 -0.6875 L 31.511719 -1.167969 L 34.742188 -2.539062 L 39.339844 -5.628906 L 42.703125 -9.957031 L 43.390625 -11.328125 L 44.214844 -12.425781 L 45.3125 -15.105469 L 45.65625 -16.410156 L 45.929688 -17.851562 L 46.34375 -19.019531 L 46.550781 -20.390625 L 46.550781 -21.832031 L 46.753906 -24.03125 L 46.6875 -26.019531 L 45.726562 -31.445312 L 44.832031 -34.054688 L 44.285156 -35.359375 L 41.949219 -38.996094 L 38.308594 -43.046875 L 34.808594 -45.382812 L 33.503906 -46.136719 L 32.132812 -46.410156 L 30.964844 -46.960938 L 29.523438 -47.304688 L 25.472656 -47.921875 L 9.816406 -48.058594 L 8.582031 -47.855469 L 7.207031 -47.921875 L 5.699219 -47.304688 L 5.082031 -45.863281 L 5.011719 -7.484375 L 5.148438 -6.179688 L 5.148438 -2.675781 L 5.835938 -0.550781 L 7.207031 0.136719 L 8.582031 0 L 16.957031 0.136719 L 18.332031 -0.0703125 Z M 20.941406 -11.054688 L 19.636719 -11.191406 L 18.058594 -11.945312 L 17.507812 -13.25 L 17.4375 -14.417969 L 17.507812 -17.234375 L 17.234375 -20.597656 L 17.507812 -24.03125 L 17.371094 -33.503906 L 17.507812 -34.671875 L 18.195312 -36.25 L 20.390625 -36.730469 L 23.273438 -36.800781 L 25.265625 -36.59375 L 27.941406 -35.839844 L 29.179688 -35.222656 L 30.207031 -34.464844 L 31.238281 -33.503906 L 32.269531 -32.269531 L 32.957031 -31.101562 L 33.574219 -29.867188 L 34.671875 -23.824219 L 33.984375 -19.019531 L 32.816406 -16.476562 L 30.277344 -13.59375 L 27.941406 -12.082031 L 25.953125 -11.464844 L 23 -11.121094 Z M 20.941406 -11.054688 "/></g></g></g><g fill="#08adc6" fill-opacity="1"><g transform="translate(80.838767, 210.871476)"><g><path d="M 23 0.273438 L 25.746094 0.136719 L 26.980469 -0.550781 L 27.667969 -1.855469 L 27.667969 -8.652344 L 26.84375 -9.957031 L 25.335938 -10.710938 L 23.890625 -10.710938 L 22.246094 -11.257812 L 21.421875 -12.839844 L 21.625 -14.144531 L 21.558594 -21.695312 L 21.695312 -23.207031 L 21.421875 -28.148438 L 21.695312 -35.082031 L 22.175781 -36.664062 L 23.6875 -37.28125 L 25.058594 -37.488281 L 26.5 -38.035156 L 27.1875 -39.132812 L 27.257812 -45.929688 L 26.433594 -47.234375 L 25.195312 -47.992188 L 16.890625 -47.992188 L 15.652344 -48.128906 L 14.28125 -47.855469 L 8.652344 -47.855469 L 7.347656 -48.058594 L 5.765625 -48.058594 L 4.394531 -47.375 L 3.707031 -45.726562 L 3.914062 -40.644531 L 3.777344 -39.339844 L 4.53125 -37.96875 L 6.042969 -37.210938 L 7.414062 -37.210938 L 8.71875 -36.386719 L 9.335938 -34.535156 L 9.542969 -13.457031 L 8.789062 -11.398438 L 4.257812 -10.023438 L 3.5 -8.789062 L 3.296875 -2.472656 L 3.980469 -0.617188 L 5.355469 0 L 6.660156 0 L 7.964844 -0.136719 L 9.957031 0.136719 L 12.082031 0.0703125 L 13.457031 -0.0703125 L 16.203125 0.207031 L 18.261719 -0.0703125 L 21.625 -0.0703125 Z M 23 0.273438 "/></g></g></g><g fill="#08adc6" fill-opacity="1"><g transform="translate(112.007588, 210.871476)"><g><path d="M 18.46875 0.617188 L 23.890625 0.753906 L 25.265625 0.617188 L 26.640625 0.273438 L 28.011719 0.0703125 L 29.386719 -0.480469 L 30.621094 -0.617188 L 31.925781 -1.234375 L 36.59375 -4.050781 L 38.585938 -6.109375 L 39.273438 -7.070312 L 40.027344 -8.582031 L 40.4375 -9.816406 L 40.851562 -10.984375 L 41.261719 -14.417969 L 41.125 -16.613281 L 40.09375 -20.597656 L 39.339844 -21.695312 L 37.554688 -23.753906 L 36.320312 -24.855469 L 35.222656 -25.402344 L 33.984375 -26.15625 L 28.628906 -27.804688 L 27.257812 -28.011719 L 25.882812 -28.082031 L 24.441406 -28.355469 L 22.449219 -28.355469 L 18.8125 -29.109375 L 16.273438 -30.347656 L 15.242188 -31.308594 L 14.96875 -33.367188 L 15.308594 -35.222656 L 16.132812 -36.113281 L 17.164062 -36.867188 L 18.261719 -37.488281 L 19.5 -37.761719 L 21.695312 -37.828125 L 23.890625 -37.554688 L 25.128906 -37.210938 L 26.363281 -36.386719 L 27.53125 -35.425781 L 28.5625 -34.054688 L 30.070312 -33.160156 L 33.296875 -33.4375 L 35.152344 -33.296875 L 36.523438 -33.296875 L 37.761719 -33.160156 L 39.066406 -34.121094 L 39.613281 -35.289062 L 39.339844 -36.59375 L 39.203125 -37.898438 L 37.28125 -41.46875 L 35.769531 -43.527344 L 31.238281 -46.6875 L 27.394531 -47.992188 L 24.714844 -48.539062 L 19.429688 -48.675781 L 17.917969 -48.265625 L 16.546875 -48.195312 L 15.308594 -47.992188 L 12.703125 -47.167969 L 10.367188 -45.792969 L 7.070312 -43.527344 L 4.667969 -40.300781 L 3.433594 -36.523438 L 3.226562 -33.160156 L 3.296875 -31.03125 L 3.777344 -28.285156 L 4.875 -25.882812 L 7.414062 -22.726562 L 12.082031 -20.183594 L 14.554688 -19.359375 L 25.335938 -18.125 L 27.804688 -16.957031 L 28.699219 -16.132812 L 29.109375 -14.417969 L 28.5625 -12.703125 L 27.667969 -11.671875 L 25.335938 -10.640625 L 23.207031 -10.503906 L 21.96875 -10.296875 L 18.46875 -10.640625 L 17.300781 -11.257812 L 16.132812 -12.015625 L 13.867188 -14.488281 L 12.496094 -15.035156 L 11.257812 -14.898438 L 9.957031 -15.105469 L 4.667969 -14.828125 L 3.433594 -14.28125 L 2.882812 -12.839844 L 3.089844 -11.464844 L 3.363281 -10.09375 L 3.777344 -8.855469 L 5.082031 -6.316406 L 6.042969 -5.425781 L 6.933594 -4.394531 L 9.335938 -2.882812 L 10.296875 -1.855469 L 11.601562 -1.234375 L 12.976562 -0.824219 L 15.652344 0.136719 Z M 18.46875 0.617188 "/></g></g></g><g fill="#fdfdfd" fill-opacity="1"><g transform="translate(155.806418, 210.871476)"><g><path d="M 23.890625 0.550781 L 27.324219 0.824219 L 32.132812 0.480469 L 36.183594 -0.34375 L 37.417969 -1.03125 L 38.859375 -1.511719 L 40.027344 -2.058594 L 43.390625 -4.460938 L 45.3125 -6.386719 L 46.890625 -8.445312 L 48.335938 -10.917969 L 50.121094 -16.132812 L 49.707031 -17.371094 L 48.335938 -18.261719 L 44.488281 -17.988281 L 43.117188 -18.195312 L 41.742188 -18.125 L 40.371094 -18.195312 L 38.792969 -17.371094 L 37.691406 -16.273438 L 37.007812 -14.96875 L 35.425781 -13.183594 L 34.328125 -12.222656 L 33.296875 -11.808594 L 30.894531 -10.503906 L 27.257812 -10.296875 L 25.265625 -10.503906 L 22.792969 -11.398438 L 20.390625 -12.632812 L 18.398438 -14.417969 L 16.890625 -16.820312 L 16.410156 -18.195312 L 15.929688 -19.15625 L 15.585938 -20.390625 L 15.378906 -21.902344 L 15.378906 -26.089844 L 15.859375 -28.835938 L 16.890625 -31.308594 L 17.574219 -32.613281 L 19.222656 -34.535156 L 20.871094 -35.839844 L 22.726562 -36.867188 L 27.324219 -37.488281 L 30.277344 -37.347656 L 32.40625 -36.730469 L 33.640625 -36.25 L 34.601562 -35.496094 L 36.59375 -33.503906 L 37.347656 -32.476562 L 38.652344 -31.171875 L 40.234375 -30.414062 L 41.46875 -30.550781 L 42.910156 -30.484375 L 44.285156 -30.550781 L 46.207031 -30.347656 L 48.265625 -30.550781 L 49.433594 -31.101562 L 49.914062 -32.476562 L 49.5 -33.984375 L 49.019531 -35.222656 L 48.609375 -36.664062 L 47.855469 -37.761719 L 47.234375 -38.859375 L 46.273438 -40.027344 L 45.519531 -41.332031 L 43.597656 -43.324219 L 38.929688 -46.273438 L 32.335938 -48.472656 L 31.03125 -48.539062 L 29.660156 -48.746094 L 25.402344 -48.816406 L 18.742188 -47.511719 L 13.664062 -45.109375 L 11.671875 -43.597656 L 8.71875 -40.917969 L 6.867188 -38.585938 L 5.5625 -36.59375 L 3.84375 -32.75 L 3.160156 -29.933594 L 2.472656 -24.03125 L 2.882812 -19.019531 L 3.84375 -15.105469 L 6.796875 -9.132812 L 9.613281 -6.109375 L 12.703125 -3.433594 L 15.652344 -1.855469 L 18.742188 -0.550781 L 19.980469 -0.273438 L 21.351562 0.207031 L 22.589844 0.480469 Z M 23.890625 0.550781 "/></g></g></g><g fill="#fdfdfd" fill-opacity="1"><g transform="translate(208.189247, 210.871476)"><g><path d="M 40.507812 0.136719 L 43.117188 -0.0703125 L 44.421875 0.0703125 L 46.550781 0 L 48.472656 -0.34375 L 48.675781 -1.992188 L 48.195312 -3.570312 L 47.167969 -6.109375 L 45.3125 -9.679688 L 44.351562 -12.222656 L 42.980469 -14.691406 L 40.371094 -20.941406 L 39.683594 -21.96875 L 38.996094 -23.273438 L 38.585938 -24.785156 L 37.96875 -25.816406 L 37.554688 -26.914062 L 36.113281 -29.453125 L 35.632812 -30.894531 L 31.101562 -40.4375 L 30.691406 -41.8125 L 29.933594 -43.046875 L 29.523438 -44.285156 L 28.21875 -46.6875 L 27.050781 -47.921875 L 24.785156 -48.609375 L 22.589844 -47.855469 L 21.351562 -46.6875 L 20.734375 -45.519531 L 20.253906 -44.144531 L 19.636719 -43.183594 L 16.890625 -36.867188 L 16.132812 -35.839844 L 15.792969 -34.464844 L 15.035156 -33.160156 L 14.625 -31.925781 L 7.621094 -17.234375 L 7.207031 -15.722656 L 6.523438 -14.691406 L 6.042969 -13.320312 L 4.804688 -11.121094 L 3.777344 -8.375 L 3.019531 -7.414062 L 2.675781 -6.179688 L 1.304688 -3.433594 L 0.890625 -2.058594 L 1.234375 -0.34375 L 2.609375 0.0703125 L 5.285156 -0.0703125 L 6.660156 0.0703125 L 10.503906 -0.0703125 L 12.082031 -0.550781 L 13.386719 -1.785156 L 14.625 -4.050781 L 15.929688 -5.355469 L 17.371094 -6.109375 L 18.675781 -5.90625 L 21.558594 -6.179688 L 22.792969 -5.972656 L 29.523438 -6.042969 L 30.757812 -5.90625 L 32.269531 -6.109375 L 33.777344 -5.355469 L 35.082031 -4.257812 L 35.703125 -2.953125 L 36.113281 -1.714844 L 37.488281 -0.6875 L 39.066406 0 Z M 24.921875 -16.957031 L 23.550781 -17.234375 L 21.96875 -17.09375 L 20.871094 -17.574219 L 20.804688 -18.878906 L 24.03125 -26.296875 L 24.785156 -26.914062 L 25.746094 -26.363281 L 28.972656 -18.8125 L 28.699219 -17.574219 L 27.667969 -17.027344 Z M 24.921875 -16.957031 "/></g></g></g><g fill="#fdfdfd" fill-opacity="1"><g transform="translate(258.031887, 210.871476)"><g><path d="M 5.148438 -2.816406 L 5.835938 -0.6875 L 7.828125 0.207031 L 9.199219 0 L 11.398438 0.207031 L 12.496094 0.0703125 L 14.554688 0.0703125 L 16.753906 -0.617188 L 17.371094 -2.609375 L 17.371094 -4.941406 L 17.507812 -6.179688 L 17.300781 -7.621094 L 17.4375 -12.015625 L 18.058594 -13.386719 L 19.359375 -14.144531 L 23.34375 -13.59375 L 24.714844 -12.425781 L 25.539062 -11.054688 L 26.089844 -9.816406 L 27.53125 -7.757812 L 28.835938 -5.285156 L 29.589844 -4.257812 L 30.140625 -2.882812 L 30.894531 -1.714844 L 32.40625 -0.480469 L 34.742188 0.136719 L 40.164062 0.0703125 L 41.46875 0.207031 L 43.734375 0.136719 L 45.039062 -0.480469 L 45.449219 -1.992188 L 44.695312 -3.5 L 43.871094 -4.460938 L 43.324219 -5.765625 L 40.988281 -9.269531 L 40.371094 -10.503906 L 38.171875 -14.074219 L 37.347656 -15.105469 L 37.28125 -16.753906 L 37.898438 -18.261719 L 38.859375 -19.292969 L 39.820312 -20.117188 L 42.5 -24.921875 L 43.390625 -28.90625 L 43.253906 -33.230469 L 43.046875 -34.601562 L 41.8125 -38.515625 L 41.261719 -39.683594 L 40.507812 -40.78125 L 36.59375 -44.902344 L 34.191406 -46.207031 L 31.582031 -47.097656 L 27.667969 -47.992188 L 25.472656 -48.058594 L 23.480469 -47.921875 L 19.359375 -47.921875 L 17.988281 -48.195312 L 16.613281 -48.195312 L 15.378906 -47.855469 L 14.007812 -47.855469 L 12.632812 -48.128906 L 11.121094 -48.195312 L 7.070312 -47.855469 L 5.835938 -47.167969 L 5.011719 -45.246094 L 5.082031 -29.523438 L 5.21875 -28.148438 L 5.011719 -25.402344 L 5.082031 -23.890625 L 5.082031 -22.519531 L 5.21875 -21.214844 L 5.082031 -19.910156 L 5.011719 -14.347656 L 5.148438 -12.976562 Z M 19.359375 -25.128906 L 17.988281 -25.882812 L 17.4375 -26.980469 L 17.4375 -31.101562 L 17.300781 -32.269531 L 17.4375 -35.152344 L 18.058594 -36.457031 L 19.5 -37.007812 L 20.871094 -36.9375 L 23.617188 -37.210938 L 25.539062 -36.800781 L 27.324219 -36.664062 L 28.628906 -36.320312 L 30.347656 -34.191406 L 30.757812 -33.09375 L 31.03125 -31.308594 L 30.828125 -29.246094 L 30.207031 -27.875 L 29.453125 -26.84375 L 28.699219 -26.226562 L 27.460938 -25.675781 L 25.472656 -25.195312 L 24.167969 -25.128906 L 20.871094 -25.265625 Z M 19.359375 -25.128906 "/></g></g></g><g fill="#fdfdfd" fill-opacity="1"><g transform="translate(305.677612, 210.871476)"><g><path d="M 17.917969 0.136719 L 22.519531 0 L 24.511719 -0.6875 L 25.195312 -2.609375 L 25.402344 -6.179688 L 25.195312 -8.789062 L 25.335938 -10.230469 L 25.265625 -12.976562 L 25.402344 -14.210938 L 25.195312 -15.722656 L 25.335938 -26.777344 L 25.128906 -28.21875 L 25.335938 -34.191406 L 25.882812 -36.25 L 27.1875 -37.074219 L 29.867188 -37.210938 L 32.40625 -36.867188 L 33.847656 -37.074219 L 35.082031 -37.007812 L 36.25 -37.761719 L 37.074219 -39.273438 L 37.144531 -45.792969 L 36.386719 -47.167969 L 35.082031 -48.058594 L 30.828125 -48.058594 L 29.523438 -48.195312 L 28.082031 -47.992188 L 26.777344 -48.128906 L 21.214844 -47.855469 L 19.839844 -48.128906 L 18.539062 -48.195312 L 17.09375 -47.992188 L 15.585938 -48.128906 L 14.347656 -47.855469 L 10.296875 -48.058594 L 8.171875 -47.855469 L 3.363281 -48.128906 L 2.058594 -47.441406 L 1.234375 -45.863281 L 1.304688 -44.488281 L 1.167969 -41.058594 L 1.304688 -38.929688 L 1.921875 -37.691406 L 3.160156 -37.007812 L 4.53125 -37.144531 L 11.054688 -37.007812 L 12.359375 -36.320312 L 13.113281 -34.945312 L 12.976562 -32.75 L 13.113281 -30.828125 L 13.042969 -29.316406 L 13.113281 -27.941406 L 12.976562 -26.019531 L 13.183594 -15.792969 L 13.042969 -14.417969 L 12.976562 -8.855469 L 13.113281 -7.414062 L 13.042969 -3.433594 L 12.90625 -2.128906 L 13.800781 -0.617188 L 15.792969 0.0703125 Z M 17.917969 0.136719 "/></g></g></g></svg>