<svg xmlns="http://www.w3.org/2000/svg" xmlns:xlink="http://www.w3.org/1999/xlink" width="440" zoomAndPan="magnify" viewBox="0 0 330 149.999998" height="200" preserveAspectRatio="xMidYMid meet" version="1.0"><defs><g/></defs><g fill="#1eadff" fill-opacity="1"><g transform="translate(25.888674, 94.912775)"><g><path d="M 20.628906 -50.335938 L 5.632812 -50.335938 L 5.632812 0 L 20.628906 0 C 54.136719 0 54.136719 -50.335938 20.628906 -50.335938 Z M 20.628906 -40.269531 C 40.199219 -40.269531 40.199219 -10.066406 20.628906 -10.066406 L 15.699219 -10.066406 L 15.699219 -40.269531 Z M 20.628906 -40.269531 "/></g></g></g><g fill="#1eadff" fill-opacity="1"><g transform="translate(75.450281, 94.912775)"><g><path d="M 15.699219 0 L 15.699219 -50.335938 L 5.632812 -50.335938 L 5.632812 0 Z M 15.699219 0 "/></g></g><g transform="translate(96.851881, 94.912775)"><g><path d="M 3.308594 -3.238281 C 10.136719 0.28125 16.402344 0.632812 19.21875 0.421875 C 28.652344 -0.0703125 34.425781 -6.476562 34.425781 -14.855469 C 34.425781 -22.878906 27.667969 -27.386719 19.851562 -30.273438 C 16.964844 -31.257812 14.503906 -32.523438 14.222656 -35.339844 C 14.007812 -38.15625 15.628906 -40.761719 19.21875 -40.972656 C 20.769531 -41.042969 23.9375 -41.113281 29.496094 -38.859375 L 30.765625 -48.574219 C 24.289062 -50.828125 20.839844 -50.828125 18.234375 -50.6875 C 9.855469 -50.265625 4.011719 -43.789062 4.011719 -35.339844 C 4.011719 -26.894531 11.054688 -22.878906 18.9375 -19.992188 C 21.753906 -19.007812 23.9375 -17.742188 24.148438 -14.855469 C 24.429688 -12.109375 21.894531 -9.996094 18.9375 -9.785156 C 16.613281 -9.574219 10.347656 -9.714844 4.574219 -13.796875 Z M 3.308594 -3.238281 "/></g></g></g><g fill="#ffffff" fill-opacity="1"><g transform="translate(134.092579, 94.912775)"><g><path d="M 37.664062 -38.648438 L 38.859375 -49 C 35.832031 -50.335938 32.453125 -50.96875 28.933594 -50.96875 C -5.140625 -50.96875 -5.210938 0.140625 28.933594 0.140625 C 32.453125 0.140625 36.890625 -0.703125 39.988281 -1.972656 L 38.648438 -12.390625 C 36.75 -11.40625 33.300781 -10.136719 28.933594 -10.136719 C 9.011719 -10.136719 9.011719 -40.832031 28.933594 -40.832031 C 33.300781 -40.832031 35.761719 -39.636719 37.664062 -38.648438 Z M 37.664062 -38.648438 "/></g></g></g><g fill="#ffffff" fill-opacity="1"><g transform="translate(176.473386, 94.912775)"><g><path d="M 1.125 0 L 12.53125 0 L 14.503906 -5.421875 L 31.1875 -5.421875 L 33.230469 0 L 44.5625 0 L 23.371094 -52.167969 L 22.316406 -52.167969 Z M 18.164062 -14.855469 L 22.878906 -27.949219 L 27.457031 -14.855469 Z M 18.164062 -14.855469 "/></g></g></g><g fill="#ffffff" fill-opacity="1"><g transform="translate(222.444593, 94.912775)"><g><path d="M 30.695312 0 L 42.097656 0 L 30.414062 -20.769531 C 45.195312 -25.0625 43.4375 -50.335938 25.484375 -50.335938 L 5.632812 -50.335938 L 5.632812 0 L 15.699219 0 L 15.699219 -19.21875 L 20.558594 -19.21875 Z M 15.699219 -29.003906 L 15.699219 -40.269531 L 24.570312 -40.269531 C 31.398438 -40.269531 31.398438 -29.003906 24.570312 -29.003906 Z M 15.699219 -29.003906 "/></g></g><g transform="translate(265.599794, 94.912775)"><g><path d="M 24.007812 0 L 24.007812 -40.269531 L 36.539062 -40.269531 L 36.539062 -50.265625 L 1.40625 -50.265625 L 1.40625 -40.269531 L 13.9375 -40.269531 L 13.9375 0 Z M 24.007812 0 "/></g></g></g></svg>