<svg xmlns="http://www.w3.org/2000/svg" xmlns:xlink="http://www.w3.org/1999/xlink" width="500" zoomAndPan="magnify" viewBox="0 0 375 374.999991" height="500" preserveAspectRatio="xMidYMid meet" version="1.0"><defs><g/></defs><g fill="#1eadff" fill-opacity="1"><g transform="translate(55.265739, 203.812236)"><g><path d="M 19.609375 -47.847656 L 5.355469 -47.847656 L 5.355469 0 L 19.609375 0 C 51.460938 0 51.460938 -47.847656 19.609375 -47.847656 Z M 19.609375 -38.277344 C 38.210938 -38.277344 38.210938 -9.570312 19.609375 -9.570312 L 14.921875 -9.570312 L 14.921875 -38.277344 Z M 19.609375 -38.277344 "/></g></g></g><g fill="#1eadff" fill-opacity="1"><g transform="translate(102.377045, 203.812236)"><g><path d="M 14.921875 0 L 14.921875 -47.847656 L 5.355469 -47.847656 L 5.355469 0 Z M 14.921875 0 "/></g></g></g><g fill="#1eadff" fill-opacity="1"><g transform="translate(122.720562, 203.812236)"><g><path d="M 3.144531 -3.078125 C 9.636719 0.269531 15.59375 0.601562 18.269531 0.402344 C 27.238281 -0.0664062 32.722656 -6.15625 32.722656 -14.121094 C 32.722656 -21.75 26.300781 -26.03125 18.871094 -28.777344 C 16.128906 -29.710938 13.785156 -30.917969 13.519531 -33.59375 C 13.316406 -36.269531 14.855469 -38.746094 18.269531 -38.949219 C 19.742188 -39.015625 22.753906 -39.082031 28.039062 -36.941406 L 29.246094 -46.175781 C 23.085938 -48.316406 19.808594 -48.316406 17.332031 -48.183594 C 9.367188 -47.78125 3.816406 -41.625 3.816406 -33.59375 C 3.816406 -25.5625 10.507812 -21.75 18 -19.003906 C 20.679688 -18.070312 22.753906 -16.863281 22.953125 -14.121094 C 23.222656 -11.511719 20.8125 -9.503906 18 -9.300781 C 15.792969 -9.101562 9.835938 -9.234375 4.351562 -13.117188 Z M 3.144531 -3.078125 "/></g></g></g><g fill="#ffffff" fill-opacity="1"><g transform="translate(158.119176, 203.812236)"><g><path d="M 35.800781 -36.738281 L 36.941406 -46.578125 C 34.0625 -47.847656 30.851562 -48.449219 27.503906 -48.449219 C -4.886719 -48.449219 -4.953125 0.132812 27.503906 0.132812 C 30.851562 0.132812 35.066406 -0.667969 38.011719 -1.875 L 36.738281 -11.777344 C 34.933594 -10.839844 31.652344 -9.636719 27.503906 -9.636719 C 8.566406 -9.636719 8.566406 -38.8125 27.503906 -38.8125 C 31.652344 -38.8125 33.996094 -37.675781 35.800781 -36.738281 Z M 35.800781 -36.738281 "/></g></g></g><g fill="#ffffff" fill-opacity="1"><g transform="translate(198.404699, 203.812236)"><g><path d="M 1.070312 0 L 11.910156 0 L 13.785156 -5.152344 L 29.644531 -5.152344 L 31.585938 0 L 42.359375 0 L 22.21875 -49.589844 L 21.214844 -49.589844 Z M 17.265625 -14.121094 L 21.75 -26.566406 L 26.097656 -14.121094 Z M 17.265625 -14.121094 "/></g></g></g><g fill="#ffffff" fill-opacity="1"><g transform="translate(242.10311, 203.812236)"><g><path d="M 29.175781 0 L 40.019531 0 L 28.910156 -19.742188 C 42.960938 -23.824219 41.289062 -47.847656 24.226562 -47.847656 L 5.355469 -47.847656 L 5.355469 0 L 14.921875 0 L 14.921875 -18.269531 L 19.539062 -18.269531 Z M 14.921875 -27.570312 L 14.921875 -38.277344 L 23.355469 -38.277344 C 29.847656 -38.277344 29.847656 -27.570312 23.355469 -27.570312 Z M 14.921875 -27.570312 "/></g></g></g><g fill="#ffffff" fill-opacity="1"><g transform="translate(283.124742, 203.812236)"><g><path d="M 22.820312 0 L 22.820312 -38.277344 L 34.730469 -38.277344 L 34.730469 -47.78125 L 1.339844 -47.78125 L 1.339844 -38.277344 L 13.25 -38.277344 L 13.25 0 Z M 22.820312 0 "/></g></g></g></svg>