<svg xmlns="http://www.w3.org/2000/svg" xmlns:xlink="http://www.w3.org/1999/xlink" width="250" zoomAndPan="magnify" viewBox="0 0 187.5 74.999997" height="100" preserveAspectRatio="xMidYMid meet" version="1.0"><defs><g/></defs><g fill="#08adc6" fill-opacity="1"><g transform="translate(8.879901, 50.268233)"><g><path d="M 11.460938 0.113281 L 12.578125 0.113281 L 13.734375 -0.0390625 L 14.476562 -0.0390625 L 15.554688 -0.371094 L 17.082031 -0.632812 L 18.832031 -1.378906 L 21.324219 -3.050781 L 23.148438 -5.394531 L 23.519531 -6.140625 L 23.964844 -6.734375 L 24.5625 -8.1875 L 24.75 -8.894531 L 24.898438 -9.675781 L 25.121094 -10.308594 L 25.230469 -11.054688 L 25.230469 -11.835938 L 25.34375 -13.023438 L 25.304688 -14.105469 L 24.785156 -17.042969 L 24.300781 -18.457031 L 24.003906 -19.164062 L 22.738281 -21.136719 L 20.765625 -23.335938 L 18.867188 -24.597656 L 18.160156 -25.007812 L 17.417969 -25.15625 L 16.785156 -25.457031 L 16.003906 -25.640625 L 13.808594 -25.976562 L 5.320312 -26.050781 L 4.652344 -25.9375 L 3.90625 -25.976562 L 3.089844 -25.640625 L 2.753906 -24.859375 L 2.714844 -4.054688 L 2.792969 -3.347656 L 2.792969 -1.453125 L 3.164062 -0.296875 L 3.90625 0.0742188 L 4.652344 0 L 9.191406 0.0742188 L 9.9375 -0.0390625 Z M 11.351562 -5.992188 L 10.644531 -6.066406 L 9.789062 -6.476562 L 9.488281 -7.183594 L 9.453125 -7.816406 L 9.488281 -9.339844 L 9.339844 -11.164062 L 9.488281 -13.023438 L 9.414062 -18.160156 L 9.488281 -18.792969 L 9.863281 -19.648438 L 11.054688 -19.910156 L 12.617188 -19.949219 L 13.695312 -19.835938 L 15.148438 -19.425781 L 15.816406 -19.089844 L 16.375 -18.683594 L 16.933594 -18.160156 L 17.492188 -17.492188 L 17.863281 -16.859375 L 18.199219 -16.1875 L 18.792969 -12.914062 L 18.421875 -10.308594 L 17.789062 -8.933594 L 16.410156 -7.367188 L 15.148438 -6.550781 L 14.066406 -6.214844 L 12.46875 -6.027344 Z M 11.351562 -5.992188 "/></g></g></g><g fill="#08adc6" fill-opacity="1"><g transform="translate(35.93431, 50.268233)"><g><path d="M 12.46875 0.148438 L 13.957031 0.0742188 L 14.625 -0.296875 L 14.996094 -1.003906 L 14.996094 -4.6875 L 14.550781 -5.394531 L 13.734375 -5.804688 L 12.949219 -5.804688 L 12.058594 -6.101562 L 11.609375 -6.960938 L 11.722656 -7.667969 L 11.6875 -11.761719 L 11.761719 -12.578125 L 11.609375 -15.257812 L 11.761719 -19.015625 L 12.019531 -19.871094 L 12.839844 -20.207031 L 13.582031 -20.320312 L 14.363281 -20.617188 L 14.738281 -21.210938 L 14.773438 -24.898438 L 14.328125 -25.605469 L 13.65625 -26.011719 L 9.15625 -26.011719 L 8.484375 -26.089844 L 7.742188 -25.9375 L 4.6875 -25.9375 L 3.980469 -26.050781 L 3.125 -26.050781 L 2.382812 -25.679688 L 2.007812 -24.785156 L 2.121094 -22.03125 L 2.046875 -21.324219 L 2.457031 -20.582031 L 3.273438 -20.171875 L 4.019531 -20.171875 L 4.726562 -19.722656 L 5.0625 -18.71875 L 5.171875 -7.292969 L 4.761719 -6.179688 L 2.308594 -5.433594 L 1.898438 -4.761719 L 1.785156 -1.339844 L 2.160156 -0.335938 L 2.902344 0 L 3.609375 0 L 4.316406 -0.0742188 L 5.394531 0.0742188 L 6.550781 0.0390625 L 7.292969 -0.0390625 L 8.78125 0.113281 L 9.898438 -0.0390625 L 11.722656 -0.0390625 Z M 12.46875 0.148438 "/></g></g></g><g fill="#08adc6" fill-opacity="1"><g transform="translate(52.82936, 50.268233)"><g><path d="M 10.011719 0.335938 L 12.949219 0.410156 L 13.695312 0.335938 L 14.441406 0.148438 L 15.183594 0.0390625 L 15.929688 -0.261719 L 16.597656 -0.335938 L 17.304688 -0.667969 L 19.835938 -2.195312 L 20.914062 -3.3125 L 21.289062 -3.832031 L 21.695312 -4.652344 L 21.917969 -5.320312 L 22.144531 -5.953125 L 22.367188 -7.816406 L 22.292969 -9.007812 L 21.734375 -11.164062 L 21.324219 -11.761719 L 20.355469 -12.875 L 19.6875 -13.472656 L 19.089844 -13.769531 L 18.421875 -14.179688 L 15.519531 -15.070312 L 14.773438 -15.183594 L 14.03125 -15.222656 L 13.25 -15.371094 L 12.167969 -15.371094 L 10.195312 -15.78125 L 8.820312 -16.449219 L 8.261719 -16.96875 L 8.113281 -18.085938 L 8.300781 -19.089844 L 8.746094 -19.574219 L 9.304688 -19.984375 L 9.898438 -20.320312 L 10.570312 -20.46875 L 11.761719 -20.503906 L 12.949219 -20.355469 L 13.621094 -20.171875 L 14.289062 -19.722656 L 14.921875 -19.203125 L 15.480469 -18.457031 L 16.300781 -17.976562 L 18.050781 -18.125 L 19.054688 -18.050781 L 19.796875 -18.050781 L 20.46875 -17.976562 L 21.175781 -18.496094 L 21.472656 -19.128906 L 21.324219 -19.835938 L 21.25 -20.542969 L 20.207031 -22.476562 L 19.390625 -23.59375 L 16.933594 -25.304688 L 14.847656 -26.011719 L 13.398438 -26.3125 L 10.53125 -26.386719 L 9.714844 -26.164062 L 8.96875 -26.125 L 8.300781 -26.011719 L 6.886719 -25.566406 L 5.621094 -24.824219 L 3.832031 -23.59375 L 2.53125 -21.84375 L 1.859375 -19.796875 L 1.75 -17.976562 L 1.785156 -16.820312 L 2.046875 -15.332031 L 2.640625 -14.03125 L 4.019531 -12.316406 L 6.550781 -10.941406 L 7.890625 -10.496094 L 13.734375 -9.824219 L 15.070312 -9.191406 L 15.554688 -8.746094 L 15.78125 -7.816406 L 15.480469 -6.886719 L 14.996094 -6.328125 L 13.734375 -5.769531 L 12.578125 -5.695312 L 11.910156 -5.582031 L 10.011719 -5.769531 L 9.378906 -6.101562 L 8.746094 -6.511719 L 7.515625 -7.851562 L 6.773438 -8.148438 L 6.101562 -8.074219 L 5.394531 -8.1875 L 2.53125 -8.039062 L 1.859375 -7.742188 L 1.5625 -6.960938 L 1.675781 -6.214844 L 1.824219 -5.46875 L 2.046875 -4.800781 L 2.753906 -3.421875 L 3.273438 -2.941406 L 3.757812 -2.382812 L 5.0625 -1.5625 L 5.582031 -1.003906 L 6.289062 -0.667969 L 7.035156 -0.445312 L 8.484375 0.0742188 Z M 10.011719 0.335938 "/></g></g></g><g fill="#fdfdfd" fill-opacity="1"><g transform="translate(76.570504, 50.268233)"><g><path d="M 12.949219 0.296875 L 14.8125 0.445312 L 17.417969 0.261719 L 19.613281 -0.1875 L 20.28125 -0.558594 L 21.0625 -0.820312 L 21.695312 -1.117188 L 23.519531 -2.417969 L 24.5625 -3.460938 L 25.417969 -4.578125 L 26.199219 -5.917969 L 27.167969 -8.746094 L 26.945312 -9.414062 L 26.199219 -9.898438 L 24.117188 -9.75 L 23.371094 -9.863281 L 22.625 -9.824219 L 21.882812 -9.863281 L 21.027344 -9.414062 L 20.429688 -8.820312 L 20.058594 -8.113281 L 19.203125 -7.144531 L 18.609375 -6.625 L 18.050781 -6.402344 L 16.746094 -5.695312 L 14.773438 -5.582031 L 13.695312 -5.695312 L 12.355469 -6.179688 L 11.054688 -6.847656 L 9.972656 -7.816406 L 9.15625 -9.117188 L 8.894531 -9.863281 L 8.632812 -10.382812 L 8.449219 -11.054688 L 8.335938 -11.871094 L 8.335938 -14.140625 L 8.597656 -15.628906 L 9.15625 -16.96875 L 9.527344 -17.675781 L 10.421875 -18.71875 L 11.3125 -19.425781 L 12.316406 -19.984375 L 14.8125 -20.320312 L 16.410156 -20.246094 L 17.566406 -19.910156 L 18.234375 -19.648438 L 18.757812 -19.242188 L 19.835938 -18.160156 L 20.246094 -17.601562 L 20.953125 -16.894531 L 21.808594 -16.488281 L 22.476562 -16.5625 L 23.257812 -16.523438 L 24.003906 -16.5625 L 25.046875 -16.449219 L 26.164062 -16.5625 L 26.796875 -16.859375 L 27.054688 -17.601562 L 26.832031 -18.421875 L 26.570312 -19.089844 L 26.347656 -19.871094 L 25.9375 -20.46875 L 25.605469 -21.0625 L 25.082031 -21.695312 L 24.671875 -22.402344 L 23.632812 -23.484375 L 21.101562 -25.082031 L 17.527344 -26.273438 L 16.820312 -26.3125 L 16.078125 -26.421875 L 13.769531 -26.460938 L 10.160156 -25.753906 L 7.40625 -24.449219 L 6.328125 -23.632812 L 4.726562 -22.179688 L 3.722656 -20.914062 L 3.015625 -19.835938 L 2.085938 -17.75 L 1.710938 -16.226562 L 1.339844 -13.023438 L 1.5625 -10.308594 L 2.085938 -8.1875 L 3.683594 -4.949219 L 5.210938 -3.3125 L 6.886719 -1.859375 L 8.484375 -1.003906 L 10.160156 -0.296875 L 10.828125 -0.148438 L 11.574219 0.113281 L 12.242188 0.261719 Z M 12.949219 0.296875 "/></g></g></g><g fill="#fdfdfd" fill-opacity="1"><g transform="translate(104.964601, 50.268233)"><g><path d="M 21.957031 0.0742188 L 23.371094 -0.0390625 L 24.078125 0.0390625 L 25.230469 0 L 26.273438 -0.1875 L 26.386719 -1.078125 L 26.125 -1.933594 L 25.566406 -3.3125 L 24.5625 -5.246094 L 24.042969 -6.625 L 23.296875 -7.964844 L 21.882812 -11.351562 L 21.511719 -11.910156 L 21.136719 -12.617188 L 20.914062 -13.433594 L 20.582031 -13.992188 L 20.355469 -14.589844 L 19.574219 -15.964844 L 19.316406 -16.746094 L 16.859375 -21.917969 L 16.636719 -22.664062 L 16.226562 -23.335938 L 16.003906 -24.003906 L 15.296875 -25.304688 L 14.664062 -25.976562 L 13.433594 -26.347656 L 12.242188 -25.9375 L 11.574219 -25.304688 L 11.238281 -24.671875 L 10.980469 -23.929688 L 10.644531 -23.410156 L 9.15625 -19.984375 L 8.746094 -19.425781 L 8.558594 -18.683594 L 8.148438 -17.976562 L 7.925781 -17.304688 L 4.132812 -9.339844 L 3.90625 -8.523438 L 3.535156 -7.964844 L 3.273438 -7.21875 L 2.605469 -6.027344 L 2.046875 -4.539062 L 1.636719 -4.019531 L 1.453125 -3.347656 L 0.707031 -1.859375 L 0.484375 -1.117188 L 0.667969 -0.1875 L 1.414062 0.0390625 L 2.867188 -0.0390625 L 3.609375 0.0390625 L 5.695312 -0.0390625 L 6.550781 -0.296875 L 7.257812 -0.96875 L 7.925781 -2.195312 L 8.632812 -2.902344 L 9.414062 -3.3125 L 10.121094 -3.199219 L 11.6875 -3.347656 L 12.355469 -3.238281 L 16.003906 -3.273438 L 16.671875 -3.199219 L 17.492188 -3.3125 L 18.308594 -2.902344 L 19.015625 -2.308594 L 19.351562 -1.601562 L 19.574219 -0.929688 L 20.320312 -0.371094 L 21.175781 0 Z M 13.507812 -9.191406 L 12.765625 -9.339844 L 11.910156 -9.265625 L 11.3125 -9.527344 L 11.277344 -10.234375 L 13.023438 -14.253906 L 13.433594 -14.589844 L 13.957031 -14.289062 L 15.703125 -10.195312 L 15.554688 -9.527344 L 14.996094 -9.230469 Z M 13.507812 -9.191406 "/></g></g></g><g fill="#fdfdfd" fill-opacity="1"><g transform="translate(131.98179, 50.268233)"><g><path d="M 2.792969 -1.527344 L 3.164062 -0.371094 L 4.242188 0.113281 L 4.988281 0 L 6.179688 0.113281 L 6.773438 0.0390625 L 7.890625 0.0390625 L 9.082031 -0.335938 L 9.414062 -1.414062 L 9.414062 -2.679688 L 9.488281 -3.347656 L 9.378906 -4.132812 L 9.453125 -6.511719 L 9.789062 -7.257812 L 10.496094 -7.667969 L 12.652344 -7.367188 L 13.398438 -6.734375 L 13.84375 -5.992188 L 14.140625 -5.320312 L 14.921875 -4.207031 L 15.628906 -2.867188 L 16.039062 -2.308594 L 16.335938 -1.5625 L 16.746094 -0.929688 L 17.566406 -0.261719 L 18.832031 0.0742188 L 21.769531 0.0390625 L 22.476562 0.113281 L 23.707031 0.0742188 L 24.414062 -0.261719 L 24.636719 -1.078125 L 24.226562 -1.898438 L 23.78125 -2.417969 L 23.484375 -3.125 L 22.21875 -5.023438 L 21.882812 -5.695312 L 20.691406 -7.628906 L 20.246094 -8.1875 L 20.207031 -9.082031 L 20.542969 -9.898438 L 21.0625 -10.457031 L 21.585938 -10.902344 L 23.035156 -13.507812 L 23.519531 -15.667969 L 23.445312 -18.011719 L 23.335938 -18.757812 L 22.664062 -20.878906 L 22.367188 -21.511719 L 21.957031 -22.105469 L 19.835938 -24.339844 L 18.535156 -25.046875 L 17.117188 -25.53125 L 14.996094 -26.011719 L 13.808594 -26.050781 L 12.726562 -25.976562 L 10.496094 -25.976562 L 9.75 -26.125 L 9.007812 -26.125 L 8.335938 -25.9375 L 7.59375 -25.9375 L 6.847656 -26.089844 L 6.027344 -26.125 L 3.832031 -25.9375 L 3.164062 -25.566406 L 2.714844 -24.523438 L 2.753906 -16.003906 L 2.828125 -15.257812 L 2.714844 -13.769531 L 2.753906 -12.949219 L 2.753906 -12.207031 L 2.828125 -11.5 L 2.753906 -10.792969 L 2.714844 -7.777344 L 2.792969 -7.035156 Z M 10.496094 -13.621094 L 9.75 -14.03125 L 9.453125 -14.625 L 9.453125 -16.859375 L 9.378906 -17.492188 L 9.453125 -19.054688 L 9.789062 -19.761719 L 10.570312 -20.058594 L 11.3125 -20.023438 L 12.800781 -20.171875 L 13.84375 -19.949219 L 14.8125 -19.871094 L 15.519531 -19.6875 L 16.449219 -18.535156 L 16.671875 -17.9375 L 16.820312 -16.96875 L 16.710938 -15.855469 L 16.375 -15.109375 L 15.964844 -14.550781 L 15.554688 -14.214844 L 14.886719 -13.917969 L 13.808594 -13.65625 L 13.101562 -13.621094 L 11.3125 -13.695312 Z M 10.496094 -13.621094 "/></g></g></g><g fill="#fdfdfd" fill-opacity="1"><g transform="translate(157.808142, 50.268233)"><g><path d="M 9.714844 0.0742188 L 12.207031 0 L 13.285156 -0.371094 L 13.65625 -1.414062 L 13.769531 -3.347656 L 13.65625 -4.761719 L 13.734375 -5.546875 L 13.695312 -7.035156 L 13.769531 -7.703125 L 13.65625 -8.523438 L 13.734375 -14.515625 L 13.621094 -15.296875 L 13.734375 -18.535156 L 14.03125 -19.648438 L 14.738281 -20.097656 L 16.1875 -20.171875 L 17.566406 -19.984375 L 18.347656 -20.097656 L 19.015625 -20.058594 L 19.648438 -20.46875 L 20.097656 -21.289062 L 20.132812 -24.824219 L 19.722656 -25.566406 L 19.015625 -26.050781 L 16.710938 -26.050781 L 16.003906 -26.125 L 15.222656 -26.011719 L 14.515625 -26.089844 L 11.5 -25.9375 L 10.753906 -26.089844 L 10.046875 -26.125 L 9.265625 -26.011719 L 8.449219 -26.089844 L 7.777344 -25.9375 L 5.582031 -26.050781 L 4.429688 -25.9375 L 1.824219 -26.089844 L 1.117188 -25.714844 L 0.667969 -24.859375 L 0.707031 -24.117188 L 0.632812 -22.253906 L 0.707031 -21.101562 L 1.042969 -20.429688 L 1.710938 -20.058594 L 2.457031 -20.132812 L 5.992188 -20.058594 L 6.699219 -19.6875 L 7.109375 -18.941406 L 7.035156 -17.75 L 7.109375 -16.710938 L 7.070312 -15.890625 L 7.109375 -15.148438 L 7.035156 -14.105469 L 7.144531 -8.558594 L 7.070312 -7.816406 L 7.035156 -4.800781 L 7.109375 -4.019531 L 7.070312 -1.859375 L 6.996094 -1.152344 L 7.480469 -0.335938 L 8.558594 0.0390625 Z M 9.714844 0.0742188 "/></g></g></g></svg>