<svg xmlns="http://www.w3.org/2000/svg" xmlns:xlink="http://www.w3.org/1999/xlink" width="1200" zoomAndPan="magnify" viewBox="0 0 900 899.99999" height="1200" preserveAspectRatio="xMidYMid meet" version="1.0"><defs><g/></defs><g fill="#1eadff" fill-opacity="1"><g transform="translate(70.60547, 511.876625)"><g><path d="M 56.257812 -137.28125 L 15.359375 -137.28125 L 15.359375 0 L 56.257812 0 C 147.648438 0 147.648438 -137.28125 56.257812 -137.28125 Z M 56.257812 -109.824219 C 109.632812 -109.824219 109.632812 -27.457031 56.257812 -27.457031 L 42.816406 -27.457031 L 42.816406 -109.824219 Z M 56.257812 -109.824219 "/></g></g></g><g fill="#1eadff" fill-opacity="1"><g transform="translate(205.773485, 511.876625)"><g><path d="M 42.816406 0 L 42.816406 -137.28125 L 15.359375 -137.28125 L 15.359375 0 Z M 42.816406 0 "/></g></g><g transform="translate(264.141485, 511.876625)"><g><path d="M 9.023438 -8.832031 C 27.648438 0.769531 44.734375 1.726562 52.414062 1.152344 C 78.144531 -0.191406 93.886719 -17.664062 93.886719 -40.511719 C 93.886719 -62.398438 75.457031 -74.6875 54.144531 -82.558594 C 46.273438 -85.246094 39.550781 -88.703125 38.785156 -96.382812 C 38.207031 -104.0625 42.625 -111.167969 52.414062 -111.742188 C 56.640625 -111.9375 65.28125 -112.128906 80.449219 -105.984375 L 83.902344 -132.480469 C 66.238281 -138.625 56.832031 -138.625 49.726562 -138.238281 C 26.878906 -137.089844 10.945312 -119.425781 10.945312 -96.382812 C 10.945312 -73.34375 30.144531 -62.398438 51.648438 -54.527344 C 59.328125 -51.839844 65.28125 -48.382812 65.855469 -40.511719 C 66.625 -33.023438 59.710938 -27.265625 51.648438 -26.6875 C 45.3125 -26.113281 28.222656 -26.496094 12.480469 -37.632812 Z M 9.023438 -8.832031 "/></g></g></g><g fill="#ffffff" fill-opacity="1"><g transform="translate(365.707021, 511.876625)"><g><path d="M 102.71875 -105.40625 L 105.984375 -133.632812 C 97.726562 -137.28125 88.511719 -139.007812 78.910156 -139.007812 C -14.015625 -139.007812 -14.207031 0.382812 78.910156 0.382812 C 88.511719 0.382812 100.609375 -1.921875 109.054688 -5.375 L 105.40625 -33.792969 C 100.222656 -31.105469 90.816406 -27.648438 78.910156 -27.648438 C 24.574219 -27.648438 24.574219 -111.359375 78.910156 -111.359375 C 90.816406 -111.359375 97.535156 -108.097656 102.71875 -105.40625 Z M 102.71875 -105.40625 "/></g></g></g><g fill="#ffffff" fill-opacity="1"><g transform="translate(481.291037, 511.876625)"><g><path d="M 3.070312 0 L 34.175781 0 L 39.550781 -14.785156 L 85.054688 -14.785156 L 90.625 0 L 121.535156 0 L 63.742188 -142.273438 L 60.863281 -142.273438 Z M 49.535156 -40.511719 L 62.398438 -76.222656 L 74.878906 -40.511719 Z M 49.535156 -40.511719 "/></g></g></g><g fill="#ffffff" fill-opacity="1"><g transform="translate(606.667053, 511.876625)"><g><path d="M 83.710938 0 L 114.816406 0 L 82.945312 -56.640625 C 123.265625 -68.351562 118.464844 -137.28125 69.503906 -137.28125 L 15.359375 -137.28125 L 15.359375 0 L 42.816406 0 L 42.816406 -52.414062 L 56.0625 -52.414062 Z M 42.816406 -79.105469 L 42.816406 -109.824219 L 67.007812 -109.824219 C 85.632812 -109.824219 85.632812 -79.105469 67.007812 -79.105469 Z M 42.816406 -79.105469 "/></g></g><g transform="translate(724.363053, 511.876625)"><g><path d="M 65.472656 0 L 65.472656 -109.824219 L 99.648438 -109.824219 L 99.648438 -137.089844 L 3.839844 -137.089844 L 3.839844 -109.824219 L 38.015625 -109.824219 L 38.015625 0 Z M 65.472656 0 "/></g></g></g></svg>