<svg xmlns="http://www.w3.org/2000/svg" xmlns:xlink="http://www.w3.org/1999/xlink" width="500" zoomAndPan="magnify" viewBox="0 0 375 374.999991" height="500" preserveAspectRatio="xMidYMid meet" version="1.0"><defs><g/></defs><g fill="#1eadff" fill-opacity="1"><g transform="translate(19.185835, 208.263011)"><g><path d="M 24.957031 -60.902344 L 6.8125 -60.902344 L 6.8125 0 L 24.957031 0 C 65.503906 0 65.503906 -60.902344 24.957031 -60.902344 Z M 24.957031 -48.722656 C 48.636719 -48.722656 48.636719 -12.179688 24.957031 -12.179688 L 18.996094 -12.179688 L 18.996094 -48.722656 Z M 24.957031 -48.722656 "/></g></g></g><g fill="#1eadff" fill-opacity="1"><g transform="translate(79.151391, 208.263011)"><g><path d="M 18.996094 0 L 18.996094 -60.902344 L 6.8125 -60.902344 L 6.8125 0 Z M 18.996094 0 "/></g></g></g><g fill="#1eadff" fill-opacity="1"><g transform="translate(105.045606, 208.263011)"><g><path d="M 4.003906 -3.917969 C 12.265625 0.339844 19.847656 0.765625 23.253906 0.511719 C 34.667969 -0.0859375 41.652344 -7.835938 41.652344 -17.972656 C 41.652344 -27.683594 33.476562 -33.136719 24.019531 -36.628906 C 20.527344 -37.820312 17.546875 -39.351562 17.207031 -42.761719 C 16.949219 -46.167969 18.910156 -49.320312 23.253906 -49.574219 C 25.128906 -49.660156 28.960938 -49.746094 35.691406 -47.019531 L 37.222656 -58.773438 C 29.386719 -61.5 25.214844 -61.5 22.0625 -61.328125 C 11.925781 -60.816406 4.855469 -52.980469 4.855469 -42.761719 C 4.855469 -32.539062 13.375 -27.683594 22.914062 -24.191406 C 26.320312 -23 28.960938 -21.464844 29.214844 -17.972656 C 29.558594 -14.652344 26.492188 -12.09375 22.914062 -11.839844 C 20.101562 -11.585938 12.519531 -11.753906 5.535156 -16.695312 Z M 4.003906 -3.917969 "/></g></g></g><g fill="#ffffff" fill-opacity="1"><g transform="translate(150.102678, 208.263011)"><g><path d="M 45.570312 -46.761719 L 47.019531 -59.285156 C 43.355469 -60.902344 39.269531 -61.671875 35.007812 -61.671875 C -6.21875 -61.671875 -6.304688 0.171875 35.007812 0.171875 C 39.269531 0.171875 44.632812 -0.851562 48.382812 -2.386719 L 46.761719 -14.992188 C 44.464844 -13.800781 40.289062 -12.265625 35.007812 -12.265625 C 10.902344 -12.265625 10.902344 -49.402344 35.007812 -49.402344 C 40.289062 -49.402344 43.269531 -47.957031 45.570312 -46.761719 Z M 45.570312 -46.761719 "/></g></g></g><g fill="#ffffff" fill-opacity="1"><g transform="translate(201.380045, 208.263011)"><g><path d="M 1.363281 0 L 15.160156 0 L 17.546875 -6.558594 L 37.734375 -6.558594 L 40.203125 0 L 53.917969 0 L 28.28125 -63.117188 L 27 -63.117188 Z M 21.976562 -17.972656 L 27.683594 -33.816406 L 33.21875 -17.972656 Z M 21.976562 -17.972656 "/></g></g></g><g fill="#ffffff" fill-opacity="1"><g transform="translate(257.001502, 208.263011)"><g><path d="M 37.136719 0 L 50.9375 0 L 36.796875 -25.128906 C 54.683594 -30.324219 52.554688 -60.902344 30.835938 -60.902344 L 6.8125 -60.902344 L 6.8125 0 L 18.996094 0 L 18.996094 -23.253906 L 24.871094 -23.253906 Z M 18.996094 -35.09375 L 18.996094 -48.722656 L 29.726562 -48.722656 C 37.988281 -48.722656 37.988281 -35.09375 29.726562 -35.09375 Z M 18.996094 -35.09375 "/></g></g></g><g fill="#ffffff" fill-opacity="1"><g transform="translate(309.215823, 208.263011)"><g><path d="M 29.046875 0 L 29.046875 -48.722656 L 44.207031 -48.722656 L 44.207031 -60.816406 L 1.703125 -60.816406 L 1.703125 -48.722656 L 16.867188 -48.722656 L 16.867188 0 Z M 29.046875 0 "/></g></g></g></svg>