<svg xmlns="http://www.w3.org/2000/svg" xmlns:xlink="http://www.w3.org/1999/xlink" width="250" zoomAndPan="magnify" viewBox="0 0 187.5 74.999997" height="100" preserveAspectRatio="xMidYMid meet" version="1.0"><defs><g/><clipPath id="14455be5da"><path d="M 68 14 L 187 14 L 187 61 L 68 61 Z M 68 14 " clip-rule="nonzero"/></clipPath></defs><path stroke-linecap="butt" transform="matrix(0.429441, 0, 0, 0.429441, 8.26258, 11.618564)" fill="none" stroke-linejoin="miter" d="M 28.141426 90.257714 L 30.715632 90.257714 L 33.408087 89.912061 L 35.145448 89.912061 L 37.65598 89.129793 L 41.212568 88.520353 L 45.296731 86.782991 L 51.090967 82.889847 L 55.347957 77.432168 L 56.21209 75.694806 L 57.249049 74.32129 L 58.622565 70.937529 L 59.068275 69.291129 L 59.404832 67.471903 L 59.941504 65.989233 L 60.1871 64.251872 L 60.1871 62.432646 L 60.441791 59.658326 L 60.359926 57.165985 L 59.15014 50.307502 L 58.031316 47.005606 L 57.330914 45.377398 L 54.392863 40.765659 L 49.799317 35.671825 L 45.378597 32.724679 L 43.732197 31.751392 L 41.994835 31.414836 L 40.512166 30.714433 L 38.692939 30.296011 L 33.599106 29.513744 L 13.833211 29.340917 L 12.268676 29.595609 L 10.531315 29.513744 L 8.630223 30.296011 L 7.847956 32.115238 L 7.76609 80.561237 L 7.929821 82.189445 L 7.929821 86.619261 L 8.80305 89.30262 L 10.531315 90.166753 L 12.268676 90.003022 L 22.847477 90.166753 L 24.584839 89.912061 Z M 27.859446 76.058652 L 26.213046 75.867633 L 24.220993 74.912539 L 23.529687 73.266139 L 23.438726 71.801662 L 23.529687 68.25417 L 23.184034 63.997181 L 23.529687 59.658326 L 23.356861 47.706008 L 23.529687 46.250627 L 24.39382 44.240382 L 27.186332 43.640037 L 30.824785 43.558172 L 33.317125 43.812864 L 36.709983 44.767957 L 38.274517 45.550225 L 39.566168 46.496222 L 40.876011 47.706008 L 42.167662 49.270543 L 43.031794 50.753212 L 43.814062 52.299555 L 45.187578 59.93121 L 44.341637 65.989233 L 42.858968 69.200168 L 39.648033 72.838621 L 36.709983 74.748809 L 34.190354 75.531076 L 30.46094 75.949498 Z M 93.460751 90.339579 L 96.935473 90.166753 L 98.500008 89.30262 L 99.36414 87.647124 L 99.36414 79.078568 L 98.327181 77.432168 L 96.407897 76.477074 L 94.588671 76.477074 L 92.514753 75.785768 L 91.477794 73.793715 L 91.732486 72.147315 L 91.641524 62.623665 L 91.814351 60.722573 L 91.477794 54.47353 L 91.814351 45.713955 L 92.423792 43.730998 L 94.333979 42.948731 L 96.062244 42.694039 L 97.890567 41.993637 L 98.754699 40.601929 L 98.836565 32.033373 L 97.799606 30.377876 L 96.235071 29.422783 L 85.765423 29.422783 L 84.200888 29.259052 L 82.463527 29.595609 L 75.350352 29.595609 L 73.703952 29.340917 L 71.711899 29.340917 L 69.983634 30.214146 L 69.110405 32.278968 L 69.365097 38.691741 L 69.201366 40.347237 L 70.147364 42.075502 L 72.057552 43.030596 L 73.785817 43.030596 L 75.441313 44.067555 L 76.22358 46.414357 L 76.478272 73.011447 L 75.523178 75.612941 L 69.810807 77.350302 L 68.855713 78.914837 L 68.601022 86.892145 L 69.47425 89.220755 L 71.184323 90.003022 L 72.839819 90.003022 L 74.486219 89.830196 L 77.005848 90.166753 L 79.689207 90.084887 L 81.426568 89.912061 L 84.892194 90.257714 L 87.493688 89.912061 L 91.732486 89.912061 Z M 127.098247 90.78529 L 133.929442 90.94902 L 135.666803 90.78529 L 137.395069 90.339579 L 139.13243 90.084887 L 140.869791 89.384485 L 142.434326 89.220755 L 144.080726 88.438487 L 149.965923 84.8819 L 152.485552 82.280406 L 153.349684 81.07062 L 154.304778 79.169529 L 154.832354 77.604994 L 155.341737 76.140517 L 155.869313 71.801662 L 155.678294 69.036438 L 154.386643 63.997181 L 153.431549 62.623665 L 151.193901 60.022171 L 149.629366 58.621367 L 148.228562 57.93006 L 146.682219 56.974967 L 139.914697 54.901049 L 138.177336 54.646357 L 136.449071 54.564492 L 134.629844 54.200646 L 132.110216 54.200646 L 127.516669 53.245552 L 124.323927 51.708306 L 123.014084 50.480328 L 122.668431 47.878835 L 123.095949 45.550225 L 124.1511 44.431401 L 125.442751 43.458114 L 126.843555 42.694039 L 128.380802 42.330194 L 131.155122 42.248329 L 133.929442 42.584886 L 135.493977 43.030596 L 137.058512 44.067555 L 138.522989 45.277341 L 139.832832 47.005606 L 141.733923 48.151719 L 145.818087 47.787873 L 148.146697 47.9607 L 149.884058 47.9607 L 151.448593 48.151719 L 153.094992 46.923741 L 153.777202 45.46836 L 153.431549 43.812864 L 153.267819 42.166464 L 150.830056 37.654782 L 148.928964 35.053288 L 143.216593 31.078279 L 138.350162 29.422783 L 134.984594 28.731477 L 128.298936 28.55865 L 126.397845 29.086226 L 124.660484 29.177187 L 123.095949 29.422783 L 119.812245 30.459742 L 116.856002 32.197103 L 112.708166 35.053288 L 109.679154 39.137452 L 108.114619 43.894729 L 107.859928 48.151719 L 107.950889 50.835077 L 108.542138 54.282512 L 109.933846 57.329716 L 113.126588 61.313822 L 119.029978 64.524756 L 122.140855 65.561715 L 135.748669 67.12625 L 138.877738 68.590727 L 139.996562 69.627686 L 140.533234 71.801662 L 139.832832 73.966541 L 138.704912 75.276384 L 135.748669 76.568035 L 133.056214 76.731765 L 131.518967 77.013746 L 127.098247 76.568035 L 125.615577 75.785768 L 124.1511 74.830674 L 121.276722 71.719797 L 119.539361 71.019395 L 117.993019 71.192221 L 116.346619 70.937529 L 109.679154 71.274086 L 108.114619 71.974488 L 107.414217 73.793715 L 107.668909 75.531076 L 108.032754 77.259341 L 108.542138 78.832972 L 110.188538 82.025714 L 111.398323 83.144539 L 112.53534 84.454382 L 115.564352 86.364569 L 116.765041 87.647124 L 118.420537 88.438487 L 120.157898 88.966063 L 123.541659 90.166753 Z M 127.098247 90.78529 " stroke="#000000" stroke-width="3.899992" stroke-opacity="1" stroke-miterlimit="4"/><g clip-path="url(#14455be5da)"><path stroke-linecap="butt" transform="matrix(0.429441, 0, 0, 0.429441, 8.26258, 11.618564)" fill="none" stroke-linejoin="miter" d="M 189.215733 90.694328 L 193.545492 91.039981 L 199.621708 90.612463 L 204.74283 89.575504 L 206.289173 88.711371 L 208.108399 88.092834 L 209.581973 87.401528 L 213.838962 84.372516 L 216.249437 81.934753 L 218.259683 79.333259 L 220.078909 76.222382 L 222.325654 69.627686 L 221.798078 68.081344 L 220.078909 66.935231 L 215.212478 67.299077 L 213.475117 67.044385 L 211.746852 67.12625 L 210.009491 67.044385 L 208.017438 68.081344 L 206.643922 69.45486 L 205.779789 71.110356 L 203.787736 73.366197 L 202.396028 74.575982 L 201.104377 75.085366 L 198.057173 76.731765 L 193.463627 77.013746 L 190.943998 76.731765 L 187.833121 75.612941 L 184.813205 74.048407 L 182.293576 71.801662 L 180.392485 68.754458 L 179.773948 67.044385 L 179.164507 65.816407 L 178.736989 64.251872 L 178.482297 62.350781 L 178.482297 57.075024 L 179.073546 53.609398 L 180.392485 50.480328 L 181.256617 48.824832 L 183.330535 46.414357 L 185.404454 44.767957 L 187.751256 43.458114 L 193.545492 42.694039 L 197.274906 42.85777 L 199.958265 43.640037 L 201.5228 44.240382 L 202.732585 45.186379 L 205.252214 47.706008 L 206.198211 49.015851 L 207.853707 50.644059 L 209.836664 51.599153 L 211.401199 51.426326 L 213.229522 51.517287 L 214.957787 51.426326 L 217.39555 51.708306 L 219.969755 51.426326 L 221.452425 50.753212 L 222.070962 49.015851 L 221.543386 47.096567 L 220.943042 45.550225 L 220.415466 43.730998 L 219.469468 42.330194 L 218.687201 40.956678 L 217.477415 39.474009 L 216.522321 37.827609 L 214.093654 35.30798 L 208.190264 31.587662 L 199.8764 28.813342 L 198.220904 28.731477 L 196.492639 28.476785 L 191.135017 28.385824 L 182.711998 30.04132 L 176.308321 33.070332 L 173.788693 34.971423 L 170.068375 38.355184 L 167.739765 41.293235 L 166.084269 43.812864 L 163.910293 48.661102 L 163.037065 52.21769 L 162.172932 59.658326 L 162.700508 65.989233 L 163.910293 70.937529 L 167.648804 78.469127 L 171.187199 82.280406 L 175.098536 85.664167 L 178.818854 87.647124 L 182.711998 89.30262 L 184.285629 89.657369 L 186.013894 90.257714 L 187.578429 90.612463 Z M 276.320294 90.166753 L 279.594901 89.912061 L 281.250397 90.084887 L 283.933756 90.003022 L 286.371519 89.575504 L 286.626211 87.483394 L 286.007674 85.491341 L 284.716023 82.280406 L 282.369221 77.768725 L 281.159436 74.575982 L 279.431171 71.446913 L 276.129275 63.578758 L 275.256046 62.259819 L 274.410106 60.613419 L 273.88253 58.712328 L 273.100263 57.420677 L 272.590879 56.019873 L 270.753461 52.82713 L 270.162212 51.007904 L 264.431649 38.946433 L 263.922266 37.23636 L 262.967172 35.671825 L 262.439596 34.098194 L 260.793196 31.078279 L 259.328719 29.513744 L 256.472533 28.640515 L 253.698213 29.595609 L 252.133678 31.078279 L 251.351411 32.53366 L 250.74197 34.271021 L 249.959703 35.498999 L 246.512269 43.458114 L 245.557175 44.767957 L 245.111464 46.496222 L 244.156371 48.151719 L 243.628795 49.698061 L 234.805547 68.25417 L 234.277971 70.155262 L 233.413839 71.446913 L 232.795302 73.184274 L 231.248959 75.949498 L 229.939116 79.424221 L 228.993118 80.652198 L 228.5656 82.189445 L 226.828239 85.664167 L 226.300663 87.401528 L 226.746374 89.575504 L 228.483735 90.084887 L 231.849304 89.912061 L 233.577569 90.084887 L 238.444 89.912061 L 240.436053 89.30262 L 242.082452 87.756278 L 243.628795 84.8819 L 245.284291 83.253692 L 247.103517 82.280406 L 248.749917 82.55329 L 252.38837 82.189445 L 253.952905 82.471425 L 262.439596 82.380463 L 264.004131 82.55329 L 265.905222 82.280406 L 267.81541 83.253692 L 269.46181 84.627208 L 270.244077 86.273608 L 270.753461 87.838143 L 272.490822 89.129793 L 274.501067 90.003022 Z M 256.64536 68.590727 L 254.907999 68.25417 L 252.915946 68.417901 L 251.524238 67.80846 L 251.433276 66.180252 L 255.517439 56.80214 L 256.472533 56.019873 L 257.682319 56.720275 L 261.766482 66.262117 L 261.402637 67.80846 L 260.110986 68.499766 Z M 294.585327 86.446435 L 295.458555 89.129793 L 297.978184 90.257714 L 299.706449 90.003022 L 302.480769 90.257714 L 303.854285 90.084887 L 306.455779 90.084887 L 309.230099 89.220755 L 310.012367 86.701126 L 310.012367 83.763076 L 310.185193 82.189445 L 309.930501 80.370218 L 310.094232 74.830674 L 310.876499 73.093313 L 312.531995 72.147315 L 317.562156 72.838621 L 319.299518 74.32129 L 320.336477 76.058652 L 321.018686 77.604994 L 322.837913 80.206488 L 324.484313 83.335557 L 325.439407 84.627208 L 326.130713 86.364569 L 327.085807 87.838143 L 328.986898 89.384485 L 331.952237 90.166753 L 338.783432 90.084887 L 340.438928 90.257714 L 343.295114 90.166753 L 344.941514 89.384485 L 345.469089 87.483394 L 344.495803 85.582302 L 343.458844 84.372516 L 342.785731 82.726116 L 339.820391 78.2963 L 339.038124 76.731765 L 336.2729 72.22918 L 335.235941 70.937529 L 335.14498 68.863611 L 335.927247 66.935231 L 337.137032 65.64358 L 338.36501 64.615718 L 341.730579 58.539501 L 342.867596 53.527533 L 342.676577 48.069853 L 342.421885 46.332492 L 340.857351 41.384196 L 340.184237 39.919719 L 339.229143 38.528011 L 334.280847 33.315927 L 331.251835 31.669527 L 327.949939 30.550703 L 323.019836 29.422783 L 320.254611 29.340917 L 317.734983 29.513744 L 312.531995 29.513744 L 310.794634 29.177187 L 309.057273 29.177187 L 307.520026 29.595609 L 305.782665 29.595609 L 304.045304 29.259052 L 302.144212 29.177187 L 297.02309 29.595609 L 295.458555 30.459742 L 294.421596 32.897505 L 294.503462 52.745265 L 294.676288 54.47353 L 294.421596 57.93006 L 294.503462 59.849344 L 294.503462 61.586706 L 294.676288 63.214913 L 294.503462 64.861313 L 294.421596 71.892623 L 294.585327 73.620888 Z M 312.531995 58.28481 L 310.794634 57.329716 L 310.094232 55.938008 L 310.094232 50.753212 L 309.930501 49.270543 L 310.094232 45.63209 L 310.876499 43.98569 L 312.695726 43.285288 L 314.433087 43.367153 L 317.907809 43.030596 L 320.336477 43.558172 L 322.583221 43.730998 L 324.229621 44.14942 L 326.385404 46.841876 L 326.91298 48.233584 L 327.258633 50.480328 L 327.003941 53.081822 L 326.221674 54.819183 L 325.26658 56.101738 L 324.311486 56.893101 L 322.746952 57.584407 L 320.254611 58.202944 L 318.599115 58.28481 L 314.433087 58.111983 Z M 370.847298 90.166753 L 376.65063 90.003022 L 379.161163 89.129793 L 380.034391 86.701126 L 380.307275 82.189445 L 380.034391 78.914837 L 380.198122 77.095611 L 380.116257 73.620888 L 380.307275 72.056354 L 380.034391 70.155262 L 380.198122 56.210892 L 379.94343 54.391665 L 380.198122 46.841876 L 380.898524 44.240382 L 382.55402 43.203423 L 385.937781 43.030596 L 389.130523 43.458114 L 390.94975 43.203423 L 392.514285 43.285288 L 393.996954 42.330194 L 395.033913 40.429102 L 395.115778 32.197103 L 394.169781 30.459742 L 392.514285 29.340917 L 387.13847 29.340917 L 385.492071 29.177187 L 383.672844 29.422783 L 382.017348 29.259052 L 375.022423 29.595609 L 373.285061 29.259052 L 371.629565 29.177187 L 369.810339 29.422783 L 367.909247 29.259052 L 366.344713 29.595609 L 361.22359 29.340917 L 358.540231 29.595609 L 352.482207 29.259052 L 350.835807 30.123185 L 349.798848 32.115238 L 349.880714 33.852599 L 349.716983 38.182358 L 349.880714 40.874813 L 350.662981 42.421155 L 352.209323 43.285288 L 353.946685 43.112461 L 362.178684 43.285288 L 363.825084 44.14942 L 364.780178 45.886782 L 364.607351 48.661102 L 364.780178 51.089769 L 364.689217 52.999957 L 364.780178 54.728222 L 364.607351 57.165985 L 364.862043 70.073397 L 364.689217 71.801662 L 364.607351 78.832972 L 364.780178 80.652198 L 364.689217 85.664167 L 364.525486 87.310567 L 365.64431 89.220755 L 368.163939 90.084887 Z M 370.847298 90.166753 " stroke="#000000" stroke-width="3.899992" stroke-opacity="1" stroke-miterlimit="4"/></g><g fill="#08adc6" fill-opacity="1"><g transform="translate(8.879901, 50.268233)"><g><path d="M 11.460938 0.113281 L 12.578125 0.113281 L 13.734375 -0.0390625 L 14.476562 -0.0390625 L 15.554688 -0.371094 L 17.082031 -0.632812 L 18.832031 -1.378906 L 21.324219 -3.050781 L 23.148438 -5.394531 L 23.519531 -6.140625 L 23.964844 -6.734375 L 24.5625 -8.1875 L 24.75 -8.894531 L 24.898438 -9.675781 L 25.121094 -10.308594 L 25.230469 -11.054688 L 25.230469 -11.835938 L 25.34375 -13.023438 L 25.304688 -14.105469 L 24.785156 -17.042969 L 24.300781 -18.457031 L 24.003906 -19.164062 L 22.738281 -21.136719 L 20.765625 -23.335938 L 18.867188 -24.597656 L 18.160156 -25.007812 L 17.417969 -25.15625 L 16.785156 -25.457031 L 16.003906 -25.640625 L 13.808594 -25.976562 L 5.320312 -26.050781 L 4.652344 -25.9375 L 3.90625 -25.976562 L 3.089844 -25.640625 L 2.753906 -24.859375 L 2.714844 -4.054688 L 2.792969 -3.347656 L 2.792969 -1.453125 L 3.164062 -0.296875 L 3.90625 0.0742188 L 4.652344 0 L 9.191406 0.0742188 L 9.9375 -0.0390625 Z M 11.351562 -5.992188 L 10.644531 -6.066406 L 9.789062 -6.476562 L 9.488281 -7.183594 L 9.453125 -7.816406 L 9.488281 -9.339844 L 9.339844 -11.164062 L 9.488281 -13.023438 L 9.414062 -18.160156 L 9.488281 -18.792969 L 9.863281 -19.648438 L 11.054688 -19.910156 L 12.617188 -19.949219 L 13.695312 -19.835938 L 15.148438 -19.425781 L 15.816406 -19.089844 L 16.375 -18.683594 L 16.933594 -18.160156 L 17.492188 -17.492188 L 17.863281 -16.859375 L 18.199219 -16.1875 L 18.792969 -12.914062 L 18.421875 -10.308594 L 17.789062 -8.933594 L 16.410156 -7.367188 L 15.148438 -6.550781 L 14.066406 -6.214844 L 12.46875 -6.027344 Z M 11.351562 -5.992188 "/></g></g></g><g fill="#08adc6" fill-opacity="1"><g transform="translate(35.93431, 50.268233)"><g><path d="M 12.46875 0.148438 L 13.957031 0.0742188 L 14.625 -0.296875 L 14.996094 -1.003906 L 14.996094 -4.6875 L 14.550781 -5.394531 L 13.734375 -5.804688 L 12.949219 -5.804688 L 12.058594 -6.101562 L 11.609375 -6.960938 L 11.722656 -7.667969 L 11.6875 -11.761719 L 11.761719 -12.578125 L 11.609375 -15.257812 L 11.761719 -19.015625 L 12.019531 -19.871094 L 12.839844 -20.207031 L 13.582031 -20.320312 L 14.363281 -20.617188 L 14.738281 -21.210938 L 14.773438 -24.898438 L 14.328125 -25.605469 L 13.65625 -26.011719 L 9.15625 -26.011719 L 8.484375 -26.089844 L 7.742188 -25.9375 L 4.6875 -25.9375 L 3.980469 -26.050781 L 3.125 -26.050781 L 2.382812 -25.679688 L 2.007812 -24.785156 L 2.121094 -22.03125 L 2.046875 -21.324219 L 2.457031 -20.582031 L 3.273438 -20.171875 L 4.019531 -20.171875 L 4.726562 -19.722656 L 5.0625 -18.71875 L 5.171875 -7.292969 L 4.761719 -6.179688 L 2.308594 -5.433594 L 1.898438 -4.761719 L 1.785156 -1.339844 L 2.160156 -0.335938 L 2.902344 0 L 3.609375 0 L 4.316406 -0.0742188 L 5.394531 0.0742188 L 6.550781 0.0390625 L 7.292969 -0.0390625 L 8.78125 0.113281 L 9.898438 -0.0390625 L 11.722656 -0.0390625 Z M 12.46875 0.148438 "/></g></g></g><g fill="#08adc6" fill-opacity="1"><g transform="translate(52.82936, 50.268233)"><g><path d="M 10.011719 0.335938 L 12.949219 0.410156 L 13.695312 0.335938 L 14.441406 0.148438 L 15.183594 0.0390625 L 15.929688 -0.261719 L 16.597656 -0.335938 L 17.304688 -0.667969 L 19.835938 -2.195312 L 20.914062 -3.3125 L 21.289062 -3.832031 L 21.695312 -4.652344 L 21.917969 -5.320312 L 22.144531 -5.953125 L 22.367188 -7.816406 L 22.292969 -9.007812 L 21.734375 -11.164062 L 21.324219 -11.761719 L 20.355469 -12.875 L 19.6875 -13.472656 L 19.089844 -13.769531 L 18.421875 -14.179688 L 15.519531 -15.070312 L 14.773438 -15.183594 L 14.03125 -15.222656 L 13.25 -15.371094 L 12.167969 -15.371094 L 10.195312 -15.78125 L 8.820312 -16.449219 L 8.261719 -16.96875 L 8.113281 -18.085938 L 8.300781 -19.089844 L 8.746094 -19.574219 L 9.304688 -19.984375 L 9.898438 -20.320312 L 10.570312 -20.46875 L 11.761719 -20.503906 L 12.949219 -20.355469 L 13.621094 -20.171875 L 14.289062 -19.722656 L 14.921875 -19.203125 L 15.480469 -18.457031 L 16.300781 -17.976562 L 18.050781 -18.125 L 19.054688 -18.050781 L 19.796875 -18.050781 L 20.46875 -17.976562 L 21.175781 -18.496094 L 21.472656 -19.128906 L 21.324219 -19.835938 L 21.25 -20.542969 L 20.207031 -22.476562 L 19.390625 -23.59375 L 16.933594 -25.304688 L 14.847656 -26.011719 L 13.398438 -26.3125 L 10.53125 -26.386719 L 9.714844 -26.164062 L 8.96875 -26.125 L 8.300781 -26.011719 L 6.886719 -25.566406 L 5.621094 -24.824219 L 3.832031 -23.59375 L 2.53125 -21.84375 L 1.859375 -19.796875 L 1.75 -17.976562 L 1.785156 -16.820312 L 2.046875 -15.332031 L 2.640625 -14.03125 L 4.019531 -12.316406 L 6.550781 -10.941406 L 7.890625 -10.496094 L 13.734375 -9.824219 L 15.070312 -9.191406 L 15.554688 -8.746094 L 15.78125 -7.816406 L 15.480469 -6.886719 L 14.996094 -6.328125 L 13.734375 -5.769531 L 12.578125 -5.695312 L 11.910156 -5.582031 L 10.011719 -5.769531 L 9.378906 -6.101562 L 8.746094 -6.511719 L 7.515625 -7.851562 L 6.773438 -8.148438 L 6.101562 -8.074219 L 5.394531 -8.1875 L 2.53125 -8.039062 L 1.859375 -7.742188 L 1.5625 -6.960938 L 1.675781 -6.214844 L 1.824219 -5.46875 L 2.046875 -4.800781 L 2.753906 -3.421875 L 3.273438 -2.941406 L 3.757812 -2.382812 L 5.0625 -1.5625 L 5.582031 -1.003906 L 6.289062 -0.667969 L 7.035156 -0.445312 L 8.484375 0.0742188 Z M 10.011719 0.335938 "/></g></g></g><g fill="#fdfdfd" fill-opacity="1"><g transform="translate(76.570504, 50.268233)"><g><path d="M 12.949219 0.296875 L 14.8125 0.445312 L 17.417969 0.261719 L 19.613281 -0.1875 L 20.28125 -0.558594 L 21.0625 -0.820312 L 21.695312 -1.117188 L 23.519531 -2.417969 L 24.5625 -3.460938 L 25.417969 -4.578125 L 26.199219 -5.917969 L 27.167969 -8.746094 L 26.945312 -9.414062 L 26.199219 -9.898438 L 24.117188 -9.75 L 23.371094 -9.863281 L 22.625 -9.824219 L 21.882812 -9.863281 L 21.027344 -9.414062 L 20.429688 -8.820312 L 20.058594 -8.113281 L 19.203125 -7.144531 L 18.609375 -6.625 L 18.050781 -6.402344 L 16.746094 -5.695312 L 14.773438 -5.582031 L 13.695312 -5.695312 L 12.355469 -6.179688 L 11.054688 -6.847656 L 9.972656 -7.816406 L 9.15625 -9.117188 L 8.894531 -9.863281 L 8.632812 -10.382812 L 8.449219 -11.054688 L 8.335938 -11.871094 L 8.335938 -14.140625 L 8.597656 -15.628906 L 9.15625 -16.96875 L 9.527344 -17.675781 L 10.421875 -18.71875 L 11.3125 -19.425781 L 12.316406 -19.984375 L 14.8125 -20.320312 L 16.410156 -20.246094 L 17.566406 -19.910156 L 18.234375 -19.648438 L 18.757812 -19.242188 L 19.835938 -18.160156 L 20.246094 -17.601562 L 20.953125 -16.894531 L 21.808594 -16.488281 L 22.476562 -16.5625 L 23.257812 -16.523438 L 24.003906 -16.5625 L 25.046875 -16.449219 L 26.164062 -16.5625 L 26.796875 -16.859375 L 27.054688 -17.601562 L 26.832031 -18.421875 L 26.570312 -19.089844 L 26.347656 -19.871094 L 25.9375 -20.46875 L 25.605469 -21.0625 L 25.082031 -21.695312 L 24.671875 -22.402344 L 23.632812 -23.484375 L 21.101562 -25.082031 L 17.527344 -26.273438 L 16.820312 -26.3125 L 16.078125 -26.421875 L 13.769531 -26.460938 L 10.160156 -25.753906 L 7.40625 -24.449219 L 6.328125 -23.632812 L 4.726562 -22.179688 L 3.722656 -20.914062 L 3.015625 -19.835938 L 2.085938 -17.75 L 1.710938 -16.226562 L 1.339844 -13.023438 L 1.5625 -10.308594 L 2.085938 -8.1875 L 3.683594 -4.949219 L 5.210938 -3.3125 L 6.886719 -1.859375 L 8.484375 -1.003906 L 10.160156 -0.296875 L 10.828125 -0.148438 L 11.574219 0.113281 L 12.242188 0.261719 Z M 12.949219 0.296875 "/></g></g></g><g fill="#fdfdfd" fill-opacity="1"><g transform="translate(104.964601, 50.268233)"><g><path d="M 21.957031 0.0742188 L 23.371094 -0.0390625 L 24.078125 0.0390625 L 25.230469 0 L 26.273438 -0.1875 L 26.386719 -1.078125 L 26.125 -1.933594 L 25.566406 -3.3125 L 24.5625 -5.246094 L 24.042969 -6.625 L 23.296875 -7.964844 L 21.882812 -11.351562 L 21.511719 -11.910156 L 21.136719 -12.617188 L 20.914062 -13.433594 L 20.582031 -13.992188 L 20.355469 -14.589844 L 19.574219 -15.964844 L 19.316406 -16.746094 L 16.859375 -21.917969 L 16.636719 -22.664062 L 16.226562 -23.335938 L 16.003906 -24.003906 L 15.296875 -25.304688 L 14.664062 -25.976562 L 13.433594 -26.347656 L 12.242188 -25.9375 L 11.574219 -25.304688 L 11.238281 -24.671875 L 10.980469 -23.929688 L 10.644531 -23.410156 L 9.15625 -19.984375 L 8.746094 -19.425781 L 8.558594 -18.683594 L 8.148438 -17.976562 L 7.925781 -17.304688 L 4.132812 -9.339844 L 3.90625 -8.523438 L 3.535156 -7.964844 L 3.273438 -7.21875 L 2.605469 -6.027344 L 2.046875 -4.539062 L 1.636719 -4.019531 L 1.453125 -3.347656 L 0.707031 -1.859375 L 0.484375 -1.117188 L 0.667969 -0.1875 L 1.414062 0.0390625 L 2.867188 -0.0390625 L 3.609375 0.0390625 L 5.695312 -0.0390625 L 6.550781 -0.296875 L 7.257812 -0.96875 L 7.925781 -2.195312 L 8.632812 -2.902344 L 9.414062 -3.3125 L 10.121094 -3.199219 L 11.6875 -3.347656 L 12.355469 -3.238281 L 16.003906 -3.273438 L 16.671875 -3.199219 L 17.492188 -3.3125 L 18.308594 -2.902344 L 19.015625 -2.308594 L 19.351562 -1.601562 L 19.574219 -0.929688 L 20.320312 -0.371094 L 21.175781 0 Z M 13.507812 -9.191406 L 12.765625 -9.339844 L 11.910156 -9.265625 L 11.3125 -9.527344 L 11.277344 -10.234375 L 13.023438 -14.253906 L 13.433594 -14.589844 L 13.957031 -14.289062 L 15.703125 -10.195312 L 15.554688 -9.527344 L 14.996094 -9.230469 Z M 13.507812 -9.191406 "/></g></g></g><g fill="#fdfdfd" fill-opacity="1"><g transform="translate(131.98179, 50.268233)"><g><path d="M 2.792969 -1.527344 L 3.164062 -0.371094 L 4.242188 0.113281 L 4.988281 0 L 6.179688 0.113281 L 6.773438 0.0390625 L 7.890625 0.0390625 L 9.082031 -0.335938 L 9.414062 -1.414062 L 9.414062 -2.679688 L 9.488281 -3.347656 L 9.378906 -4.132812 L 9.453125 -6.511719 L 9.789062 -7.257812 L 10.496094 -7.667969 L 12.652344 -7.367188 L 13.398438 -6.734375 L 13.84375 -5.992188 L 14.140625 -5.320312 L 14.921875 -4.207031 L 15.628906 -2.867188 L 16.039062 -2.308594 L 16.335938 -1.5625 L 16.746094 -0.929688 L 17.566406 -0.261719 L 18.832031 0.0742188 L 21.769531 0.0390625 L 22.476562 0.113281 L 23.707031 0.0742188 L 24.414062 -0.261719 L 24.636719 -1.078125 L 24.226562 -1.898438 L 23.78125 -2.417969 L 23.484375 -3.125 L 22.21875 -5.023438 L 21.882812 -5.695312 L 20.691406 -7.628906 L 20.246094 -8.1875 L 20.207031 -9.082031 L 20.542969 -9.898438 L 21.0625 -10.457031 L 21.585938 -10.902344 L 23.035156 -13.507812 L 23.519531 -15.667969 L 23.445312 -18.011719 L 23.335938 -18.757812 L 22.664062 -20.878906 L 22.367188 -21.511719 L 21.957031 -22.105469 L 19.835938 -24.339844 L 18.535156 -25.046875 L 17.117188 -25.53125 L 14.996094 -26.011719 L 13.808594 -26.050781 L 12.726562 -25.976562 L 10.496094 -25.976562 L 9.75 -26.125 L 9.007812 -26.125 L 8.335938 -25.9375 L 7.59375 -25.9375 L 6.847656 -26.089844 L 6.027344 -26.125 L 3.832031 -25.9375 L 3.164062 -25.566406 L 2.714844 -24.523438 L 2.753906 -16.003906 L 2.828125 -15.257812 L 2.714844 -13.769531 L 2.753906 -12.949219 L 2.753906 -12.207031 L 2.828125 -11.5 L 2.753906 -10.792969 L 2.714844 -7.777344 L 2.792969 -7.035156 Z M 10.496094 -13.621094 L 9.75 -14.03125 L 9.453125 -14.625 L 9.453125 -16.859375 L 9.378906 -17.492188 L 9.453125 -19.054688 L 9.789062 -19.761719 L 10.570312 -20.058594 L 11.3125 -20.023438 L 12.800781 -20.171875 L 13.84375 -19.949219 L 14.8125 -19.871094 L 15.519531 -19.6875 L 16.449219 -18.535156 L 16.671875 -17.9375 L 16.820312 -16.96875 L 16.710938 -15.855469 L 16.375 -15.109375 L 15.964844 -14.550781 L 15.554688 -14.214844 L 14.886719 -13.917969 L 13.808594 -13.65625 L 13.101562 -13.621094 L 11.3125 -13.695312 Z M 10.496094 -13.621094 "/></g></g></g><g fill="#fdfdfd" fill-opacity="1"><g transform="translate(157.808142, 50.268233)"><g><path d="M 9.714844 0.0742188 L 12.207031 0 L 13.285156 -0.371094 L 13.65625 -1.414062 L 13.769531 -3.347656 L 13.65625 -4.761719 L 13.734375 -5.546875 L 13.695312 -7.035156 L 13.769531 -7.703125 L 13.65625 -8.523438 L 13.734375 -14.515625 L 13.621094 -15.296875 L 13.734375 -18.535156 L 14.03125 -19.648438 L 14.738281 -20.097656 L 16.1875 -20.171875 L 17.566406 -19.984375 L 18.347656 -20.097656 L 19.015625 -20.058594 L 19.648438 -20.46875 L 20.097656 -21.289062 L 20.132812 -24.824219 L 19.722656 -25.566406 L 19.015625 -26.050781 L 16.710938 -26.050781 L 16.003906 -26.125 L 15.222656 -26.011719 L 14.515625 -26.089844 L 11.5 -25.9375 L 10.753906 -26.089844 L 10.046875 -26.125 L 9.265625 -26.011719 L 8.449219 -26.089844 L 7.777344 -25.9375 L 5.582031 -26.050781 L 4.429688 -25.9375 L 1.824219 -26.089844 L 1.117188 -25.714844 L 0.667969 -24.859375 L 0.707031 -24.117188 L 0.632812 -22.253906 L 0.707031 -21.101562 L 1.042969 -20.429688 L 1.710938 -20.058594 L 2.457031 -20.132812 L 5.992188 -20.058594 L 6.699219 -19.6875 L 7.109375 -18.941406 L 7.035156 -17.75 L 7.109375 -16.710938 L 7.070312 -15.890625 L 7.109375 -15.148438 L 7.035156 -14.105469 L 7.144531 -8.558594 L 7.070312 -7.816406 L 7.035156 -4.800781 L 7.109375 -4.019531 L 7.070312 -1.859375 L 6.996094 -1.152344 L 7.480469 -0.335938 L 8.558594 0.0390625 Z M 9.714844 0.0742188 "/></g></g></g></svg>