<svg xmlns="http://www.w3.org/2000/svg" xmlns:xlink="http://www.w3.org/1999/xlink" width="500" zoomAndPan="magnify" viewBox="0 0 375 374.999991" height="500" preserveAspectRatio="xMidYMid meet" version="1.0"><defs><g/><clipPath id="dd644eccfb"><path d="M 1.84375 1.84375 L 373.15625 1.84375 L 373.15625 373.15625 L 1.84375 373.15625 Z M 1.84375 1.84375 " clip-rule="nonzero"/></clipPath><clipPath id="028efdc23c"><path d="M 187.5 1.84375 C 84.964844 1.84375 1.84375 84.964844 1.84375 187.5 C 1.84375 290.035156 84.964844 373.15625 187.5 373.15625 C 290.035156 373.15625 373.15625 290.035156 373.15625 187.5 C 373.15625 84.964844 290.035156 1.84375 187.5 1.84375 " clip-rule="nonzero"/></clipPath></defs><g clip-path="url(#dd644eccfb)"><g clip-path="url(#028efdc23c)"><path fill="#012f6d" d="M 1.84375 1.84375 L 373.15625 1.84375 L 373.15625 373.15625 L 1.84375 373.15625 Z M 1.84375 1.84375 " fill-opacity="1" fill-rule="nonzero"/></g></g><g fill="#fdfdfd" fill-opacity="1"><g transform="translate(64.107423, 263.640643)"><g><path d="M 31.320312 0.71875 L 35.820312 1.078125 L 42.121094 0.628906 L 47.429688 -0.449219 L 49.050781 -1.351562 L 50.941406 -1.980469 L 52.46875 -2.699219 L 56.878906 -5.851562 L 59.398438 -8.371094 L 61.46875 -11.070312 L 63.359375 -14.308594 L 65.699219 -21.148438 L 65.160156 -22.769531 L 63.359375 -23.941406 L 58.320312 -23.578125 L 56.519531 -23.851562 L 54.71875 -23.761719 L 52.921875 -23.851562 L 50.851562 -22.769531 L 49.410156 -21.328125 L 48.511719 -19.621094 L 46.441406 -17.28125 L 45 -16.019531 L 43.648438 -15.480469 L 40.5 -13.769531 L 35.730469 -13.5 L 33.121094 -13.769531 L 29.878906 -14.941406 L 26.730469 -16.558594 L 24.121094 -18.898438 L 22.140625 -22.050781 L 21.511719 -23.851562 L 20.878906 -25.109375 L 20.429688 -26.730469 L 20.160156 -28.710938 L 20.160156 -34.199219 L 20.789062 -37.800781 L 22.140625 -41.039062 L 23.039062 -42.75 L 25.199219 -45.269531 L 27.359375 -46.980469 L 29.789062 -48.328125 L 35.820312 -49.140625 L 39.691406 -48.960938 L 42.480469 -48.148438 L 44.101562 -47.519531 L 45.359375 -46.53125 L 47.96875 -43.921875 L 48.960938 -42.570312 L 50.671875 -40.859375 L 52.738281 -39.871094 L 54.359375 -40.050781 L 56.25 -39.960938 L 58.050781 -40.050781 L 60.570312 -39.78125 L 63.269531 -40.050781 L 64.800781 -40.769531 L 65.429688 -42.570312 L 64.890625 -44.550781 L 64.261719 -46.171875 L 63.71875 -48.058594 L 62.730469 -49.5 L 61.921875 -50.941406 L 60.660156 -52.46875 L 59.671875 -54.179688 L 57.148438 -56.789062 L 51.03125 -60.660156 L 42.390625 -63.539062 L 40.679688 -63.628906 L 38.878906 -63.898438 L 33.300781 -63.988281 L 24.570312 -62.28125 L 17.910156 -59.128906 L 15.300781 -57.148438 L 11.429688 -53.640625 L 9 -50.578125 L 7.289062 -47.96875 L 5.039062 -42.929688 L 4.140625 -39.238281 L 3.238281 -31.5 L 3.78125 -24.929688 L 5.039062 -19.800781 L 8.910156 -11.96875 L 12.601562 -8.011719 L 16.648438 -4.5 L 20.519531 -2.429688 L 24.570312 -0.71875 L 26.191406 -0.359375 L 27.988281 0.269531 L 29.609375 0.628906 Z M 31.320312 0.71875 "/></g></g></g><g fill="#fdfdfd" fill-opacity="1"><g transform="translate(132.777348, 263.640643)"><g><path d="M 53.101562 0.179688 L 56.519531 -0.0898438 L 58.230469 0.0898438 L 61.019531 0 L 63.539062 -0.449219 L 63.808594 -2.609375 L 63.179688 -4.679688 L 61.828125 -8.011719 L 59.398438 -12.691406 L 58.140625 -16.019531 L 56.339844 -19.261719 L 52.921875 -27.449219 L 52.019531 -28.800781 L 51.121094 -30.511719 L 50.578125 -32.488281 L 49.769531 -33.839844 L 49.230469 -35.28125 L 47.339844 -38.609375 L 46.710938 -40.5 L 40.769531 -53.011719 L 40.230469 -54.808594 L 39.238281 -56.429688 L 38.699219 -58.050781 L 36.988281 -61.199219 L 35.460938 -62.820312 L 32.488281 -63.71875 L 29.609375 -62.730469 L 27.988281 -61.199219 L 27.179688 -59.671875 L 26.550781 -57.871094 L 25.738281 -56.609375 L 22.140625 -48.328125 L 21.148438 -46.980469 L 20.699219 -45.179688 L 19.710938 -43.46875 L 19.171875 -41.851562 L 9.988281 -22.589844 L 9.449219 -20.609375 L 8.550781 -19.261719 L 7.921875 -17.460938 L 6.300781 -14.578125 L 4.949219 -10.980469 L 3.960938 -9.71875 L 3.511719 -8.101562 L 1.710938 -4.5 L 1.171875 -2.699219 L 1.621094 -0.449219 L 3.421875 0.0898438 L 6.929688 -0.0898438 L 8.730469 0.0898438 L 13.769531 -0.0898438 L 15.839844 -0.71875 L 17.550781 -2.339844 L 19.171875 -5.308594 L 20.878906 -7.019531 L 22.769531 -8.011719 L 24.480469 -7.738281 L 28.261719 -8.101562 L 29.878906 -7.828125 L 38.699219 -7.921875 L 40.320312 -7.738281 L 42.300781 -8.011719 L 44.28125 -7.019531 L 45.988281 -5.578125 L 46.800781 -3.871094 L 47.339844 -2.25 L 49.140625 -0.898438 L 51.210938 0 Z M 32.671875 -22.230469 L 30.871094 -22.589844 L 28.800781 -22.410156 L 27.359375 -23.039062 L 27.269531 -24.75 L 31.5 -34.46875 L 32.488281 -35.28125 L 33.75 -34.558594 L 37.980469 -24.660156 L 37.621094 -23.039062 L 36.269531 -22.320312 Z M 32.671875 -22.230469 "/></g></g></g><g fill="#fdfdfd" fill-opacity="1"><g transform="translate(198.117283, 263.640643)"><g><path d="M 6.75 -3.691406 L 7.648438 -0.898438 L 10.261719 0.269531 L 12.058594 0 L 14.941406 0.269531 L 16.378906 0.0898438 L 19.078125 0.0898438 L 21.960938 -0.808594 L 22.769531 -3.421875 L 22.769531 -6.480469 L 22.949219 -8.101562 L 22.679688 -9.988281 L 22.859375 -15.75 L 23.671875 -17.550781 L 25.378906 -18.539062 L 30.601562 -17.820312 L 32.398438 -16.289062 L 33.480469 -14.488281 L 34.199219 -12.871094 L 36.089844 -10.171875 L 37.800781 -6.929688 L 38.789062 -5.578125 L 39.511719 -3.78125 L 40.5 -2.25 L 42.480469 -0.628906 L 45.539062 0.179688 L 52.648438 0.0898438 L 54.359375 0.269531 L 57.328125 0.179688 L 59.039062 -0.628906 L 59.578125 -2.609375 L 58.589844 -4.589844 L 57.511719 -5.851562 L 56.789062 -7.558594 L 53.730469 -12.148438 L 52.921875 -13.769531 L 50.039062 -18.449219 L 48.960938 -19.800781 L 48.871094 -21.960938 L 49.679688 -23.941406 L 50.941406 -25.289062 L 52.199219 -26.371094 L 55.710938 -32.671875 L 56.878906 -37.890625 L 56.699219 -43.558594 L 56.429688 -45.359375 L 54.808594 -50.488281 L 54.089844 -52.019531 L 53.101562 -53.460938 L 47.96875 -58.859375 L 44.820312 -60.570312 L 41.398438 -61.738281 L 36.269531 -62.910156 L 33.390625 -63 L 30.78125 -62.820312 L 25.378906 -62.820312 L 23.578125 -63.179688 L 21.78125 -63.179688 L 20.160156 -62.730469 L 18.359375 -62.730469 L 16.558594 -63.089844 L 14.578125 -63.179688 L 9.269531 -62.730469 L 7.648438 -61.828125 L 6.570312 -59.308594 L 6.660156 -38.699219 L 6.839844 -36.898438 L 6.570312 -33.300781 L 6.660156 -31.320312 L 6.660156 -29.519531 L 6.839844 -27.808594 L 6.660156 -26.101562 L 6.570312 -18.808594 L 6.75 -17.011719 Z M 25.378906 -32.941406 L 23.578125 -33.929688 L 22.859375 -35.371094 L 22.859375 -40.769531 L 22.679688 -42.300781 L 22.859375 -46.078125 L 23.671875 -47.789062 L 25.558594 -48.511719 L 27.359375 -48.421875 L 30.960938 -48.78125 L 33.480469 -48.238281 L 35.820312 -48.058594 L 37.53125 -47.609375 L 39.78125 -44.820312 L 40.320312 -43.378906 L 40.679688 -41.039062 L 40.410156 -38.339844 L 39.601562 -36.539062 L 38.609375 -35.191406 L 37.621094 -34.378906 L 36 -33.660156 L 33.390625 -33.03125 L 31.679688 -32.941406 L 27.359375 -33.121094 Z M 25.378906 -32.941406 "/></g></g></g><g fill="#fdfdfd" fill-opacity="1"><g transform="translate(260.57722, 263.640643)"><g><path d="M 23.488281 0.179688 L 29.519531 0 L 32.128906 -0.898438 L 33.03125 -3.421875 L 33.300781 -8.101562 L 33.03125 -11.519531 L 33.210938 -13.410156 L 33.121094 -17.011719 L 33.300781 -18.628906 L 33.03125 -20.609375 L 33.210938 -35.101562 L 32.941406 -36.988281 L 33.210938 -44.820312 L 33.929688 -47.519531 L 35.640625 -48.601562 L 39.148438 -48.78125 L 42.480469 -48.328125 L 44.371094 -48.601562 L 45.988281 -48.511719 L 47.519531 -49.5 L 48.601562 -51.480469 L 48.691406 -60.03125 L 47.699219 -61.828125 L 45.988281 -63 L 40.410156 -63 L 38.699219 -63.179688 L 36.808594 -62.910156 L 35.101562 -63.089844 L 27.808594 -62.730469 L 26.011719 -63.089844 L 24.300781 -63.179688 L 22.410156 -62.910156 L 20.429688 -63.089844 L 18.808594 -62.730469 L 13.5 -63 L 10.710938 -62.730469 L 4.410156 -63.089844 L 2.699219 -62.191406 L 1.621094 -60.121094 L 1.710938 -58.320312 L 1.53125 -53.820312 L 1.710938 -51.03125 L 2.519531 -49.410156 L 4.140625 -48.511719 L 5.941406 -48.691406 L 14.488281 -48.511719 L 16.199219 -47.609375 L 17.191406 -45.808594 L 17.011719 -42.929688 L 17.191406 -40.410156 L 17.101562 -38.429688 L 17.191406 -36.628906 L 17.011719 -34.109375 L 17.28125 -20.699219 L 17.101562 -18.898438 L 17.011719 -11.609375 L 17.191406 -9.71875 L 17.101562 -4.5 L 16.921875 -2.789062 L 18.089844 -0.808594 L 20.699219 0.0898438 Z M 23.488281 0.179688 "/></g></g></g><g fill="#08adc6" fill-opacity="1"><g transform="translate(87.193357, 172.633575)"><g><path d="M 27.71875 0.269531 L 30.421875 0.269531 L 33.210938 -0.0898438 L 35.011719 -0.0898438 L 37.621094 -0.898438 L 41.308594 -1.53125 L 45.539062 -3.328125 L 51.570312 -7.378906 L 55.980469 -13.050781 L 56.878906 -14.851562 L 57.960938 -16.289062 L 59.398438 -19.800781 L 59.851562 -21.511719 L 60.210938 -23.398438 L 60.75 -24.929688 L 61.019531 -26.730469 L 61.019531 -28.621094 L 61.289062 -31.5 L 61.199219 -34.109375 L 59.941406 -41.21875 L 58.769531 -44.640625 L 58.050781 -46.351562 L 54.988281 -51.121094 L 50.21875 -56.429688 L 45.628906 -59.488281 L 43.921875 -60.480469 L 42.121094 -60.839844 L 40.589844 -61.558594 L 38.699219 -62.011719 L 33.390625 -62.820312 L 12.871094 -63 L 11.25 -62.730469 L 9.449219 -62.820312 L 7.46875 -62.011719 L 6.660156 -60.121094 L 6.570312 -9.808594 L 6.75 -8.101562 L 6.75 -3.511719 L 7.648438 -0.71875 L 9.449219 0.179688 L 11.25 0 L 22.230469 0.179688 L 24.03125 -0.0898438 Z M 27.449219 -14.488281 L 25.738281 -14.671875 L 23.671875 -15.660156 L 22.949219 -17.371094 L 22.859375 -18.898438 L 22.949219 -22.589844 L 22.589844 -27 L 22.949219 -31.5 L 22.769531 -43.921875 L 22.949219 -45.449219 L 23.851562 -47.519531 L 26.730469 -48.148438 L 30.511719 -48.238281 L 33.121094 -47.96875 L 36.628906 -46.980469 L 38.25 -46.171875 L 39.601562 -45.179688 L 40.949219 -43.921875 L 42.300781 -42.300781 L 43.199219 -40.769531 L 44.011719 -39.148438 L 45.449219 -31.230469 L 44.550781 -24.929688 L 43.019531 -21.601562 L 39.691406 -17.820312 L 36.628906 -15.839844 L 34.019531 -15.03125 L 30.148438 -14.578125 Z M 27.449219 -14.488281 "/></g></g></g><g fill="#08adc6" fill-opacity="1"><g transform="translate(152.623288, 172.633575)"><g><path d="M 30.148438 0.359375 L 33.75 0.179688 L 35.371094 -0.71875 L 36.269531 -2.429688 L 36.269531 -11.339844 L 35.191406 -13.050781 L 33.210938 -14.039062 L 31.320312 -14.039062 L 29.160156 -14.761719 L 28.078125 -16.828125 L 28.351562 -18.539062 L 28.261719 -28.441406 L 28.441406 -30.421875 L 28.078125 -36.898438 L 28.441406 -45.988281 L 29.070312 -48.058594 L 31.050781 -48.871094 L 32.851562 -49.140625 L 34.738281 -49.859375 L 35.640625 -51.300781 L 35.730469 -60.210938 L 34.648438 -61.921875 L 33.03125 -62.910156 L 22.140625 -62.910156 L 20.519531 -63.089844 L 18.71875 -62.730469 L 11.339844 -62.730469 L 9.628906 -63 L 7.558594 -63 L 5.761719 -62.101562 L 4.859375 -59.941406 L 5.128906 -53.28125 L 4.949219 -51.570312 L 5.941406 -49.769531 L 7.921875 -48.78125 L 9.71875 -48.78125 L 11.429688 -47.699219 L 12.238281 -45.269531 L 12.511719 -17.640625 L 11.519531 -14.941406 L 5.578125 -13.140625 L 4.589844 -11.519531 L 4.320312 -3.238281 L 5.21875 -0.808594 L 7.019531 0 L 8.730469 0 L 10.441406 -0.179688 L 13.050781 0.179688 L 15.839844 0.0898438 L 17.640625 -0.0898438 L 21.238281 0.269531 L 23.941406 -0.0898438 L 28.351562 -0.0898438 Z M 30.148438 0.359375 "/></g></g></g><g fill="#08adc6" fill-opacity="1"><g transform="translate(193.483248, 172.633575)"><g><path d="M 24.210938 0.808594 L 31.320312 0.988281 L 33.121094 0.808594 L 34.921875 0.359375 L 36.71875 0.0898438 L 38.519531 -0.628906 L 40.140625 -0.808594 L 41.851562 -1.621094 L 47.96875 -5.308594 L 50.578125 -8.011719 L 51.480469 -9.269531 L 52.46875 -11.25 L 53.011719 -12.871094 L 53.550781 -14.398438 L 54.089844 -18.898438 L 53.910156 -21.78125 L 52.558594 -27 L 51.570312 -28.441406 L 49.230469 -31.140625 L 47.609375 -32.578125 L 46.171875 -33.300781 L 44.550781 -34.289062 L 37.53125 -36.449219 L 35.730469 -36.71875 L 33.929688 -36.808594 L 32.039062 -37.171875 L 29.429688 -37.171875 L 24.660156 -38.160156 L 21.328125 -39.78125 L 19.980469 -41.039062 L 19.621094 -43.738281 L 20.070312 -46.171875 L 21.148438 -47.339844 L 22.5 -48.328125 L 23.941406 -49.140625 L 25.558594 -49.5 L 28.441406 -49.589844 L 31.320312 -49.230469 L 32.941406 -48.78125 L 34.558594 -47.699219 L 36.089844 -46.441406 L 37.441406 -44.640625 L 39.421875 -43.46875 L 43.648438 -43.828125 L 46.078125 -43.648438 L 47.878906 -43.648438 L 49.5 -43.46875 L 51.210938 -44.730469 L 51.929688 -46.261719 L 51.570312 -47.96875 L 51.390625 -49.679688 L 48.871094 -54.359375 L 46.890625 -57.058594 L 40.949219 -61.199219 L 35.910156 -62.910156 L 32.398438 -63.628906 L 25.46875 -63.808594 L 23.488281 -63.269531 L 21.691406 -63.179688 L 20.070312 -62.910156 L 16.648438 -61.828125 L 13.589844 -60.03125 L 9.269531 -57.058594 L 6.121094 -52.828125 L 4.5 -47.878906 L 4.230469 -43.46875 L 4.320312 -40.679688 L 4.949219 -37.078125 L 6.390625 -33.929688 L 9.71875 -29.789062 L 15.839844 -26.460938 L 19.078125 -25.378906 L 33.210938 -23.761719 L 36.449219 -22.230469 L 37.621094 -21.148438 L 38.160156 -18.898438 L 37.441406 -16.648438 L 36.269531 -15.300781 L 33.210938 -13.949219 L 30.421875 -13.769531 L 28.800781 -13.5 L 24.210938 -13.949219 L 22.679688 -14.761719 L 21.148438 -15.75 L 18.179688 -18.988281 L 16.378906 -19.710938 L 14.761719 -19.53125 L 13.050781 -19.800781 L 6.121094 -19.441406 L 4.5 -18.71875 L 3.78125 -16.828125 L 4.050781 -15.03125 L 4.410156 -13.230469 L 4.949219 -11.609375 L 6.660156 -8.28125 L 7.921875 -7.109375 L 9.089844 -5.761719 L 12.238281 -3.78125 L 13.5 -2.429688 L 15.210938 -1.621094 L 17.011719 -1.078125 L 20.519531 0.179688 Z M 24.210938 0.808594 "/></g></g></g><g fill="#08adc6" fill-opacity="1"><g transform="translate(250.903185, 172.633575)"><g><path d="M 3.238281 -27.539062 L 4.050781 -25.828125 L 5.671875 -24.75 L 7.558594 -24.839844 L 9.449219 -24.660156 L 11.160156 -25.019531 L 14.761719 -24.75 L 16.289062 -25.019531 L 22.410156 -25.019531 L 24.210938 -24.75 L 29.519531 -24.839844 L 32.21875 -25.738281 L 33.300781 -27.628906 L 33.121094 -34.921875 L 32.488281 -36.898438 L 30.691406 -37.890625 L 21.601562 -37.800781 L 19.890625 -38.160156 L 9.449219 -37.980469 L 7.648438 -38.160156 L 5.941406 -37.980469 L 4.050781 -36.898438 L 3.238281 -35.191406 Z M 3.238281 -27.539062 "/></g></g></g></svg>