<svg xmlns="http://www.w3.org/2000/svg" xmlns:xlink="http://www.w3.org/1999/xlink" width="500" zoomAndPan="magnify" viewBox="0 0 375 374.999991" height="500" preserveAspectRatio="xMidYMid meet" version="1.0"><defs><clipPath id="f5f7fa924f"><path d="M 1.84375 1.84375 L 373.15625 1.84375 L 373.15625 373.15625 L 1.84375 373.15625 Z M 1.84375 1.84375 " clip-rule="nonzero"/></clipPath><clipPath id="f6bd4cbbc6"><path d="M 187.5 1.84375 C 84.964844 1.84375 1.84375 84.964844 1.84375 187.5 C 1.84375 290.035156 84.964844 373.15625 187.5 373.15625 C 290.035156 373.15625 373.15625 290.035156 373.15625 187.5 C 373.15625 84.964844 290.035156 1.84375 187.5 1.84375 " clip-rule="nonzero"/></clipPath><clipPath id="165fee52b8"><path d="M 226 305 L 292 305 L 292 370.382812 L 226 370.382812 Z M 226 305 " clip-rule="nonzero"/></clipPath><clipPath id="a5f5c1896c"><path d="M 96 305 L 162 305 L 162 370.382812 L 96 370.382812 Z M 96 305 " clip-rule="nonzero"/></clipPath><clipPath id="771f1ebb53"><path d="M 18.71875 85 L 292 85 L 292 293 L 18.71875 293 Z M 18.71875 85 " clip-rule="nonzero"/></clipPath><clipPath id="cd096ed4ec"><path d="M 187 59.132812 L 329.96875 59.132812 L 329.96875 202 L 187 202 Z M 187 59.132812 " clip-rule="nonzero"/></clipPath><clipPath id="13a037da9a"><path d="M 184.5 56.882812 L 334.5 56.882812 L 334.5 206.882812 L 184.5 206.882812 Z M 184.5 56.882812 " clip-rule="nonzero"/></clipPath></defs><g clip-path="url(#f5f7fa924f)"><g clip-path="url(#f6bd4cbbc6)"><path fill="#08adc6" d="M 1.84375 1.84375 L 373.15625 1.84375 L 373.15625 373.15625 L 1.84375 373.15625 Z M 1.84375 1.84375 " fill-opacity="1" fill-rule="nonzero"/></g></g><g clip-path="url(#165fee52b8)"><path fill="#fdfdfd" d="M 291.0625 337.960938 C 291.0625 339.023438 291.011719 340.082031 290.90625 341.140625 C 290.804688 342.195312 290.648438 343.246094 290.441406 344.285156 C 290.234375 345.328125 289.976562 346.355469 289.667969 347.371094 C 289.359375 348.386719 289.003906 349.386719 288.597656 350.367188 C 288.1875 351.347656 287.734375 352.308594 287.234375 353.246094 C 286.734375 354.179688 286.191406 355.089844 285.597656 355.972656 C 285.007812 356.855469 284.378906 357.707031 283.703125 358.527344 C 283.03125 359.351562 282.320312 360.136719 281.566406 360.886719 C 280.816406 361.636719 280.03125 362.347656 279.210938 363.023438 C 278.390625 363.695312 277.539062 364.328125 276.65625 364.917969 C 275.773438 365.507812 274.863281 366.054688 273.925781 366.554688 C 272.988281 367.054688 272.03125 367.507812 271.050781 367.914062 C 270.066406 368.320312 269.070312 368.679688 268.054688 368.988281 C 267.039062 369.292969 266.007812 369.550781 264.96875 369.757812 C 263.925781 369.96875 262.875 370.121094 261.820312 370.226562 C 260.761719 370.332031 259.703125 370.382812 258.640625 370.382812 C 257.578125 370.382812 256.519531 370.332031 255.464844 370.226562 C 254.40625 370.121094 253.359375 369.964844 252.316406 369.757812 C 251.273438 369.550781 250.246094 369.292969 249.230469 368.988281 C 248.214844 368.679688 247.214844 368.320312 246.234375 367.914062 C 245.253906 367.507812 244.292969 367.054688 243.359375 366.554688 C 242.421875 366.054688 241.511719 365.507812 240.628906 364.917969 C 239.746094 364.328125 238.894531 363.695312 238.074219 363.023438 C 237.253906 362.347656 236.46875 361.636719 235.714844 360.886719 C 234.964844 360.136719 234.253906 359.351562 233.578125 358.527344 C 232.90625 357.707031 232.273438 356.855469 231.683594 355.972656 C 231.09375 355.089844 230.546875 354.179688 230.046875 353.246094 C 229.546875 352.308594 229.09375 351.347656 228.6875 350.367188 C 228.28125 349.386719 227.925781 348.386719 227.617188 347.371094 C 227.308594 346.355469 227.050781 345.328125 226.84375 344.285156 C 226.636719 343.246094 226.480469 342.195312 226.375 341.140625 C 226.273438 340.082031 226.21875 339.023438 226.21875 337.960938 C 226.21875 336.898438 226.273438 335.839844 226.375 334.78125 C 226.480469 333.726562 226.636719 332.675781 226.84375 331.636719 C 227.050781 330.59375 227.308594 329.566406 227.617188 328.550781 C 227.925781 327.53125 228.28125 326.535156 228.6875 325.554688 C 229.09375 324.574219 229.546875 323.613281 230.046875 322.675781 C 230.546875 321.742188 231.09375 320.832031 231.683594 319.949219 C 232.273438 319.066406 232.90625 318.214844 233.578125 317.390625 C 234.253906 316.570312 234.964844 315.785156 235.714844 315.035156 C 236.46875 314.285156 237.253906 313.570312 238.074219 312.898438 C 238.894531 312.226562 239.746094 311.59375 240.628906 311.003906 C 241.511719 310.414062 242.421875 309.867188 243.359375 309.367188 C 244.292969 308.867188 245.253906 308.414062 246.234375 308.007812 C 247.214844 307.601562 248.214844 307.242188 249.230469 306.933594 C 250.246094 306.625 251.273438 306.367188 252.316406 306.160156 C 253.359375 305.953125 254.40625 305.800781 255.464844 305.695312 C 256.519531 305.589844 257.578125 305.539062 258.640625 305.539062 C 259.703125 305.539062 260.761719 305.589844 261.820312 305.695312 C 262.875 305.800781 263.925781 305.953125 264.96875 306.160156 C 266.007812 306.367188 267.039062 306.625 268.054688 306.933594 C 269.070312 307.242188 270.066406 307.601562 271.050781 308.007812 C 272.03125 308.414062 272.988281 308.867188 273.925781 309.367188 C 274.863281 309.867188 275.773438 310.414062 276.65625 311.003906 C 277.539062 311.59375 278.390625 312.226562 279.210938 312.898438 C 280.03125 313.570312 280.816406 314.285156 281.566406 315.035156 C 282.320312 315.785156 283.03125 316.570312 283.703125 317.390625 C 284.378906 318.214844 285.007812 319.066406 285.597656 319.949219 C 286.191406 320.832031 286.734375 321.742188 287.234375 322.675781 C 287.734375 323.613281 288.1875 324.574219 288.597656 325.554688 C 289.003906 326.535156 289.359375 327.53125 289.667969 328.550781 C 289.976562 329.566406 290.234375 330.59375 290.441406 331.636719 C 290.648438 332.675781 290.804688 333.726562 290.90625 334.78125 C 291.011719 335.839844 291.0625 336.898438 291.0625 337.960938 Z M 291.0625 337.960938 " fill-opacity="1" fill-rule="nonzero"/></g><g clip-path="url(#a5f5c1896c)"><path fill="#fdfdfd" d="M 161.375 337.960938 C 161.375 339.023438 161.324219 340.082031 161.21875 341.140625 C 161.117188 342.195312 160.960938 343.246094 160.753906 344.285156 C 160.546875 345.328125 160.289062 346.355469 159.980469 347.371094 C 159.671875 348.386719 159.316406 349.386719 158.910156 350.367188 C 158.5 351.347656 158.046875 352.308594 157.546875 353.246094 C 157.046875 354.179688 156.503906 355.089844 155.914062 355.972656 C 155.320312 356.855469 154.691406 357.707031 154.015625 358.527344 C 153.34375 359.351562 152.632812 360.136719 151.878906 360.886719 C 151.128906 361.636719 150.34375 362.347656 149.523438 363.023438 C 148.703125 363.695312 147.851562 364.328125 146.96875 364.917969 C 146.085938 365.507812 145.175781 366.054688 144.238281 366.554688 C 143.300781 367.054688 142.34375 367.507812 141.363281 367.914062 C 140.378906 368.320312 139.382812 368.679688 138.367188 368.988281 C 137.351562 369.292969 136.320312 369.550781 135.28125 369.757812 C 134.238281 369.96875 133.1875 370.121094 132.132812 370.226562 C 131.074219 370.332031 130.015625 370.382812 128.953125 370.382812 C 127.890625 370.382812 126.832031 370.332031 125.777344 370.226562 C 124.71875 370.121094 123.671875 369.964844 122.628906 369.757812 C 121.585938 369.550781 120.558594 369.292969 119.542969 368.988281 C 118.527344 368.679688 117.527344 368.320312 116.546875 367.914062 C 115.566406 367.507812 114.605469 367.054688 113.671875 366.554688 C 112.734375 366.054688 111.824219 365.507812 110.941406 364.917969 C 110.058594 364.328125 109.207031 363.695312 108.386719 363.023438 C 107.566406 362.347656 106.78125 361.636719 106.027344 360.886719 C 105.277344 360.136719 104.566406 359.351562 103.890625 358.527344 C 103.21875 357.707031 102.585938 356.855469 101.996094 355.972656 C 101.40625 355.089844 100.863281 354.179688 100.359375 353.246094 C 99.859375 352.308594 99.40625 351.347656 99 350.367188 C 98.59375 349.386719 98.238281 348.386719 97.929688 347.371094 C 97.621094 346.355469 97.363281 345.328125 97.15625 344.285156 C 96.949219 343.246094 96.792969 342.195312 96.6875 341.140625 C 96.585938 340.082031 96.53125 339.023438 96.53125 337.960938 C 96.53125 336.898438 96.585938 335.839844 96.6875 334.78125 C 96.792969 333.726562 96.949219 332.675781 97.15625 331.636719 C 97.363281 330.59375 97.621094 329.566406 97.929688 328.550781 C 98.238281 327.53125 98.59375 326.535156 99 325.554688 C 99.40625 324.574219 99.859375 323.613281 100.359375 322.675781 C 100.863281 321.742188 101.40625 320.832031 101.996094 319.949219 C 102.585938 319.066406 103.21875 318.214844 103.890625 317.390625 C 104.566406 316.570312 105.277344 315.785156 106.027344 315.035156 C 106.78125 314.285156 107.566406 313.570312 108.386719 312.898438 C 109.207031 312.226562 110.058594 311.59375 110.941406 311.003906 C 111.824219 310.414062 112.734375 309.867188 113.671875 309.367188 C 114.605469 308.867188 115.566406 308.414062 116.546875 308.007812 C 117.527344 307.601562 118.527344 307.242188 119.542969 306.933594 C 120.558594 306.625 121.585938 306.367188 122.628906 306.160156 C 123.671875 305.953125 124.71875 305.800781 125.777344 305.695312 C 126.832031 305.589844 127.890625 305.539062 128.953125 305.539062 C 130.015625 305.539062 131.074219 305.589844 132.132812 305.695312 C 133.1875 305.800781 134.238281 305.953125 135.28125 306.160156 C 136.320312 306.367188 137.351562 306.625 138.367188 306.933594 C 139.382812 307.242188 140.378906 307.601562 141.363281 308.007812 C 142.34375 308.414062 143.300781 308.867188 144.238281 309.367188 C 145.175781 309.867188 146.085938 310.414062 146.96875 311.003906 C 147.851562 311.59375 148.703125 312.226562 149.523438 312.898438 C 150.34375 313.570312 151.128906 314.285156 151.878906 315.035156 C 152.632812 315.785156 153.34375 316.570312 154.015625 317.390625 C 154.691406 318.214844 155.320312 319.066406 155.914062 319.949219 C 156.503906 320.832031 157.046875 321.742188 157.546875 322.675781 C 158.046875 323.613281 158.5 324.574219 158.910156 325.554688 C 159.316406 326.535156 159.671875 327.53125 159.980469 328.550781 C 160.289062 329.566406 160.546875 330.59375 160.753906 331.636719 C 160.960938 332.675781 161.117188 333.726562 161.21875 334.78125 C 161.324219 335.839844 161.375 336.898438 161.375 337.960938 Z M 161.375 337.960938 " fill-opacity="1" fill-rule="nonzero"/></g><g clip-path="url(#771f1ebb53)"><path fill="#fdfdfd" d="M 284.578125 292.570312 L 134.90625 292.570312 C 113.339844 292.570312 94.625 277.226562 90.398438 256.089844 L 58.792969 98.039062 L 25.203125 98.039062 C 21.625 98.039062 18.71875 95.132812 18.71875 91.554688 C 18.71875 87.976562 21.625 85.070312 25.203125 85.070312 L 64.109375 85.070312 C 67.195312 85.070312 69.855469 87.25 70.464844 90.285156 L 103.121094 253.535156 C 106.140625 268.644531 119.5 279.601562 134.90625 279.601562 L 284.578125 279.601562 C 288.160156 279.601562 291.0625 282.507812 291.0625 286.085938 C 291.0625 289.664062 288.160156 292.570312 284.578125 292.570312 Z M 284.578125 292.570312 " fill-opacity="1" fill-rule="nonzero"/></g><path fill="#fdfdfd" d="M 303.667969 205.40625 C 301.738281 204.265625 299.363281 204.1875 297.378906 205.238281 C 285.253906 211.554688 272.21875 214.757812 258.640625 214.757812 C 212.160156 214.757812 174.398438 179.613281 174.460938 132.070312 C 174.460938 131.976562 174.527344 130.734375 174.539062 130.65625 C 174.589844 128.867188 173.902344 127.140625 172.644531 125.882812 C 171.375 124.613281 169.625 123.9375 167.859375 123.976562 L 76.886719 123.976562 C 74.992188 124.027344 73.214844 124.921875 72.035156 126.402344 C 70.839844 127.867188 70.347656 129.785156 70.710938 131.652344 L 90.164062 235.402344 C 90.734375 238.476562 93.40625 240.695312 96.53125 240.695312 L 274.644531 240.695312 C 290.960938 240.695312 304.796875 228.492188 306.808594 212.292969 C 306.847656 211.96875 306.847656 211.152344 306.847656 210.828125 C 306.792969 208.597656 305.589844 206.546875 303.667969 205.40625 Z M 303.667969 205.40625 " fill-opacity="1" fill-rule="nonzero"/><g clip-path="url(#cd096ed4ec)"><path fill="#fdfdfd" d="M 258.640625 59.132812 C 219.308594 59.132812 187.3125 91.125 187.3125 130.460938 C 187.3125 169.796875 219.308594 201.789062 258.640625 201.789062 C 297.976562 201.789062 329.96875 169.796875 329.96875 130.460938 C 329.96875 91.125 297.976562 59.132812 258.640625 59.132812 Z M 302.140625 109.113281 L 250.265625 160.988281 C 248.992188 162.246094 247.332031 162.882812 245.671875 162.882812 C 244.011719 162.882812 242.351562 162.246094 241.082031 160.988281 L 215.144531 135.050781 C 212.617188 132.523438 212.617188 128.410156 215.144531 125.882812 C 217.671875 123.355469 221.785156 123.355469 224.3125 125.882812 L 245.671875 147.230469 L 292.957031 99.945312 C 295.484375 97.417969 299.597656 97.417969 302.125 99.945312 C 304.65625 102.472656 304.667969 106.574219 302.140625 109.113281 Z M 302.140625 109.113281 " fill-opacity="1" fill-rule="nonzero"/></g><path fill="#fdfdfd" d="M 260.527344 132.765625 C 260.425781 132.765625 260.339844 132.753906 260.238281 132.753906 C 260.527344 133.160156 260.820312 133.5625 261.085938 133.976562 C 261.828125 133.363281 262.117188 132.539062 262.054688 131.75 L 260.539062 131.75 C 260.539062 132.085938 260.542969 132.414062 260.527344 132.765625 " fill-opacity="1" fill-rule="nonzero"/><path fill="#fdfdfd" d="M 259.242188 134.570312 C 259.296875 133.960938 259.394531 133.347656 259.476562 132.730469 C 258.601562 132.714844 257.730469 132.683594 256.910156 132.613281 C 257.191406 133.6875 258.097656 134.484375 259.242188 134.570312 " fill-opacity="1" fill-rule="nonzero"/><path fill="#fdfdfd" d="M 309.613281 166.171875 L 300.6875 161.007812 L 304.746094 153.984375 L 313.671875 159.140625 Z M 285.90625 186.796875 L 280.746094 177.867188 L 287.773438 173.808594 L 292.9375 182.738281 Z M 263.179688 192.789062 L 255.0625 192.789062 L 255.0625 182.488281 L 263.179688 182.488281 Z M 232.382812 186.632812 L 225.351562 182.578125 L 230.515625 173.648438 L 237.542969 177.710938 Z M 208.789062 165.894531 L 204.734375 158.867188 L 213.65625 153.707031 L 217.714844 160.738281 Z M 319.832031 133.589844 L 319.832031 136.460938 L 309.53125 136.460938 L 309.53125 133.589844 L 264.613281 133.589844 C 264.3125 134.679688 263.617188 135.691406 262.53125 136.445312 C 263.90625 142.269531 262.601562 136.835938 269.386719 164.882812 C 269.253906 166.589844 269.136719 168.316406 268.847656 170.066406 C 267.789062 168.632812 266.90625 167.167969 266.007812 165.691406 C 259.210938 137.605469 260.484375 142.882812 259.140625 137.382812 C 256.863281 137.269531 254.894531 135.75 254.207031 133.589844 L 209.046875 133.589844 L 209.046875 136.140625 L 198.734375 136.140625 L 198.734375 133.589844 L 192.574219 133.589844 C 193.441406 169.722656 223.09375 198.835938 259.425781 198.835938 C 295.761719 198.835938 325.414062 169.722656 326.28125 133.589844 L 319.832031 133.589844 " fill-opacity="1" fill-rule="nonzero"/><path fill="#fdfdfd" d="M 260.46875 129.519531 C 260.519531 130.238281 260.539062 130.980469 260.539062 131.75 L 262.054688 131.75 C 261.988281 130.816406 261.425781 129.929688 260.46875 129.519531 " fill-opacity="1" fill-rule="nonzero"/><g clip-path="url(#13a037da9a)"><path fill="#000000" d="M 259.425781 198.835938 C 223.09375 198.835938 193.441406 169.722656 192.574219 133.589844 C 192.546875 133.035156 192.546875 132.503906 192.546875 131.949219 C 192.546875 95.066406 222.542969 65.066406 259.425781 65.066406 C 296.308594 65.066406 326.308594 95.066406 326.308594 131.949219 C 326.308594 132.503906 326.308594 133.035156 326.28125 133.589844 C 325.414062 169.722656 295.761719 198.835938 259.425781 198.835938 Z M 259.425781 56.949219 C 218.066406 56.949219 184.425781 90.605469 184.425781 131.949219 C 184.425781 132.503906 184.425781 133.054688 184.457031 133.589844 C 185.328125 174.199219 218.617188 206.949219 259.425781 206.949219 C 300.238281 206.949219 333.527344 174.199219 334.398438 133.589844 C 334.425781 133.054688 334.425781 132.503906 334.425781 131.949219 C 334.425781 90.605469 300.789062 56.949219 259.425781 56.949219 " fill-opacity="1" fill-rule="nonzero"/></g><path fill="#ffffff" d="M 304.902344 110.777344 L 300.84375 103.75 L 309.773438 98.585938 L 313.832031 105.617188 Z M 288.066406 90.835938 L 281.035156 86.777344 L 286.183594 77.851562 L 293.207031 81.910156 Z M 263.496094 81.996094 L 255.386719 81.996094 L 255.386719 71.691406 L 263.496094 71.691406 Z M 230.789062 90.679688 L 225.628906 81.75 L 232.660156 77.691406 L 237.820312 86.621094 Z M 213.832031 110.488281 L 204.894531 105.339844 L 208.945312 98.316406 L 217.890625 103.460938 Z M 259.425781 65.066406 C 222.542969 65.066406 192.546875 95.066406 192.546875 131.949219 C 192.546875 132.503906 192.546875 133.035156 192.574219 133.589844 L 198.734375 133.589844 L 198.734375 128.027344 L 209.046875 128.027344 L 209.046875 133.589844 L 254.207031 133.589844 C 254.050781 133.054688 253.964844 132.476562 253.964844 131.882812 C 253.949219 131.851562 253.90625 131.808594 253.835938 131.75 C 252.097656 129.96875 235.960938 113.535156 235.179688 112.820312 C 234.976562 110.878906 234.773438 108.953125 234.910156 106.695312 C 237.179688 106.585938 239.109375 106.835938 241.035156 107.070312 C 241.792969 107.921875 259.324219 125.75 260.125 126.558594 C 263.035156 126.9375 264.761719 129.289062 264.863281 131.75 C 264.890625 132.375 264.816406 132.996094 264.613281 133.589844 L 309.53125 133.589844 L 309.53125 128.34375 L 319.832031 128.34375 L 319.832031 133.589844 L 326.28125 133.589844 C 326.308594 133.035156 326.308594 132.503906 326.308594 131.949219 C 326.308594 95.066406 296.308594 65.066406 259.425781 65.066406 " fill-opacity="1" fill-rule="nonzero"/><path fill="#000000" d="M 263.496094 71.691406 L 263.496094 81.996094 L 255.386719 81.996094 L 255.386719 71.691406 L 263.496094 71.691406 " fill-opacity="1" fill-rule="nonzero"/><path fill="#000000" d="M 237.820312 86.621094 L 230.789062 90.679688 L 225.628906 81.75 L 232.660156 77.691406 L 237.820312 86.621094 " fill-opacity="1" fill-rule="nonzero"/><path fill="#000000" d="M 217.890625 103.460938 L 213.832031 110.488281 L 204.894531 105.339844 L 208.945312 98.316406 L 217.890625 103.460938 " fill-opacity="1" fill-rule="nonzero"/><path fill="#000000" d="M 209.046875 128.027344 L 209.046875 131.75 L 198.734375 131.75 L 198.734375 128.027344 L 209.046875 128.027344 " fill-opacity="1" fill-rule="nonzero"/><path fill="#000000" d="M 209.046875 131.75 L 209.046875 136.140625 L 198.734375 136.140625 L 198.734375 131.75 L 209.046875 131.75 " fill-opacity="1" fill-rule="nonzero"/><path fill="#000000" d="M 204.734375 158.863281 L 208.792969 165.886719 L 217.722656 160.738281 L 213.667969 153.707031 L 204.734375 158.863281 " fill-opacity="1" fill-rule="nonzero"/><path fill="#000000" d="M 225.359375 182.566406 L 232.382812 186.625 L 237.542969 177.699219 L 230.511719 173.640625 L 225.359375 182.566406 " fill-opacity="1" fill-rule="nonzero"/><path fill="#000000" d="M 255.070312 192.789062 L 263.179688 192.789062 L 263.179688 182.480469 L 255.070312 182.480469 L 255.070312 192.789062 " fill-opacity="1" fill-rule="nonzero"/><path fill="#000000" d="M 280.753906 177.855469 L 285.90625 186.789062 L 292.9375 182.730469 L 287.777344 173.796875 L 280.753906 177.855469 " fill-opacity="1" fill-rule="nonzero"/><path fill="#000000" d="M 300.6875 161.015625 L 309.613281 166.171875 L 313.671875 159.140625 L 304.746094 153.988281 L 300.6875 161.015625 " fill-opacity="1" fill-rule="nonzero"/><path fill="#000000" d="M 309.53125 128.34375 L 309.53125 136.460938 L 319.832031 136.460938 L 319.832031 128.34375 L 309.53125 128.34375 " fill-opacity="1" fill-rule="nonzero"/><path fill="#000000" d="M 313.832031 105.617188 L 304.902344 110.777344 L 300.84375 103.75 L 309.773438 98.585938 L 313.832031 105.617188 " fill-opacity="1" fill-rule="nonzero"/><path fill="#000000" d="M 293.207031 81.910156 L 288.066406 90.835938 L 281.035156 86.777344 L 286.183594 77.851562 L 293.207031 81.910156 " fill-opacity="1" fill-rule="nonzero"/><path fill="#000000" d="M 259.242188 134.578125 C 258.488281 134.519531 257.832031 134.15625 257.402344 133.589844 C 257.167969 133.300781 257.011719 132.96875 256.910156 132.605469 C 257.734375 132.691406 258.601562 132.71875 259.484375 132.738281 C 259.445312 133.023438 259.398438 133.3125 259.355469 133.589844 C 259.308594 133.925781 259.269531 134.257812 259.242188 134.578125 Z M 262.53125 136.445312 C 263.617188 135.691406 264.3125 134.679688 264.613281 133.589844 C 264.816406 132.996094 264.890625 132.375 264.863281 131.75 L 262.046875 131.75 C 262.09375 132.386719 261.917969 133.035156 261.472656 133.589844 C 261.351562 133.722656 261.222656 133.851562 261.082031 133.964844 C 260.988281 133.835938 260.921875 133.722656 260.832031 133.589844 C 260.644531 133.3125 260.441406 133.023438 260.238281 132.746094 C 260.339844 132.746094 260.429688 132.765625 260.53125 132.765625 C 260.542969 132.417969 260.53125 132.085938 260.53125 131.75 L 253.835938 131.75 C 253.90625 131.808594 253.949219 131.851562 253.964844 131.882812 C 253.964844 132.476562 254.050781 133.054688 254.207031 133.589844 C 254.894531 135.75 256.863281 137.269531 259.140625 137.382812 C 260.484375 142.882812 259.210938 137.605469 266.007812 165.691406 C 266.90625 167.167969 267.789062 168.632812 268.847656 170.066406 C 269.136719 168.316406 269.253906 166.589844 269.386719 164.882812 C 262.601562 136.835938 263.90625 142.269531 262.53125 136.445312 " fill-opacity="1" fill-rule="nonzero"/><path fill="#000000" d="M 264.863281 131.75 L 262.046875 131.75 C 261.980469 130.804688 261.425781 129.921875 260.46875 129.519531 C 260.515625 130.246094 260.542969 130.980469 260.53125 131.75 L 253.835938 131.75 C 252.097656 129.96875 235.960938 113.535156 235.179688 112.820312 C 234.976562 110.878906 234.773438 108.953125 234.910156 106.695312 C 237.179688 106.585938 239.109375 106.835938 241.035156 107.070312 C 241.792969 107.921875 259.324219 125.75 260.125 126.558594 C 263.035156 126.9375 264.761719 129.289062 264.863281 131.75 " fill-opacity="1" fill-rule="nonzero"/></svg>