<svg xmlns="http://www.w3.org/2000/svg" xmlns:xlink="http://www.w3.org/1999/xlink" width="500" zoomAndPan="magnify" viewBox="0 0 375 374.999991" height="500" preserveAspectRatio="xMidYMid meet" version="1.0"><defs><clipPath id="7107791d24"><path d="M 1.84375 1.84375 L 373.15625 1.84375 L 373.15625 373.15625 L 1.84375 373.15625 Z M 1.84375 1.84375 " clip-rule="nonzero"/></clipPath><clipPath id="42be13b641"><path d="M 187.5 1.84375 C 84.964844 1.84375 1.84375 84.964844 1.84375 187.5 C 1.84375 290.035156 84.964844 373.15625 187.5 373.15625 C 290.035156 373.15625 373.15625 290.035156 373.15625 187.5 C 373.15625 84.964844 290.035156 1.84375 187.5 1.84375 " clip-rule="nonzero"/></clipPath><clipPath id="5b34dd169d"><path d="M 223 251 L 270 251 L 270 296.714844 L 223 296.714844 Z M 223 251 " clip-rule="nonzero"/></clipPath><clipPath id="c306f91bfe"><path d="M 133 251 L 179 251 L 179 296.714844 L 133 296.714844 Z M 133 251 " clip-rule="nonzero"/></clipPath><clipPath id="8e06b3b879"><path d="M 78.464844 96 L 270 96 L 270 243 L 78.464844 243 Z M 78.464844 96 " clip-rule="nonzero"/></clipPath><clipPath id="beb0ef4d3d"><path d="M 196 78.464844 L 296.714844 78.464844 L 296.714844 179 L 196 179 Z M 196 78.464844 " clip-rule="nonzero"/></clipPath><clipPath id="0f784cfeb3"><path d="M 197 78.464844 L 297.5 78.464844 L 297.5 178.964844 L 197 178.964844 Z M 197 78.464844 " clip-rule="nonzero"/></clipPath></defs><g clip-path="url(#7107791d24)"><g clip-path="url(#42be13b641)"><path fill="#08adc6" d="M 1.84375 1.84375 L 373.15625 1.84375 L 373.15625 373.15625 L 1.84375 373.15625 Z M 1.84375 1.84375 " fill-opacity="1" fill-rule="nonzero"/></g></g><g clip-path="url(#5b34dd169d)"><path fill="#facf22" d="M 269.433594 273.980469 C 269.433594 274.722656 269.394531 275.464844 269.324219 276.207031 C 269.25 276.949219 269.140625 277.683594 268.996094 278.414062 C 268.851562 279.144531 268.667969 279.867188 268.453125 280.578125 C 268.238281 281.292969 267.988281 281.992188 267.703125 282.679688 C 267.417969 283.367188 267.097656 284.039062 266.746094 284.695312 C 266.398438 285.351562 266.015625 285.992188 265.601562 286.609375 C 265.1875 287.230469 264.746094 287.824219 264.273438 288.402344 C 263.800781 288.976562 263.300781 289.527344 262.773438 290.054688 C 262.246094 290.582031 261.695312 291.082031 261.121094 291.554688 C 260.542969 292.027344 259.949219 292.46875 259.328125 292.882812 C 258.710938 293.296875 258.070312 293.679688 257.414062 294.027344 C 256.757812 294.378906 256.085938 294.699219 255.398438 294.984375 C 254.710938 295.269531 254.011719 295.519531 253.296875 295.734375 C 252.585938 295.949219 251.863281 296.132812 251.132812 296.277344 C 250.402344 296.421875 249.667969 296.53125 248.925781 296.605469 C 248.183594 296.675781 247.441406 296.714844 246.699219 296.714844 C 245.953125 296.714844 245.210938 296.675781 244.46875 296.605469 C 243.730469 296.53125 242.992188 296.421875 242.261719 296.277344 C 241.53125 296.132812 240.8125 295.949219 240.097656 295.734375 C 239.386719 295.519531 238.6875 295.269531 237.996094 294.984375 C 237.308594 294.699219 236.636719 294.378906 235.980469 294.027344 C 235.324219 293.679688 234.6875 293.296875 234.066406 292.882812 C 233.449219 292.46875 232.851562 292.027344 232.277344 291.554688 C 231.699219 291.082031 231.148438 290.582031 230.621094 290.054688 C 230.097656 289.527344 229.597656 288.976562 229.125 288.402344 C 228.652344 287.824219 228.207031 287.230469 227.796875 286.609375 C 227.382812 285.992188 227 285.351562 226.648438 284.695312 C 226.296875 284.039062 225.980469 283.367188 225.695312 282.679688 C 225.410156 281.992188 225.160156 281.292969 224.941406 280.578125 C 224.726562 279.867188 224.546875 279.144531 224.398438 278.414062 C 224.253906 277.683594 224.144531 276.949219 224.074219 276.207031 C 224 275.464844 223.964844 274.722656 223.964844 273.980469 C 223.964844 273.234375 224 272.492188 224.074219 271.75 C 224.144531 271.011719 224.253906 270.273438 224.398438 269.542969 C 224.546875 268.8125 224.726562 268.09375 224.941406 267.378906 C 225.160156 266.667969 225.410156 265.96875 225.695312 265.277344 C 225.980469 264.589844 226.296875 263.917969 226.648438 263.261719 C 227 262.605469 227.382812 261.96875 227.796875 261.347656 C 228.207031 260.730469 228.652344 260.132812 229.125 259.554688 C 229.597656 258.980469 230.097656 258.429688 230.621094 257.902344 C 231.148438 257.378906 231.699219 256.878906 232.277344 256.40625 C 232.851562 255.933594 233.449219 255.488281 234.066406 255.078125 C 234.6875 254.664062 235.324219 254.28125 235.980469 253.929688 C 236.636719 253.578125 237.308594 253.261719 237.996094 252.976562 C 238.6875 252.691406 239.386719 252.441406 240.097656 252.222656 C 240.8125 252.007812 241.53125 251.828125 242.261719 251.679688 C 242.992188 251.535156 243.730469 251.425781 244.46875 251.355469 C 245.210938 251.28125 245.953125 251.246094 246.699219 251.246094 C 247.441406 251.246094 248.183594 251.28125 248.925781 251.355469 C 249.667969 251.425781 250.402344 251.535156 251.132812 251.679688 C 251.863281 251.828125 252.585938 252.007812 253.296875 252.222656 C 254.011719 252.441406 254.710938 252.691406 255.398438 252.976562 C 256.085938 253.261719 256.757812 253.578125 257.414062 253.929688 C 258.070312 254.28125 258.710938 254.664062 259.328125 255.078125 C 259.949219 255.488281 260.542969 255.933594 261.121094 256.40625 C 261.695312 256.878906 262.246094 257.378906 262.773438 257.902344 C 263.300781 258.429688 263.800781 258.980469 264.273438 259.554688 C 264.746094 260.132812 265.1875 260.730469 265.601562 261.347656 C 266.015625 261.96875 266.398438 262.605469 266.746094 263.261719 C 267.097656 263.917969 267.417969 264.589844 267.703125 265.277344 C 267.988281 265.96875 268.238281 266.667969 268.453125 267.378906 C 268.667969 268.09375 268.851562 268.8125 268.996094 269.542969 C 269.140625 270.273438 269.25 271.011719 269.324219 271.75 C 269.394531 272.492188 269.433594 273.234375 269.433594 273.980469 Z M 269.433594 273.980469 " fill-opacity="1" fill-rule="nonzero"/></g><g clip-path="url(#c306f91bfe)"><path fill="#facf22" d="M 178.496094 273.980469 C 178.496094 274.722656 178.457031 275.464844 178.386719 276.207031 C 178.3125 276.949219 178.203125 277.683594 178.058594 278.414062 C 177.914062 279.144531 177.730469 279.867188 177.515625 280.578125 C 177.300781 281.292969 177.050781 281.992188 176.765625 282.679688 C 176.480469 283.367188 176.160156 284.039062 175.808594 284.695312 C 175.460938 285.351562 175.078125 285.992188 174.664062 286.609375 C 174.25 287.230469 173.808594 287.824219 173.335938 288.402344 C 172.863281 288.976562 172.363281 289.527344 171.835938 290.054688 C 171.308594 290.582031 170.757812 291.082031 170.183594 291.554688 C 169.605469 292.027344 169.011719 292.46875 168.390625 292.882812 C 167.773438 293.296875 167.132812 293.679688 166.476562 294.027344 C 165.820312 294.378906 165.148438 294.699219 164.460938 294.984375 C 163.773438 295.269531 163.074219 295.519531 162.359375 295.734375 C 161.648438 295.949219 160.925781 296.132812 160.195312 296.277344 C 159.464844 296.421875 158.730469 296.53125 157.988281 296.605469 C 157.246094 296.675781 156.503906 296.714844 155.761719 296.714844 C 155.015625 296.714844 154.273438 296.675781 153.53125 296.605469 C 152.792969 296.53125 152.054688 296.421875 151.324219 296.277344 C 150.59375 296.132812 149.875 295.949219 149.160156 295.734375 C 148.449219 295.519531 147.75 295.269531 147.058594 294.984375 C 146.371094 294.699219 145.699219 294.378906 145.042969 294.027344 C 144.386719 293.679688 143.75 293.296875 143.128906 292.882812 C 142.511719 292.46875 141.914062 292.027344 141.339844 291.554688 C 140.761719 291.082031 140.210938 290.582031 139.683594 290.054688 C 139.160156 289.527344 138.660156 288.976562 138.1875 288.402344 C 137.714844 287.824219 137.269531 287.230469 136.859375 286.609375 C 136.445312 285.992188 136.0625 285.351562 135.710938 284.695312 C 135.359375 284.039062 135.042969 283.367188 134.757812 282.679688 C 134.472656 281.992188 134.222656 281.292969 134.003906 280.578125 C 133.789062 279.867188 133.609375 279.144531 133.460938 278.414062 C 133.316406 277.683594 133.207031 276.949219 133.136719 276.207031 C 133.0625 275.464844 133.027344 274.722656 133.027344 273.980469 C 133.027344 273.234375 133.0625 272.492188 133.136719 271.75 C 133.207031 271.011719 133.316406 270.273438 133.460938 269.542969 C 133.609375 268.8125 133.789062 268.09375 134.003906 267.378906 C 134.222656 266.667969 134.472656 265.96875 134.757812 265.277344 C 135.042969 264.589844 135.359375 263.917969 135.710938 263.261719 C 136.0625 262.605469 136.445312 261.96875 136.859375 261.347656 C 137.269531 260.730469 137.714844 260.132812 138.1875 259.554688 C 138.660156 258.980469 139.160156 258.429688 139.683594 257.902344 C 140.210938 257.378906 140.761719 256.878906 141.339844 256.40625 C 141.914062 255.933594 142.511719 255.488281 143.128906 255.078125 C 143.75 254.664062 144.386719 254.28125 145.042969 253.929688 C 145.699219 253.578125 146.371094 253.261719 147.058594 252.976562 C 147.75 252.691406 148.449219 252.441406 149.160156 252.222656 C 149.875 252.007812 150.59375 251.828125 151.324219 251.679688 C 152.054688 251.535156 152.792969 251.425781 153.53125 251.355469 C 154.273438 251.28125 155.015625 251.246094 155.761719 251.246094 C 156.503906 251.246094 157.246094 251.28125 157.988281 251.355469 C 158.730469 251.425781 159.464844 251.535156 160.195312 251.679688 C 160.925781 251.828125 161.648438 252.007812 162.359375 252.222656 C 163.074219 252.441406 163.773438 252.691406 164.460938 252.976562 C 165.148438 253.261719 165.820312 253.578125 166.476562 253.929688 C 167.132812 254.28125 167.773438 254.664062 168.390625 255.078125 C 169.011719 255.488281 169.605469 255.933594 170.183594 256.40625 C 170.757812 256.878906 171.308594 257.378906 171.835938 257.902344 C 172.363281 258.429688 172.863281 258.980469 173.335938 259.554688 C 173.808594 260.132812 174.25 260.730469 174.664062 261.347656 C 175.078125 261.96875 175.460938 262.605469 175.808594 263.261719 C 176.160156 263.917969 176.480469 264.589844 176.765625 265.277344 C 177.050781 265.96875 177.300781 266.667969 177.515625 267.378906 C 177.730469 268.09375 177.914062 268.8125 178.058594 269.542969 C 178.203125 270.273438 178.3125 271.011719 178.386719 271.75 C 178.457031 272.492188 178.496094 273.234375 178.496094 273.980469 Z M 178.496094 273.980469 " fill-opacity="1" fill-rule="nonzero"/></g><g clip-path="url(#8e06b3b879)"><path fill="#facf22" d="M 264.886719 242.152344 L 159.933594 242.152344 C 144.8125 242.152344 131.6875 231.394531 128.726562 216.570312 L 106.5625 105.746094 L 83.011719 105.746094 C 80.5 105.746094 78.464844 103.707031 78.464844 101.199219 C 78.464844 98.6875 80.5 96.652344 83.011719 96.652344 L 110.292969 96.652344 C 112.457031 96.652344 114.320312 98.179688 114.746094 100.308594 L 137.644531 214.777344 C 139.765625 225.375 149.132812 233.058594 159.933594 233.058594 L 264.886719 233.058594 C 267.394531 233.058594 269.433594 235.09375 269.433594 237.605469 C 269.433594 240.113281 267.394531 242.152344 264.886719 242.152344 Z M 264.886719 242.152344 " fill-opacity="1" fill-rule="nonzero"/></g><path fill="#facf22" d="M 278.269531 181.03125 C 276.917969 180.230469 275.253906 180.175781 273.859375 180.914062 C 265.359375 185.34375 256.21875 187.589844 246.699219 187.589844 C 214.105469 187.589844 187.625 162.945312 187.671875 129.605469 C 187.671875 129.542969 187.714844 128.671875 187.726562 128.617188 C 187.761719 127.359375 187.28125 126.152344 186.398438 125.269531 C 185.507812 124.378906 184.277344 123.90625 183.042969 123.933594 L 119.25 123.933594 C 117.921875 123.96875 116.675781 124.597656 115.847656 125.632812 C 115.011719 126.660156 114.664062 128.007812 114.921875 129.316406 L 128.5625 202.066406 C 128.960938 204.222656 130.835938 205.777344 133.027344 205.777344 L 257.917969 205.777344 C 269.359375 205.777344 279.0625 197.21875 280.472656 185.859375 C 280.5 185.632812 280.5 185.058594 280.5 184.832031 C 280.464844 183.269531 279.617188 181.832031 278.269531 181.03125 Z M 278.269531 181.03125 " fill-opacity="1" fill-rule="nonzero"/><g clip-path="url(#beb0ef4d3d)"><path fill="#facf22" d="M 246.699219 78.464844 C 219.117188 78.464844 196.683594 100.898438 196.683594 128.480469 C 196.683594 156.058594 219.117188 178.496094 246.699219 178.496094 C 274.277344 178.496094 296.714844 156.058594 296.714844 128.480469 C 296.714844 100.898438 274.277344 78.464844 246.699219 78.464844 Z M 277.199219 113.511719 L 240.824219 149.886719 C 239.933594 150.769531 238.769531 151.214844 237.605469 151.214844 C 236.441406 151.214844 235.277344 150.769531 234.386719 149.886719 L 216.199219 131.699219 C 214.425781 129.925781 214.425781 127.042969 216.199219 125.269531 C 217.972656 123.496094 220.851562 123.496094 222.625 125.269531 L 237.605469 140.238281 L 270.761719 107.082031 C 272.535156 105.308594 275.414062 105.308594 277.1875 107.082031 C 278.960938 108.855469 278.972656 111.726562 277.199219 113.511719 Z M 277.199219 113.511719 " fill-opacity="1" fill-rule="nonzero"/></g><path fill="#fdfdfd" d="M 247.9375 129.304688 C 247.867188 129.304688 247.8125 129.296875 247.742188 129.296875 C 247.9375 129.570312 248.132812 129.839844 248.3125 130.117188 C 248.808594 129.707031 249.003906 129.152344 248.960938 128.625 L 247.945312 128.625 C 247.945312 128.847656 247.949219 129.070312 247.9375 129.304688 " fill-opacity="1" fill-rule="nonzero"/><path fill="#fdfdfd" d="M 247.074219 130.515625 C 247.113281 130.105469 247.175781 129.695312 247.234375 129.28125 C 246.648438 129.269531 246.0625 129.25 245.511719 129.203125 C 245.703125 129.921875 246.308594 130.457031 247.074219 130.515625 " fill-opacity="1" fill-rule="nonzero"/><path fill="#fdfdfd" d="M 280.824219 151.6875 L 274.84375 148.226562 L 277.5625 143.519531 L 283.546875 146.976562 Z M 264.941406 165.503906 L 261.484375 159.523438 L 266.191406 156.804688 L 269.652344 162.785156 Z M 249.714844 169.523438 L 244.277344 169.523438 L 244.277344 162.617188 L 249.714844 162.617188 Z M 229.082031 165.394531 L 224.371094 162.679688 L 227.828125 156.699219 L 232.535156 159.417969 Z M 213.273438 151.5 L 210.554688 146.792969 L 216.535156 143.335938 L 219.253906 148.046875 Z M 287.671875 129.859375 L 287.671875 131.78125 L 280.769531 131.78125 L 280.769531 129.859375 L 250.675781 129.859375 C 250.472656 130.585938 250.007812 131.265625 249.277344 131.769531 C 250.199219 135.671875 249.328125 132.03125 253.871094 150.824219 C 253.785156 151.96875 253.707031 153.125 253.511719 154.296875 C 252.800781 153.335938 252.210938 152.355469 251.609375 151.363281 C 247.054688 132.546875 247.910156 136.082031 247.007812 132.398438 C 245.480469 132.324219 244.164062 131.304688 243.703125 129.859375 L 213.445312 129.859375 L 213.445312 131.566406 L 206.535156 131.566406 L 206.535156 129.859375 L 202.410156 129.859375 C 202.988281 154.066406 222.855469 173.574219 247.199219 173.574219 C 271.542969 173.574219 291.410156 154.066406 291.992188 129.859375 L 287.671875 129.859375 " fill-opacity="1" fill-rule="nonzero"/><path fill="#fdfdfd" d="M 247.898438 127.132812 C 247.933594 127.613281 247.945312 128.109375 247.945312 128.625 L 248.960938 128.625 C 248.914062 128 248.539062 127.402344 247.898438 127.132812 " fill-opacity="1" fill-rule="nonzero"/><g clip-path="url(#0f784cfeb3)"><path fill="#facf22" d="M 247.199219 173.574219 C 222.855469 173.574219 202.988281 154.066406 202.410156 129.859375 C 202.390625 129.488281 202.390625 129.128906 202.390625 128.757812 C 202.390625 104.046875 222.488281 83.949219 247.199219 83.949219 C 271.910156 83.949219 292.011719 104.046875 292.011719 128.757812 C 292.011719 129.128906 292.011719 129.488281 291.992188 129.859375 C 291.410156 154.066406 271.542969 173.574219 247.199219 173.574219 Z M 247.199219 78.507812 C 219.488281 78.507812 196.949219 101.058594 196.949219 128.757812 C 196.949219 129.128906 196.949219 129.496094 196.96875 129.859375 C 197.554688 157.066406 219.855469 179.007812 247.199219 179.007812 C 274.542969 179.007812 296.847656 157.066406 297.429688 129.859375 C 297.449219 129.496094 297.449219 129.128906 297.449219 128.757812 C 297.449219 101.058594 274.914062 78.507812 247.199219 78.507812 " fill-opacity="1" fill-rule="nonzero"/></g><path fill="#ffffff" d="M 277.667969 114.574219 L 274.949219 109.867188 L 280.933594 106.40625 L 283.652344 111.117188 Z M 266.390625 101.214844 L 261.679688 98.492188 L 265.125 92.511719 L 269.832031 95.230469 Z M 249.925781 95.289062 L 244.492188 95.289062 L 244.492188 88.386719 L 249.925781 88.386719 Z M 228.011719 101.105469 L 224.554688 95.125 L 229.265625 92.40625 L 232.722656 98.386719 Z M 216.652344 114.378906 L 210.664062 110.929688 L 213.378906 106.222656 L 219.371094 109.671875 Z M 247.199219 83.949219 C 222.488281 83.949219 202.390625 104.046875 202.390625 128.757812 C 202.390625 129.128906 202.390625 129.488281 202.410156 129.859375 L 206.535156 129.859375 L 206.535156 126.128906 L 213.445312 126.128906 L 213.445312 129.859375 L 243.703125 129.859375 C 243.597656 129.496094 243.539062 129.109375 243.539062 128.710938 C 243.527344 128.695312 243.503906 128.664062 243.453125 128.625 C 242.289062 127.429688 231.476562 116.417969 230.953125 115.941406 C 230.816406 114.640625 230.683594 113.351562 230.773438 111.835938 C 232.292969 111.765625 233.585938 111.933594 234.875 112.089844 C 235.386719 112.660156 247.132812 124.605469 247.667969 125.148438 C 249.617188 125.402344 250.773438 126.976562 250.839844 128.625 C 250.859375 129.042969 250.8125 129.460938 250.675781 129.859375 L 280.769531 129.859375 L 280.769531 126.34375 L 287.671875 126.34375 L 287.671875 129.859375 L 291.992188 129.859375 C 292.011719 129.488281 292.011719 129.128906 292.011719 128.757812 C 292.011719 104.046875 271.910156 83.949219 247.199219 83.949219 " fill-opacity="1" fill-rule="nonzero"/><path fill="#facf22" d="M 249.925781 88.386719 L 249.925781 95.289062 L 244.492188 95.289062 L 244.492188 88.386719 L 249.925781 88.386719 " fill-opacity="1" fill-rule="nonzero"/><path fill="#facf22" d="M 232.722656 98.386719 L 228.011719 101.105469 L 224.554688 95.125 L 229.265625 92.40625 L 232.722656 98.386719 " fill-opacity="1" fill-rule="nonzero"/><path fill="#facf22" d="M 219.371094 109.671875 L 216.652344 114.378906 L 210.664062 110.929688 L 213.378906 106.222656 L 219.371094 109.671875 " fill-opacity="1" fill-rule="nonzero"/><path fill="#facf22" d="M 213.445312 126.128906 L 213.445312 128.625 L 206.535156 128.625 L 206.535156 126.128906 L 213.445312 126.128906 " fill-opacity="1" fill-rule="nonzero"/><path fill="#facf22" d="M 213.445312 128.625 L 213.445312 131.566406 L 206.535156 131.566406 L 206.535156 128.625 L 213.445312 128.625 " fill-opacity="1" fill-rule="nonzero"/><path fill="#facf22" d="M 210.554688 146.789062 L 213.277344 151.496094 L 219.257812 148.046875 L 216.542969 143.335938 L 210.554688 146.789062 " fill-opacity="1" fill-rule="nonzero"/><path fill="#facf22" d="M 224.375 162.671875 L 229.082031 165.390625 L 232.535156 159.410156 L 227.824219 156.691406 L 224.375 162.671875 " fill-opacity="1" fill-rule="nonzero"/><path fill="#facf22" d="M 244.28125 169.523438 L 249.714844 169.523438 L 249.714844 162.613281 L 244.28125 162.613281 L 244.28125 169.523438 " fill-opacity="1" fill-rule="nonzero"/><path fill="#facf22" d="M 261.488281 159.515625 L 264.941406 165.5 L 269.652344 162.78125 L 266.195312 156.796875 L 261.488281 159.515625 " fill-opacity="1" fill-rule="nonzero"/><path fill="#facf22" d="M 274.84375 148.230469 L 280.824219 151.6875 L 283.546875 146.976562 L 277.5625 143.523438 L 274.84375 148.230469 " fill-opacity="1" fill-rule="nonzero"/><path fill="#facf22" d="M 280.769531 126.34375 L 280.769531 131.78125 L 287.671875 131.78125 L 287.671875 126.34375 L 280.769531 126.34375 " fill-opacity="1" fill-rule="nonzero"/><path fill="#facf22" d="M 283.652344 111.117188 L 277.667969 114.574219 L 274.949219 109.867188 L 280.933594 106.40625 L 283.652344 111.117188 " fill-opacity="1" fill-rule="nonzero"/><path fill="#facf22" d="M 269.832031 95.230469 L 266.390625 101.214844 L 261.679688 98.492188 L 265.125 92.511719 L 269.832031 95.230469 " fill-opacity="1" fill-rule="nonzero"/><path fill="#facf22" d="M 247.074219 130.519531 C 246.570312 130.480469 246.128906 130.238281 245.84375 129.859375 C 245.6875 129.664062 245.582031 129.441406 245.511719 129.199219 C 246.066406 129.253906 246.648438 129.273438 247.238281 129.285156 C 247.210938 129.480469 247.179688 129.671875 247.152344 129.859375 C 247.121094 130.082031 247.09375 130.304688 247.074219 130.519531 Z M 249.277344 131.769531 C 250.007812 131.265625 250.472656 130.585938 250.675781 129.859375 C 250.8125 129.460938 250.859375 129.042969 250.839844 128.625 L 248.957031 128.625 C 248.988281 129.050781 248.871094 129.488281 248.570312 129.859375 C 248.488281 129.945312 248.402344 130.03125 248.308594 130.109375 C 248.246094 130.019531 248.203125 129.945312 248.140625 129.859375 C 248.015625 129.671875 247.878906 129.480469 247.742188 129.292969 C 247.8125 129.292969 247.871094 129.304688 247.941406 129.304688 C 247.949219 129.074219 247.941406 128.847656 247.941406 128.625 L 243.453125 128.625 C 243.503906 128.664062 243.527344 128.695312 243.539062 128.710938 C 243.539062 129.109375 243.597656 129.496094 243.703125 129.859375 C 244.164062 131.304688 245.480469 132.324219 247.007812 132.398438 C 247.910156 136.082031 247.054688 132.546875 251.609375 151.363281 C 252.210938 152.355469 252.800781 153.335938 253.511719 154.296875 C 253.707031 153.125 253.785156 151.96875 253.871094 150.824219 C 249.328125 132.03125 250.199219 135.671875 249.277344 131.769531 " fill-opacity="1" fill-rule="nonzero"/><path fill="#facf22" d="M 250.839844 128.625 L 248.957031 128.625 C 248.910156 127.992188 248.539062 127.402344 247.898438 127.132812 C 247.929688 127.617188 247.949219 128.109375 247.941406 128.625 L 243.453125 128.625 C 242.289062 127.429688 231.476562 116.417969 230.953125 115.941406 C 230.816406 114.640625 230.683594 113.351562 230.773438 111.835938 C 232.292969 111.765625 233.585938 111.933594 234.875 112.089844 C 235.386719 112.660156 247.132812 124.605469 247.667969 125.148438 C 249.617188 125.402344 250.773438 126.976562 250.839844 128.625 " fill-opacity="1" fill-rule="nonzero"/></svg>