<svg xmlns="http://www.w3.org/2000/svg" xmlns:xlink="http://www.w3.org/1999/xlink" width="500" zoomAndPan="magnify" viewBox="0 0 375 374.999991" height="500" preserveAspectRatio="xMidYMid meet" version="1.0"><defs><clipPath id="524a58db0d"><path d="M 0 0.511719 L 375 0.511719 L 375 374.761719 L 0 374.761719 Z M 0 0.511719 " clip-rule="nonzero"/></clipPath></defs><g clip-path="url(#524a58db0d)"><path stroke-linecap="butt" transform="matrix(0.687151, 0, 0, 0.677389, -62.675418, -38.135165)" fill="none" stroke-linejoin="miter" d="M 360.000548 329.998547 C 360.000548 332.437829 356.709103 331.203772 355.941667 329.998547 C 353.86675 326.734638 356.856905 322.888299 360.000548 321.890673 C 365.622722 320.097253 371.028878 324.641353 372.165819 329.998547 C 373.837123 337.864223 367.566892 345.020603 360.000548 346.225828 C 349.910194 347.828949 340.962466 339.778742 339.717516 329.998547 C 338.154222 317.692571 348.011502 306.937817 360.000548 305.663393 C 374.519287 304.123704 387.099542 315.806885 388.389971 329.998547 C 389.913472 346.727524 376.40661 361.144085 360.000548 362.447342 C 341.059106 363.952431 324.812216 348.61321 323.493364 329.998547 C 321.998286 308.846569 339.177469 290.768202 360.000548 289.441879 C 383.359006 287.954089 403.283901 306.96665 404.614122 329.998547 C 406.09783 355.573526 385.240643 377.330999 360.000548 378.674623 C 332.219388 380.145112 308.616488 357.453445 307.269213 329.998547 C 305.802558 300.012101 330.33775 274.563988 360.000548 273.214598 C 392.198724 271.749875 419.485314 298.132181 420.838274 329.998547 C 422.299243 364.407994 394.080362 393.54098 360.000548 394.896137 C 323.37967 396.355093 292.40939 366.287914 291.050746 329.998547 C 289.595461 291.171866 321.503717 258.354007 360.000548 256.993084 C 401.038442 255.539894 435.698096 289.291946 437.062425 329.998547 C 438.512025 373.248229 402.92008 409.756728 360.000548 411.117651 C 314.539952 412.565074 276.190924 375.128149 274.826594 329.998547 C 273.376994 282.331631 312.663999 242.13826 360.000548 240.765803 C 409.87816 239.324147 451.916563 280.451711 453.286577 329.998547 C 454.730492 382.088464 411.754113 425.972475 360.000548 427.344932 C 305.705918 428.786588 259.972457 383.962617 258.602442 329.998547 C 257.158527 273.497162 303.824281 225.922512 360.000548 224.538522 C 418.712194 223.102633 468.140714 271.611476 469.510729 329.998547 C 470.948959 390.922933 420.593831 442.188223 360.000548 443.572212 C 296.8662 445.008102 243.748305 392.802852 242.378291 329.998547 C 240.945745 264.656927 294.990247 209.700998 360.000548 208.322775 C 427.551912 206.886885 484.359181 262.777008 485.740565 329.998547 C 487.173111 399.763168 429.43355 458.409737 360.000548 459.78796 C 288.026482 461.223849 227.529838 401.637321 226.148455 329.998547 C 224.721593 255.816692 286.150529 193.479484 360.000548 192.101261 C 436.39163 190.671138 500.577648 253.942539 501.959032 329.998547 C 503.391578 408.597636 438.267583 474.631251 360.000548 476.021007 C 279.192448 477.45113 211.311371 410.483322 209.929988 329.998547 C 208.503126 246.982224 277.316495 177.25797 360.000548 175.868213 C 445.225664 174.443857 516.8018 245.102304 518.177499 329.998547 C 519.610045 417.437871 447.101617 490.852765 360.000548 492.242521 C 270.35273 493.666878 195.08722 419.317791 193.700151 329.998547 C 192.27329 238.141989 268.471093 161.042222 360.000548 159.652466 C 454.065382 158.222343 533.020267 236.267836 534.407335 329.998547 C 535.834196 426.278106 455.947019 507.080046 360.000548 508.458269 C 261.513012 509.882625 178.868753 428.152259 177.481684 329.998547 C 176.054823 229.30752 259.637059 144.809175 360.000548 143.419418 C 462.899415 141.995062 549.238734 227.421834 550.631487 329.998547 C 552.052663 435.112575 464.781053 523.30156 360.000548 524.691316 C 252.678979 526.115672 162.650286 436.992494 161.257533 329.998547 C 159.836356 220.467285 250.803026 128.587661 360.000548 127.197904 C 471.739133 125.779315 565.46857 218.587366 566.861323 329.998547 C 568.282499 443.95281 473.626456 539.517307 360.000548 540.91283 C 243.83926 542.33142 146.42045 445.826963 145.027697 329.998547 C 143.60652 211.632817 241.957623 112.371913 360.000548 110.982157 C 480.578852 109.557801 581.692721 209.758664 583.07979 329.998547 C 584.500966 452.787278 482.460489 555.738821 360.000548 557.140111 C 234.999542 558.558701 130.201983 454.667198 128.80923 329.998547 C 127.388053 202.792582 233.129274 96.138866 360.000548 94.749109 C 489.41857 93.33052 597.911188 200.912663 599.298257 329.998547 C 600.719433 461.627513 491.288838 571.971869 360.000548 573.361625 C 226.159824 574.780215 113.977831 463.501666 112.579393 329.998547 C 111.158217 193.952347 224.278186 79.917352 360.000548 78.527595 C 498.258288 77.109006 614.129655 192.078194 615.528093 329.998547 C 616.94927 470.461981 500.139926 588.187616 360.000548 589.577373 C 217.331475 591.001729 97.747995 472.341901 96.360926 329.998547 C 94.93975 185.117879 215.449837 63.701604 360.000548 62.300315 C 507.092322 60.881725 630.359492 183.232192 631.752245 329.998547 C 633.167736 479.302216 508.968275 604.40913 360.000548 605.81042 C 358.39746 605.82772 356.800058 605.82772 355.196971 605.81042 " stroke="#000000" stroke-width="7.492" stroke-opacity="1" stroke-miterlimit="4"/></g></svg>