<svg xmlns="http://www.w3.org/2000/svg" xmlns:xlink="http://www.w3.org/1999/xlink" width="500" zoomAndPan="magnify" viewBox="0 0 375 374.999991" height="500" preserveAspectRatio="xMidYMid meet" version="1.0"><defs><clipPath id="d8733fa0fb"><path d="M 21 57.640625 L 329.699219 57.640625 L 329.699219 316 L 21 316 Z M 21 57.640625 " clip-rule="nonzero"/></clipPath><clipPath id="878352b9f9"><path d="M 45.65625 57.640625 L 354 57.640625 L 354 316 L 45.65625 316 Z M 45.65625 57.640625 " clip-rule="nonzero"/></clipPath></defs><g clip-path="url(#d8733fa0fb)"><path fill="#ff66c4" d="M 362.625 -312.652344 L 382.933594 -315.832031 C 382.933594 -315.832031 409.984375 -344.664062 412.136719 -353.277344 C 414.289062 -361.886719 428.703125 -400.453125 441.523438 -421.796875 C 454.347656 -443.234375 462.957031 -477.492188 467.261719 -482.828125 C 471.566406 -488.164062 476.902344 -497.804688 479.054688 -505.292969 C 481.207031 -512.78125 486.542969 -519.242188 487.574219 -524.578125 C 488.601562 -529.914062 496.089844 -555.65625 496.089844 -555.65625 C 496.089844 -555.65625 491.785156 -567.449219 488.601562 -578.121094 C 485.421875 -588.886719 491.785156 -609.199219 491.785156 -609.199219 C 491.785156 -609.199219 480.554688 -688.203125 472.222656 -717.875 C 463.894531 -747.550781 449.199219 -778.347656 449.199219 -778.347656 C 449.199219 -778.347656 433.664062 -780.21875 426.734375 -787.144531 C 419.808594 -794.074219 414.664062 -797.070312 412.230469 -798.941406 C 409.796875 -800.8125 385.742188 -807.273438 383.871094 -809.425781 C 381.996094 -811.578125 383.871094 -817.753906 387.332031 -819.066406 C 390.796875 -820.375 401.558594 -820.9375 407.457031 -819.066406 C 413.351562 -817.195312 420.839844 -815.601562 421.683594 -817.476562 C 422.523438 -819.347656 423.554688 -825.523438 421.121094 -829.832031 C 418.6875 -834.136719 404.273438 -850.425781 400.808594 -854.167969 C 397.347656 -857.914062 371.328125 -871.578125 370.578125 -873.734375 C 369.738281 -875.886719 368.707031 -878.039062 369.550781 -880.472656 C 370.390625 -882.90625 373.199219 -884.125 373.199219 -884.125 C 373.199219 -884.125 363.277344 -892.921875 362.34375 -894.699219 C 361.40625 -896.480469 359.628906 -903.5 360.191406 -905.652344 C 360.75 -907.804688 362.71875 -908.460938 363.652344 -908.367188 C 364.589844 -908.273438 368.988281 -907.992188 368.988281 -907.992188 C 368.988281 -907.992188 367.773438 -909.492188 368.613281 -910.894531 C 369.457031 -912.394531 371.234375 -913.421875 373.386719 -912.765625 C 375.539062 -912.113281 381.4375 -908.929688 381.4375 -908.929688 C 381.4375 -908.929688 400.4375 -898.914062 409.515625 -893.484375 C 418.59375 -888.148438 441.898438 -863.808594 445.363281 -859.503906 C 448.824219 -855.199219 468.386719 -819.066406 478.027344 -805.679688 C 487.667969 -792.292969 492.441406 -778.347656 494.03125 -774.039062 C 495.621094 -769.734375 535.773438 -700.652344 545.414062 -667.515625 C 555.054688 -634.285156 572.183594 -582.425781 572.183594 -582.425781 C 572.183594 -582.425781 618.792969 -566.328125 616.078125 -564.734375 C 613.457031 -563.144531 645 -538.992188 645 -538.992188 C 645 -538.992188 642.285156 -526.167969 628.996094 -512.78125 C 615.609375 -499.398438 612.429688 -489.753906 609.714844 -475.339844 C 607 -460.925781 608.683594 -439.488281 606.53125 -432 C 604.378906 -424.511719 593.710938 -403.636719 593.710938 -403.636719 C 593.710938 -403.636719 590.527344 -369.9375 601.195312 -361.328125 C 611.867188 -352.714844 599.042969 -310.964844 617.296875 -303.476562 C 635.546875 -295.988281 672.984375 -292.804688 672.984375 -292.804688 C 672.984375 -292.804688 684.777344 -423.480469 683.652344 -436.867188 C 682.625 -450.253906 688.519531 -506.980469 698.160156 -523.078125 C 707.800781 -539.085938 776.3125 -619.496094 808.414062 -640.835938 C 840.519531 -662.273438 898.921875 -696.535156 903.226562 -706.175781 C 907.53125 -715.816406 946.5625 -773.667969 954.609375 -791.828125 C 962.660156 -810.078125 965.375 -812.699219 965.375 -812.699219 L 977.167969 -806.242188 C 977.167969 -806.242188 985.777344 -815.882812 989.988281 -830.859375 C 994.292969 -845.835938 1003.371094 -870.457031 1011.421875 -872.609375 C 1019.472656 -874.761719 1036.597656 -875.792969 1040.902344 -867.273438 C 1045.210938 -858.660156 1039.875 -772.449219 1040.902344 -750.546875 C 1041.933594 -728.640625 1041.464844 -710.949219 1039.3125 -703.929688 C 1037.160156 -697.003906 1022.839844 -686.519531 1021.8125 -671.449219 C 1020.78125 -656.46875 1035.101562 -619.777344 1035.101562 -619.777344 C 1035.101562 -619.777344 945.15625 -482.734375 909.871094 -453.808594 C 874.492188 -424.886719 845.570312 -397.085938 840.238281 -386.320312 C 834.902344 -375.648438 832.75 -269.589844 832.75 -240.667969 C 832.75 -211.742188 835.933594 -160.351562 832.75 -125.0625 C 829.566406 -89.679688 819.925781 -47.929688 822.078125 -41.46875 C 824.234375 -35.011719 852.964844 -12.734375 876.644531 13.007812 C 900.324219 38.84375 901.355469 62.339844 905.660156 69.828125 C 909.964844 77.316406 949.554688 71.980469 957.042969 71.980469 C 964.53125 71.980469 1038.472656 109.988281 1042.683594 109.988281 C 1046.988281 109.988281 1030.421875 159.785156 1030.421875 159.785156 L 1051.292969 181.691406 C 1051.292969 181.691406 1060.933594 203.125 1061.496094 213.328125 C 1062.054688 223.53125 1066.828125 274.921875 1060.933594 282.972656 C 1055.035156 291.023438 1046.519531 293.738281 1037.347656 286.15625 C 1028.269531 278.667969 1008.425781 250.867188 1004.683594 247.589844 C 1000.9375 244.40625 976.324219 232.050781 976.324219 232.050781 C 976.324219 232.050781 896.582031 224.5625 885.816406 219.226562 C 875.148438 213.890625 869.25 202.097656 859.609375 201.535156 C 849.972656 200.972656 755.160156 186.558594 743.460938 175.886719 C 731.667969 165.121094 727.457031 164.089844 722.027344 157.632812 C 716.691406 151.171875 711.265625 149.113281 708.644531 144.246094 C 706.023438 139.472656 686.742188 63.371094 683.464844 46.238281 C 680.285156 29.109375 670.644531 8.703125 670.644531 8.703125 L 664.1875 -8.425781 L 658.851562 -13.761719 C 658.851562 -13.761719 602.132812 -49.050781 589.214844 -57.664062 C 576.394531 -66.277344 562.449219 -64.125 545.320312 -65.152344 C 528.191406 -66.183594 487.480469 -56.542969 482.144531 -58.695312 C 476.808594 -60.847656 457.527344 -35.105469 457.527344 -19.097656 C 457.527344 -2.996094 457.527344 10.855469 451.070312 31.261719 C 444.707031 51.574219 428.609375 59.15625 421.121094 68.800781 C 413.632812 78.441406 413.632812 117.007812 413.632812 117.007812 C 413.632812 117.007812 371.890625 111.671875 375.070312 117.007812 C 378.253906 122.34375 320.507812 117.007812 320.507812 117.007812 C 320.507812 117.007812 303.378906 145.929688 257.328125 182.34375 C 211.28125 218.757812 134.71875 271.738281 124.050781 279.226562 C 113.382812 286.71875 68.363281 306.5625 61.4375 306.5625 C 54.511719 306.5625 48.613281 309.277344 48.613281 309.277344 C 48.613281 309.277344 43.277344 314.894531 40.84375 315.171875 C 38.410156 315.453125 35.511719 315.171875 34.667969 313.863281 C 33.824219 312.550781 28.769531 316.765625 26.898438 313.863281 C 25.027344 310.960938 24.746094 309.839844 24.746094 309.839844 C 24.746094 309.839844 22.3125 307.683594 21.378906 306.46875 C 20.441406 305.25 26.058594 300.476562 28.863281 298.980469 C 31.671875 297.480469 43.183594 296.171875 47.210938 293.175781 C 51.234375 290.273438 82.308594 265.375 83.617188 262.660156 C 84.929688 259.945312 93.539062 251.144531 95.597656 246.277344 C 97.75 241.410156 100.933594 233.171875 98.59375 231.019531 C 96.160156 228.867188 81.183594 231.863281 74.726562 229.710938 C 68.269531 227.558594 60.03125 222.222656 59.46875 219.226562 C 58.910156 216.324219 64.054688 213.046875 72.574219 212.300781 C 81.089844 211.457031 106.546875 207.992188 113.007812 207.710938 C 119.464844 207.433594 145.671875 212.300781 145.671875 212.300781 C 145.671875 212.300781 156.902344 211.738281 166.542969 201.628906 C 176.183594 191.425781 245.816406 95.101562 245.816406 95.101562 C 245.816406 95.101562 260.792969 32.480469 277.921875 11.042969 C 295.046875 -10.390625 303.660156 -17.882812 303.660156 -24.246094 C 303.660156 -30.707031 303.660156 -40.347656 303.660156 -56.355469 C 303.660156 -72.453125 314.328125 -107.742188 313.300781 -113.078125 C 312.175781 -118.414062 305.8125 -121.597656 313.300781 -129.179688 C 320.785156 -136.667969 325.09375 -156.980469 325.09375 -163.441406 C 325.09375 -169.898438 327.527344 -198.824219 327.246094 -200.976562 C 326.964844 -203.128906 328.835938 -206.3125 327.246094 -209.308594 C 325.652344 -212.210938 318.914062 -214.925781 306.09375 -219.792969 C 293.269531 -224.660156 279.792969 -226.71875 269.121094 -225.128906 C 258.359375 -223.535156 265.378906 -221.945312 243.382812 -219.230469 C 105.332031 -202.382812 119.371094 -357.207031 181.796875 -379.859375 C 193.589844 -384.167969 210.71875 -386.320312 216.617188 -385.757812 C 222.511719 -385.195312 238.515625 -386.789062 242.355469 -387.628906 C 246.097656 -388.472656 250.871094 -386.320312 255.175781 -384.167969 C 259.480469 -382.011719 261.914062 -379.671875 263.226562 -379.671875 C 264.535156 -379.671875 276.609375 -384.261719 282.226562 -387.441406 C 287.839844 -390.625 295.046875 -397.644531 297.480469 -391.46875 C 299.914062 -385.289062 303.941406 -379.671875 303.941406 -379.671875 C 303.941406 -379.671875 316.011719 -380.703125 318.167969 -380.984375 C 320.320312 -381.265625 323.03125 -379.113281 323.78125 -377.519531 C 324.625 -375.929688 328.648438 -379.113281 330.988281 -377.519531 C 333.421875 -375.929688 334.171875 -374.804688 337.164062 -373.214844 C 340.160156 -371.621094 347.648438 -372.933594 352.703125 -371.621094 C 357.757812 -370.3125 358.597656 -367.035156 359.628906 -358.796875 C 360.65625 -350.46875 355.882812 -336.050781 353.453125 -326.972656 C 350.644531 -317.707031 362.625 -312.652344 362.625 -312.652344 Z M 362.625 -312.652344 " fill-opacity="1" fill-rule="evenodd"/></g><g clip-path="url(#878352b9f9)"><path fill="#ff66c4" d="M 12.367188 -312.652344 L -7.945312 -315.832031 C -7.945312 -315.832031 -34.992188 -344.664062 -37.144531 -353.277344 C -39.296875 -361.886719 -53.710938 -400.453125 -66.535156 -421.796875 C -79.355469 -443.234375 -87.96875 -477.492188 -92.273438 -482.828125 C -96.578125 -488.164062 -101.914062 -497.804688 -104.066406 -505.292969 C -106.21875 -512.78125 -111.554688 -519.242188 -112.582031 -524.578125 C -113.613281 -529.914062 -121.101562 -555.65625 -121.101562 -555.65625 C -121.101562 -555.65625 -116.792969 -567.449219 -113.613281 -578.121094 C -110.429688 -588.886719 -116.792969 -609.199219 -116.792969 -609.199219 C -116.792969 -609.199219 -105.5625 -688.203125 -97.234375 -717.875 C -88.902344 -747.550781 -74.207031 -778.347656 -74.207031 -778.347656 C -74.207031 -778.347656 -58.671875 -780.21875 -51.746094 -787.144531 C -44.820312 -794.074219 -39.671875 -797.070312 -37.238281 -798.941406 C -34.804688 -800.8125 -10.75 -807.273438 -8.878906 -809.425781 C -7.007812 -811.578125 -8.878906 -817.753906 -12.34375 -819.066406 C -15.804688 -820.375 -26.570312 -820.9375 -32.464844 -819.066406 C -38.363281 -817.195312 -45.847656 -815.601562 -46.691406 -817.476562 C -47.535156 -819.347656 -48.5625 -825.523438 -46.128906 -829.832031 C -43.695312 -834.136719 -29.285156 -850.425781 -25.820312 -854.167969 C -22.355469 -857.914062 3.660156 -871.578125 4.410156 -873.734375 C 5.253906 -875.886719 6.28125 -878.039062 5.441406 -880.472656 C 4.597656 -882.90625 1.789062 -884.125 1.789062 -884.125 C 1.789062 -884.125 11.710938 -892.921875 12.648438 -894.699219 C 13.582031 -896.480469 15.363281 -903.5 14.800781 -905.652344 C 14.238281 -907.804688 12.273438 -908.460938 11.335938 -908.367188 C 10.402344 -908.273438 6.003906 -907.992188 6.003906 -907.992188 C 6.003906 -907.992188 7.21875 -909.492188 6.375 -910.894531 C 5.535156 -912.394531 3.753906 -913.421875 1.601562 -912.765625 C -0.550781 -912.113281 -6.445312 -908.929688 -6.445312 -908.929688 C -6.445312 -908.929688 -25.445312 -898.914062 -34.523438 -893.484375 C -43.601562 -888.148438 -66.910156 -863.808594 -70.371094 -859.503906 C -73.835938 -855.199219 -93.394531 -819.066406 -103.035156 -805.679688 C -112.675781 -792.292969 -117.449219 -778.347656 -119.039062 -774.039062 C -120.632812 -769.734375 -160.785156 -700.652344 -170.425781 -667.515625 C -180.0625 -634.285156 -197.191406 -582.425781 -197.191406 -582.425781 C -197.191406 -582.425781 -243.800781 -566.328125 -241.089844 -564.734375 C -238.46875 -563.144531 -270.007812 -538.992188 -270.007812 -538.992188 C -270.007812 -538.992188 -267.292969 -526.167969 -254.003906 -512.78125 C -240.621094 -499.398438 -237.4375 -489.753906 -234.722656 -475.339844 C -232.007812 -460.925781 -233.695312 -439.488281 -231.542969 -432 C -229.386719 -424.511719 -218.71875 -403.636719 -218.71875 -403.636719 C -218.71875 -403.636719 -215.535156 -369.9375 -226.207031 -361.328125 C -236.875 -352.714844 -224.054688 -310.964844 -242.304688 -303.476562 C -260.554688 -295.988281 -297.992188 -292.804688 -297.992188 -292.804688 C -297.992188 -292.804688 -309.785156 -423.480469 -308.664062 -436.867188 C -307.632812 -450.253906 -313.53125 -506.980469 -323.171875 -523.078125 C -332.8125 -539.085938 -401.320312 -619.496094 -433.425781 -640.835938 C -465.527344 -662.273438 -523.929688 -696.535156 -528.238281 -706.175781 C -532.542969 -715.816406 -571.570312 -773.667969 -579.621094 -791.828125 C -587.667969 -810.078125 -590.382812 -812.699219 -590.382812 -812.699219 L -602.175781 -806.242188 C -602.175781 -806.242188 -610.785156 -815.882812 -615 -830.859375 C -619.304688 -845.835938 -628.382812 -870.457031 -636.433594 -872.609375 C -644.480469 -874.761719 -661.609375 -875.792969 -665.914062 -867.273438 C -670.21875 -858.660156 -664.882812 -772.449219 -665.914062 -750.546875 C -666.945312 -728.640625 -666.476562 -710.949219 -664.324219 -703.929688 C -662.171875 -697.003906 -647.851562 -686.519531 -646.820312 -671.449219 C -645.792969 -656.46875 -660.109375 -619.777344 -660.109375 -619.777344 C -660.109375 -619.777344 -570.167969 -482.734375 -534.882812 -453.808594 C -499.503906 -424.886719 -470.582031 -397.085938 -465.246094 -386.320312 C -459.910156 -375.648438 -457.757812 -269.589844 -457.757812 -240.667969 C -457.757812 -211.742188 -460.941406 -160.351562 -457.757812 -125.0625 C -454.578125 -89.679688 -444.9375 -47.929688 -447.089844 -41.46875 C -449.242188 -35.011719 -477.976562 -12.734375 -501.65625 13.007812 C -525.335938 38.84375 -526.363281 62.339844 -530.667969 69.828125 C -534.976562 77.316406 -574.566406 71.980469 -582.054688 71.980469 C -589.539062 71.980469 -663.480469 109.988281 -667.691406 109.988281 C -671.996094 109.988281 -655.429688 159.785156 -655.429688 159.785156 L -676.304688 181.691406 C -676.304688 181.691406 -685.941406 203.125 -686.503906 213.328125 C -687.066406 223.53125 -691.839844 274.921875 -685.941406 282.972656 C -680.046875 291.023438 -671.53125 293.738281 -662.355469 286.15625 C -653.277344 278.667969 -633.4375 250.867188 -629.691406 247.589844 C -625.949219 244.40625 -601.332031 232.050781 -601.332031 232.050781 C -601.332031 232.050781 -521.589844 224.5625 -510.828125 219.226562 C -500.15625 213.890625 -494.261719 202.097656 -484.621094 201.535156 C -474.980469 200.972656 -380.167969 186.558594 -368.46875 175.886719 C -356.675781 165.121094 -352.464844 164.089844 -347.035156 157.632812 C -341.703125 151.171875 -336.273438 149.113281 -333.652344 144.246094 C -331.03125 139.472656 -311.75 63.371094 -308.476562 46.238281 C -305.292969 29.109375 -295.652344 8.703125 -295.652344 8.703125 L -289.195312 -8.425781 L -283.859375 -13.761719 C -283.859375 -13.761719 -227.140625 -49.050781 -214.226562 -57.664062 C -201.402344 -66.277344 -187.457031 -64.125 -170.328125 -65.152344 C -153.203125 -66.183594 -112.488281 -56.542969 -107.152344 -58.695312 C -101.820312 -60.847656 -82.539062 -35.105469 -82.539062 -19.097656 C -82.539062 -2.996094 -82.539062 10.855469 -76.082031 31.261719 C -69.714844 51.574219 -53.617188 59.15625 -46.128906 68.800781 C -38.640625 78.441406 -38.640625 117.007812 -38.640625 117.007812 C -38.640625 117.007812 3.101562 111.671875 -0.0820312 117.007812 C -3.261719 122.34375 54.484375 117.007812 54.484375 117.007812 C 54.484375 117.007812 71.613281 145.929688 117.660156 182.34375 C 163.710938 218.757812 240.269531 271.738281 250.941406 279.226562 C 261.609375 286.71875 306.628906 306.5625 313.554688 306.5625 C 320.480469 306.5625 326.375 309.277344 326.375 309.277344 C 326.375 309.277344 331.710938 314.894531 334.144531 315.171875 C 336.578125 315.453125 339.480469 315.171875 340.324219 313.863281 C 341.164062 312.550781 346.21875 316.765625 348.089844 313.863281 C 349.960938 310.960938 350.242188 309.839844 350.242188 309.839844 C 350.242188 309.839844 352.675781 307.683594 353.613281 306.46875 C 354.550781 305.25 348.933594 300.476562 346.125 298.980469 C 343.316406 297.480469 331.804688 296.171875 327.78125 293.175781 C 323.757812 290.273438 292.683594 265.375 291.371094 262.660156 C 290.0625 259.945312 281.453125 251.144531 279.390625 246.277344 C 277.238281 241.410156 274.058594 233.171875 276.398438 231.019531 C 278.832031 228.867188 293.804688 231.863281 300.265625 229.710938 C 306.722656 227.558594 314.957031 222.222656 315.519531 219.226562 C 316.082031 216.324219 310.933594 213.046875 302.417969 212.300781 C 293.898438 211.457031 268.441406 207.992188 261.984375 207.710938 C 255.527344 207.433594 229.320312 212.300781 229.320312 212.300781 C 229.320312 212.300781 218.089844 211.738281 208.449219 201.628906 C 198.808594 191.425781 129.171875 95.101562 129.171875 95.101562 C 129.171875 95.101562 114.199219 32.480469 97.070312 11.042969 C 79.941406 -10.390625 71.332031 -17.882812 71.332031 -24.246094 C 71.332031 -30.707031 71.332031 -40.347656 71.332031 -56.355469 C 71.332031 -72.453125 60.660156 -107.742188 61.691406 -113.078125 C 62.8125 -118.414062 69.179688 -121.597656 61.691406 -129.179688 C 54.203125 -136.667969 49.898438 -156.980469 49.898438 -163.441406 C 49.898438 -169.898438 47.464844 -198.824219 47.746094 -200.976562 C 48.027344 -203.128906 46.15625 -206.3125 47.746094 -209.308594 C 49.335938 -212.210938 56.074219 -214.925781 68.898438 -219.792969 C 81.71875 -224.660156 95.199219 -226.71875 105.867188 -225.128906 C 116.632812 -223.535156 109.613281 -221.945312 131.605469 -219.230469 C 269.660156 -202.382812 255.621094 -357.207031 193.191406 -379.859375 C 181.398438 -384.167969 164.269531 -386.320312 158.375 -385.757812 C 152.476562 -385.195312 136.472656 -386.789062 132.636719 -387.628906 C 128.890625 -388.472656 124.117188 -386.320312 119.8125 -384.167969 C 115.507812 -382.011719 113.074219 -379.671875 111.765625 -379.671875 C 110.453125 -379.671875 98.378906 -384.261719 92.765625 -387.441406 C 87.148438 -390.625 79.941406 -397.644531 77.507812 -391.46875 C 75.074219 -385.289062 71.050781 -379.671875 71.050781 -379.671875 C 71.050781 -379.671875 58.976562 -380.703125 56.824219 -380.984375 C 54.671875 -381.265625 51.957031 -379.113281 51.207031 -377.519531 C 50.367188 -375.929688 46.339844 -379.113281 44 -377.519531 C 41.566406 -375.929688 40.820312 -374.804688 37.824219 -373.214844 C 34.828125 -371.621094 27.34375 -372.933594 22.289062 -371.621094 C 17.234375 -370.3125 16.390625 -367.035156 15.363281 -358.796875 C 14.332031 -350.46875 19.105469 -336.050781 21.539062 -326.972656 C 24.347656 -317.707031 12.367188 -312.652344 12.367188 -312.652344 Z M 12.367188 -312.652344 " fill-opacity="1" fill-rule="evenodd"/></g></svg>